ISO-10303-21;
HEADER;
/* Generated by software containing ST-Developer
 * from STEP Tools, Inc. (www.steptools.com) 
 */
/* OPTION: using custom renumber hook */

FILE_DESCRIPTION(
/* description */ ('STEP AP242 Edition 2',
'CAx-IF Rec.Pracs.---Representation and Presentation of Product Manufa
cturing Information (PMI)---4.0---2014-10-13',
'CAx-IF Rec.Pracs.---3D Tessellated Geometry---0.4---2014-09-14','2;1',
'CAx-IF Rec.Pracs.---User Defined Attributes---1.5---2016-08-15'),
/* implementation_level */ '2;1');

FILE_NAME(
/* name */ 'Gimbal Holder - Part 2',
/* time_stamp */ '2026-06-08T01:11:41Z',
/* author */ (''),
/* organization */ (''),
/* preprocessor_version */ 'ST-DEVELOPER v20',
/* originating_system */ 'ONSHAPE BY PTC INC, 1.216',
/* authorisation */ '  ');

FILE_SCHEMA (('AP242_MANAGED_MODEL_BASED_3D_ENGINEERING_MIM_LF { 1 0 10303 442 3 1 4 }'));
ENDSEC;

DATA;
#10=SHAPE_REPRESENTATION_RELATIONSHIP('','',#790,#11);
#11=ADVANCED_BREP_SHAPE_REPRESENTATION('',(#788),#1335);
#12=TOROIDAL_SURFACE('',#857,0.00165,0.0004);
#13=TOROIDAL_SURFACE('',#859,0.00165,0.0004);
#14=TOROIDAL_SURFACE('',#865,0.001775,0.0004);
#15=TOROIDAL_SURFACE('',#867,0.00165,0.0004);
#16=TOROIDAL_SURFACE('',#878,0.01575,0.001);
#17=LINE('',#1137,#77);
#18=LINE('',#1140,#78);
#19=LINE('',#1142,#79);
#20=LINE('',#1144,#80);
#21=LINE('',#1146,#81);
#22=LINE('',#1148,#82);
#23=LINE('',#1150,#83);
#24=LINE('',#1152,#84);
#25=LINE('',#1154,#85);
#26=LINE('',#1156,#86);
#27=LINE('',#1158,#87);
#28=LINE('',#1162,#88);
#29=LINE('',#1166,#89);
#30=LINE('',#1170,#90);
#31=LINE('',#1174,#91);
#32=LINE('',#1176,#92);
#33=LINE('',#1180,#93);
#34=LINE('',#1182,#94);
#35=LINE('',#1184,#95);
#36=LINE('',#1194,#96);
#37=LINE('',#1198,#97);
#38=LINE('',#1202,#98);
#39=LINE('',#1206,#99);
#40=LINE('',#1216,#100);
#41=LINE('',#1218,#101);
#42=LINE('',#1220,#102);
#43=LINE('',#1223,#103);
#44=LINE('',#1224,#104);
#45=LINE('',#1226,#105);
#46=LINE('',#1227,#106);
#47=LINE('',#1229,#107);
#48=LINE('',#1231,#108);
#49=LINE('',#1232,#109);
#50=LINE('',#1234,#110);
#51=LINE('',#1236,#111);
#52=LINE('',#1238,#112);
#53=LINE('',#1240,#113);
#54=LINE('',#1246,#114);
#55=LINE('',#1248,#115);
#56=LINE('',#1250,#116);
#57=LINE('',#1252,#117);
#58=LINE('',#1254,#118);
#59=LINE('',#1258,#119);
#60=LINE('',#1260,#120);
#61=LINE('',#1262,#121);
#62=LINE('',#1266,#122);
#63=LINE('',#1268,#123);
#64=LINE('',#1270,#124);
#65=LINE('',#1274,#125);
#66=LINE('',#1276,#126);
#67=LINE('',#1312,#127);
#68=LINE('',#1314,#128);
#69=LINE('',#1316,#129);
#70=LINE('',#1318,#130);
#71=LINE('',#1320,#131);
#72=LINE('',#1323,#132);
#73=LINE('',#1325,#133);
#74=LINE('',#1327,#134);
#75=LINE('',#1329,#135);
#76=LINE('',#1331,#136);
#77=VECTOR('',#907,1.);
#78=VECTOR('',#908,1.);
#79=VECTOR('',#909,1.);
#80=VECTOR('',#910,1.);
#81=VECTOR('',#911,1.);
#82=VECTOR('',#912,1.);
#83=VECTOR('',#913,1.);
#84=VECTOR('',#914,1.);
#85=VECTOR('',#915,1.);
#86=VECTOR('',#916,1.);
#87=VECTOR('',#917,1.);
#88=VECTOR('',#920,1.);
#89=VECTOR('',#923,1.);
#90=VECTOR('',#926,1.);
#91=VECTOR('',#929,1.);
#92=VECTOR('',#930,1.);
#93=VECTOR('',#935,1.);
#94=VECTOR('',#936,1.);
#95=VECTOR('',#937,1.);
#96=VECTOR('',#948,1.);
#97=VECTOR('',#951,1.);
#98=VECTOR('',#954,1.);
#99=VECTOR('',#957,1.);
#100=VECTOR('',#968,1.);
#101=VECTOR('',#969,1.);
#102=VECTOR('',#972,1.);
#103=VECTOR('',#973,1.);
#104=VECTOR('',#974,1.);
#105=VECTOR('',#975,1.);
#106=VECTOR('',#976,1.);
#107=VECTOR('',#977,1.);
#108=VECTOR('',#978,1.);
#109=VECTOR('',#979,1.);
#110=VECTOR('',#982,1.);
#111=VECTOR('',#983,1.);
#112=VECTOR('',#986,1.);
#113=VECTOR('',#987,1.);
#114=VECTOR('',#994,1.);
#115=VECTOR('',#997,1.);
#116=VECTOR('',#998,1.);
#117=VECTOR('',#999,1.);
#118=VECTOR('',#1002,1.);
#119=VECTOR('',#1007,1.);
#120=VECTOR('',#1008,1.);
#121=VECTOR('',#1011,1.);
#122=VECTOR('',#1016,1.);
#123=VECTOR('',#1017,1.);
#124=VECTOR('',#1020,1.);
#125=VECTOR('',#1025,1.);
#126=VECTOR('',#1026,1.);
#127=VECTOR('',#1089,1.);
#128=VECTOR('',#1090,1.);
#129=VECTOR('',#1091,1.);
#130=VECTOR('',#1094,1.);
#131=VECTOR('',#1097,1.);
#132=VECTOR('',#1102,1.);
#133=VECTOR('',#1103,1.);
#134=VECTOR('',#1104,1.);
#135=VECTOR('',#1107,1.);
#136=VECTOR('',#1110,1.);
#137=PLANE('',#804);
#138=PLANE('',#810);
#139=PLANE('',#813);
#140=PLANE('',#823);
#141=PLANE('',#824);
#142=PLANE('',#825);
#143=PLANE('',#826);
#144=PLANE('',#827);
#145=PLANE('',#830);
#146=PLANE('',#833);
#147=PLANE('',#836);
#148=PLANE('',#839);
#149=PLANE('',#844);
#150=PLANE('',#847);
#151=PLANE('',#850);
#152=PLANE('',#853);
#153=PLANE('',#870);
#154=PLANE('',#871);
#155=PLANE('',#872);
#156=PLANE('',#873);
#157=PLANE('',#874);
#158=PLANE('',#875);
#159=PLANE('',#876);
#160=PLANE('',#877);
#161=ORIENTED_EDGE('',*,*,#363,.F.);
#162=ORIENTED_EDGE('',*,*,#364,.T.);
#163=ORIENTED_EDGE('',*,*,#365,.T.);
#164=ORIENTED_EDGE('',*,*,#366,.F.);
#165=ORIENTED_EDGE('',*,*,#367,.F.);
#166=ORIENTED_EDGE('',*,*,#368,.T.);
#167=ORIENTED_EDGE('',*,*,#369,.T.);
#168=ORIENTED_EDGE('',*,*,#370,.F.);
#169=ORIENTED_EDGE('',*,*,#371,.F.);
#170=ORIENTED_EDGE('',*,*,#372,.T.);
#171=ORIENTED_EDGE('',*,*,#373,.T.);
#172=ORIENTED_EDGE('',*,*,#374,.T.);
#173=ORIENTED_EDGE('',*,*,#375,.F.);
#174=ORIENTED_EDGE('',*,*,#376,.T.);
#175=ORIENTED_EDGE('',*,*,#377,.T.);
#176=ORIENTED_EDGE('',*,*,#378,.F.);
#177=ORIENTED_EDGE('',*,*,#379,.F.);
#178=ORIENTED_EDGE('',*,*,#380,.T.);
#179=ORIENTED_EDGE('',*,*,#381,.T.);
#180=ORIENTED_EDGE('',*,*,#382,.F.);
#181=ORIENTED_EDGE('',*,*,#383,.F.);
#182=ORIENTED_EDGE('',*,*,#384,.F.);
#183=ORIENTED_EDGE('',*,*,#385,.F.);
#184=ORIENTED_EDGE('',*,*,#386,.F.);
#185=ORIENTED_EDGE('',*,*,#387,.T.);
#186=ORIENTED_EDGE('',*,*,#388,.F.);
#187=ORIENTED_EDGE('',*,*,#389,.T.);
#188=ORIENTED_EDGE('',*,*,#390,.F.);
#189=ORIENTED_EDGE('',*,*,#367,.T.);
#190=ORIENTED_EDGE('',*,*,#365,.F.);
#191=ORIENTED_EDGE('',*,*,#391,.F.);
#192=ORIENTED_EDGE('',*,*,#363,.T.);
#193=ORIENTED_EDGE('',*,*,#369,.F.);
#194=ORIENTED_EDGE('',*,*,#392,.F.);
#195=ORIENTED_EDGE('',*,*,#381,.F.);
#196=ORIENTED_EDGE('',*,*,#393,.F.);
#197=ORIENTED_EDGE('',*,*,#394,.T.);
#198=ORIENTED_EDGE('',*,*,#395,.T.);
#199=ORIENTED_EDGE('',*,*,#391,.T.);
#200=ORIENTED_EDGE('',*,*,#396,.T.);
#201=ORIENTED_EDGE('',*,*,#397,.T.);
#202=ORIENTED_EDGE('',*,*,#398,.T.);
#203=ORIENTED_EDGE('',*,*,#399,.T.);
#204=ORIENTED_EDGE('',*,*,#400,.T.);
#205=ORIENTED_EDGE('',*,*,#401,.T.);
#206=ORIENTED_EDGE('',*,*,#402,.T.);
#207=ORIENTED_EDGE('',*,*,#403,.T.);
#208=ORIENTED_EDGE('',*,*,#404,.T.);
#209=ORIENTED_EDGE('',*,*,#405,.F.);
#210=ORIENTED_EDGE('',*,*,#406,.F.);
#211=ORIENTED_EDGE('',*,*,#407,.F.);
#212=ORIENTED_EDGE('',*,*,#408,.F.);
#213=ORIENTED_EDGE('',*,*,#380,.F.);
#214=ORIENTED_EDGE('',*,*,#409,.F.);
#215=ORIENTED_EDGE('',*,*,#410,.T.);
#216=ORIENTED_EDGE('',*,*,#393,.T.);
#217=ORIENTED_EDGE('',*,*,#411,.T.);
#218=ORIENTED_EDGE('',*,*,#412,.T.);
#219=ORIENTED_EDGE('',*,*,#371,.T.);
#220=ORIENTED_EDGE('',*,*,#413,.F.);
#221=ORIENTED_EDGE('',*,*,#414,.F.);
#222=ORIENTED_EDGE('',*,*,#409,.T.);
#223=ORIENTED_EDGE('',*,*,#379,.T.);
#224=ORIENTED_EDGE('',*,*,#415,.F.);
#225=ORIENTED_EDGE('',*,*,#416,.T.);
#226=ORIENTED_EDGE('',*,*,#417,.T.);
#227=ORIENTED_EDGE('',*,*,#375,.T.);
#228=ORIENTED_EDGE('',*,*,#418,.T.);
#229=ORIENTED_EDGE('',*,*,#390,.T.);
#230=ORIENTED_EDGE('',*,*,#419,.F.);
#231=ORIENTED_EDGE('',*,*,#420,.F.);
#232=ORIENTED_EDGE('',*,*,#413,.T.);
#233=ORIENTED_EDGE('',*,*,#421,.F.);
#234=ORIENTED_EDGE('',*,*,#422,.T.);
#235=ORIENTED_EDGE('',*,*,#419,.T.);
#236=ORIENTED_EDGE('',*,*,#389,.F.);
#237=ORIENTED_EDGE('',*,*,#423,.F.);
#238=ORIENTED_EDGE('',*,*,#394,.F.);
#239=ORIENTED_EDGE('',*,*,#410,.F.);
#240=ORIENTED_EDGE('',*,*,#414,.T.);
#241=ORIENTED_EDGE('',*,*,#420,.T.);
#242=ORIENTED_EDGE('',*,*,#422,.F.);
#243=ORIENTED_EDGE('',*,*,#424,.F.);
#244=ORIENTED_EDGE('',*,*,#425,.T.);
#245=ORIENTED_EDGE('',*,*,#426,.F.);
#246=ORIENTED_EDGE('',*,*,#427,.T.);
#247=ORIENTED_EDGE('',*,*,#428,.T.);
#248=ORIENTED_EDGE('',*,*,#383,.T.);
#249=ORIENTED_EDGE('',*,*,#429,.F.);
#250=ORIENTED_EDGE('',*,*,#430,.T.);
#251=ORIENTED_EDGE('',*,*,#426,.T.);
#252=ORIENTED_EDGE('',*,*,#382,.T.);
#253=ORIENTED_EDGE('',*,*,#392,.T.);
#254=ORIENTED_EDGE('',*,*,#423,.T.);
#255=ORIENTED_EDGE('',*,*,#431,.F.);
#256=ORIENTED_EDGE('',*,*,#432,.T.);
#257=ORIENTED_EDGE('',*,*,#429,.T.);
#258=ORIENTED_EDGE('',*,*,#425,.F.);
#259=ORIENTED_EDGE('',*,*,#433,.F.);
#260=ORIENTED_EDGE('',*,*,#434,.T.);
#261=ORIENTED_EDGE('',*,*,#431,.T.);
#262=ORIENTED_EDGE('',*,*,#424,.T.);
#263=ORIENTED_EDGE('',*,*,#421,.T.);
#264=ORIENTED_EDGE('',*,*,#388,.T.);
#265=ORIENTED_EDGE('',*,*,#435,.F.);
#266=ORIENTED_EDGE('',*,*,#436,.T.);
#267=ORIENTED_EDGE('',*,*,#433,.T.);
#268=ORIENTED_EDGE('',*,*,#387,.F.);
#269=ORIENTED_EDGE('',*,*,#437,.F.);
#270=ORIENTED_EDGE('',*,*,#438,.T.);
#271=ORIENTED_EDGE('',*,*,#435,.T.);
#272=ORIENTED_EDGE('',*,*,#386,.T.);
#273=ORIENTED_EDGE('',*,*,#439,.F.);
#274=ORIENTED_EDGE('',*,*,#440,.T.);
#275=ORIENTED_EDGE('',*,*,#437,.T.);
#276=ORIENTED_EDGE('',*,*,#385,.T.);
#277=ORIENTED_EDGE('',*,*,#428,.F.);
#278=ORIENTED_EDGE('',*,*,#441,.T.);
#279=ORIENTED_EDGE('',*,*,#439,.T.);
#280=ORIENTED_EDGE('',*,*,#384,.T.);
#281=ORIENTED_EDGE('',*,*,#442,.F.);
#282=ORIENTED_EDGE('',*,*,#408,.T.);
#283=ORIENTED_EDGE('',*,*,#364,.F.);
#284=ORIENTED_EDGE('',*,*,#442,.T.);
#285=ORIENTED_EDGE('',*,*,#443,.F.);
#286=ORIENTED_EDGE('',*,*,#407,.T.);
#287=ORIENTED_EDGE('',*,*,#366,.T.);
#288=ORIENTED_EDGE('',*,*,#443,.T.);
#289=ORIENTED_EDGE('',*,*,#444,.F.);
#290=ORIENTED_EDGE('',*,*,#406,.T.);
#291=ORIENTED_EDGE('',*,*,#368,.F.);
#292=ORIENTED_EDGE('',*,*,#444,.T.);
#293=ORIENTED_EDGE('',*,*,#445,.F.);
#294=ORIENTED_EDGE('',*,*,#405,.T.);
#295=ORIENTED_EDGE('',*,*,#370,.T.);
#296=ORIENTED_EDGE('',*,*,#445,.T.);
#297=ORIENTED_EDGE('',*,*,#446,.F.);
#298=ORIENTED_EDGE('',*,*,#436,.F.);
#299=ORIENTED_EDGE('',*,*,#447,.F.);
#300=ORIENTED_EDGE('',*,*,#402,.F.);
#301=ORIENTED_EDGE('',*,*,#447,.T.);
#302=ORIENTED_EDGE('',*,*,#438,.F.);
#303=ORIENTED_EDGE('',*,*,#448,.F.);
#304=ORIENTED_EDGE('',*,*,#403,.F.);
#305=ORIENTED_EDGE('',*,*,#446,.T.);
#306=ORIENTED_EDGE('',*,*,#401,.F.);
#307=ORIENTED_EDGE('',*,*,#449,.F.);
#308=ORIENTED_EDGE('',*,*,#434,.F.);
#309=ORIENTED_EDGE('',*,*,#448,.T.);
#310=ORIENTED_EDGE('',*,*,#440,.F.);
#311=ORIENTED_EDGE('',*,*,#450,.F.);
#312=ORIENTED_EDGE('',*,*,#404,.F.);
#313=ORIENTED_EDGE('',*,*,#449,.T.);
#314=ORIENTED_EDGE('',*,*,#400,.F.);
#315=ORIENTED_EDGE('',*,*,#451,.F.);
#316=ORIENTED_EDGE('',*,*,#432,.F.);
#317=ORIENTED_EDGE('',*,*,#450,.T.);
#318=ORIENTED_EDGE('',*,*,#441,.F.);
#319=ORIENTED_EDGE('',*,*,#452,.F.);
#320=ORIENTED_EDGE('',*,*,#397,.F.);
#321=ORIENTED_EDGE('',*,*,#451,.T.);
#322=ORIENTED_EDGE('',*,*,#399,.F.);
#323=ORIENTED_EDGE('',*,*,#453,.F.);
#324=ORIENTED_EDGE('',*,*,#430,.F.);
#325=ORIENTED_EDGE('',*,*,#452,.T.);
#326=ORIENTED_EDGE('',*,*,#427,.F.);
#327=ORIENTED_EDGE('',*,*,#453,.T.);
#328=ORIENTED_EDGE('',*,*,#398,.F.);
#329=ORIENTED_EDGE('',*,*,#454,.F.);
#330=ORIENTED_EDGE('',*,*,#455,.F.);
#331=ORIENTED_EDGE('',*,*,#456,.T.);
#332=ORIENTED_EDGE('',*,*,#377,.F.);
#333=ORIENTED_EDGE('',*,*,#417,.F.);
#334=ORIENTED_EDGE('',*,*,#457,.T.);
#335=ORIENTED_EDGE('',*,*,#454,.T.);
#336=ORIENTED_EDGE('',*,*,#376,.F.);
#337=ORIENTED_EDGE('',*,*,#378,.T.);
#338=ORIENTED_EDGE('',*,*,#456,.F.);
#339=ORIENTED_EDGE('',*,*,#458,.F.);
#340=ORIENTED_EDGE('',*,*,#415,.T.);
#341=ORIENTED_EDGE('',*,*,#458,.T.);
#342=ORIENTED_EDGE('',*,*,#455,.T.);
#343=ORIENTED_EDGE('',*,*,#457,.F.);
#344=ORIENTED_EDGE('',*,*,#416,.F.);
#345=ORIENTED_EDGE('',*,*,#459,.F.);
#346=ORIENTED_EDGE('',*,*,#460,.F.);
#347=ORIENTED_EDGE('',*,*,#461,.F.);
#348=ORIENTED_EDGE('',*,*,#373,.F.);
#349=ORIENTED_EDGE('',*,*,#412,.F.);
#350=ORIENTED_EDGE('',*,*,#462,.T.);
#351=ORIENTED_EDGE('',*,*,#459,.T.);
#352=ORIENTED_EDGE('',*,*,#372,.F.);
#353=ORIENTED_EDGE('',*,*,#461,.T.);
#354=ORIENTED_EDGE('',*,*,#463,.F.);
#355=ORIENTED_EDGE('',*,*,#418,.F.);
#356=ORIENTED_EDGE('',*,*,#374,.F.);
#357=ORIENTED_EDGE('',*,*,#463,.T.);
#358=ORIENTED_EDGE('',*,*,#460,.T.);
#359=ORIENTED_EDGE('',*,*,#462,.F.);
#360=ORIENTED_EDGE('',*,*,#411,.F.);
#361=ORIENTED_EDGE('',*,*,#395,.F.);
#362=ORIENTED_EDGE('',*,*,#396,.F.);
#363=EDGE_CURVE('',#464,#464,#535,.T.);
#364=EDGE_CURVE('',#465,#465,#536,.T.);
#365=EDGE_CURVE('',#466,#466,#537,.T.);
#366=EDGE_CURVE('',#467,#467,#538,.T.);
#367=EDGE_CURVE('',#468,#468,#539,.T.);
#368=EDGE_CURVE('',#469,#469,#540,.T.);
#369=EDGE_CURVE('',#470,#470,#541,.T.);
#370=EDGE_CURVE('',#471,#471,#542,.T.);
#371=EDGE_CURVE('',#472,#473,#17,.T.);
#372=EDGE_CURVE('',#472,#474,#18,.T.);
#373=EDGE_CURVE('',#474,#475,#19,.T.);
#374=EDGE_CURVE('',#475,#476,#20,.T.);
#375=EDGE_CURVE('',#477,#476,#21,.T.);
#376=EDGE_CURVE('',#477,#478,#22,.T.);
#377=EDGE_CURVE('',#478,#479,#23,.T.);
#378=EDGE_CURVE('',#480,#479,#24,.T.);
#379=EDGE_CURVE('',#481,#480,#25,.T.);
#380=EDGE_CURVE('',#481,#482,#26,.T.);
#381=EDGE_CURVE('',#482,#483,#27,.T.);
#382=EDGE_CURVE('',#484,#483,#543,.T.);
#383=EDGE_CURVE('',#485,#484,#28,.T.);
#384=EDGE_CURVE('',#486,#485,#544,.T.);
#385=EDGE_CURVE('',#487,#486,#29,.T.);
#386=EDGE_CURVE('',#488,#487,#545,.T.);
#387=EDGE_CURVE('',#488,#489,#30,.T.);
#388=EDGE_CURVE('',#490,#489,#546,.T.);
#389=EDGE_CURVE('',#490,#491,#31,.T.);
#390=EDGE_CURVE('',#473,#491,#32,.T.);
#391=EDGE_CURVE('',#492,#492,#547,.T.);
#392=EDGE_CURVE('',#483,#493,#33,.F.);
#393=EDGE_CURVE('',#494,#482,#34,.T.);
#394=EDGE_CURVE('',#494,#493,#35,.T.);
#395=EDGE_CURVE('',#495,#495,#548,.F.);
#396=EDGE_CURVE('',#496,#496,#549,.T.);
#397=EDGE_CURVE('',#497,#498,#550,.F.);
#398=EDGE_CURVE('',#498,#499,#36,.T.);
#399=EDGE_CURVE('',#499,#500,#551,.F.);
#400=EDGE_CURVE('',#500,#501,#37,.F.);
#401=EDGE_CURVE('',#501,#502,#552,.F.);
#402=EDGE_CURVE('',#502,#503,#38,.F.);
#403=EDGE_CURVE('',#503,#504,#553,.F.);
#404=EDGE_CURVE('',#504,#497,#39,.T.);
#405=EDGE_CURVE('',#505,#505,#554,.T.);
#406=EDGE_CURVE('',#506,#506,#555,.T.);
#407=EDGE_CURVE('',#507,#507,#556,.T.);
#408=EDGE_CURVE('',#508,#508,#557,.T.);
#409=EDGE_CURVE('',#509,#481,#40,.T.);
#410=EDGE_CURVE('',#509,#494,#41,.T.);
#411=EDGE_CURVE('',#510,#511,#42,.T.);
#412=EDGE_CURVE('',#511,#472,#43,.T.);
#413=EDGE_CURVE('',#512,#473,#44,.T.);
#414=EDGE_CURVE('',#509,#512,#45,.T.);
#415=EDGE_CURVE('',#513,#480,#46,.T.);
#416=EDGE_CURVE('',#513,#514,#47,.T.);
#417=EDGE_CURVE('',#514,#477,#48,.T.);
#418=EDGE_CURVE('',#476,#510,#49,.T.);
#419=EDGE_CURVE('',#515,#491,#50,.T.);
#420=EDGE_CURVE('',#512,#515,#51,.T.);
#421=EDGE_CURVE('',#516,#490,#52,.T.);
#422=EDGE_CURVE('',#516,#515,#53,.T.);
#423=EDGE_CURVE('',#493,#517,#558,.T.);
#424=EDGE_CURVE('',#518,#516,#559,.T.);
#425=EDGE_CURVE('',#518,#517,#54,.T.);
#426=EDGE_CURVE('',#519,#484,#55,.T.);
#427=EDGE_CURVE('',#519,#520,#56,.F.);
#428=EDGE_CURVE('',#520,#485,#57,.T.);
#429=EDGE_CURVE('',#521,#517,#58,.T.);
#430=EDGE_CURVE('',#521,#519,#560,.T.);
#431=EDGE_CURVE('',#522,#518,#59,.T.);
#432=EDGE_CURVE('',#522,#521,#60,.T.);
#433=EDGE_CURVE('',#523,#489,#61,.T.);
#434=EDGE_CURVE('',#523,#522,#561,.T.);
#435=EDGE_CURVE('',#524,#488,#62,.T.);
#436=EDGE_CURVE('',#524,#523,#63,.T.);
#437=EDGE_CURVE('',#525,#487,#64,.T.);
#438=EDGE_CURVE('',#525,#524,#562,.T.);
#439=EDGE_CURVE('',#526,#486,#65,.T.);
#440=EDGE_CURVE('',#526,#525,#66,.F.);
#441=EDGE_CURVE('',#520,#526,#563,.T.);
#442=EDGE_CURVE('',#527,#527,#564,.T.);
#443=EDGE_CURVE('',#528,#528,#565,.T.);
#444=EDGE_CURVE('',#529,#529,#566,.T.);
#445=EDGE_CURVE('',#530,#530,#567,.T.);
#446=EDGE_CURVE('',#523,#502,#568,.T.);
#447=EDGE_CURVE('',#503,#524,#569,.T.);
#448=EDGE_CURVE('',#504,#525,#570,.T.);
#449=EDGE_CURVE('',#522,#501,#571,.T.);
#450=EDGE_CURVE('',#497,#526,#572,.T.);
#451=EDGE_CURVE('',#521,#500,#573,.T.);
#452=EDGE_CURVE('',#498,#520,#574,.T.);
#453=EDGE_CURVE('',#519,#499,#575,.T.);
#454=EDGE_CURVE('',#531,#478,#67,.T.);
#455=EDGE_CURVE('',#532,#531,#68,.T.);
#456=EDGE_CURVE('',#532,#479,#69,.T.);
#457=EDGE_CURVE('',#514,#531,#70,.T.);
#458=EDGE_CURVE('',#513,#532,#71,.T.);
#459=EDGE_CURVE('',#533,#474,#72,.T.);
#460=EDGE_CURVE('',#534,#533,#73,.T.);
#461=EDGE_CURVE('',#475,#534,#74,.T.);
#462=EDGE_CURVE('',#511,#533,#75,.T.);
#463=EDGE_CURVE('',#510,#534,#76,.T.);
#464=VERTEX_POINT('',#1118);
#465=VERTEX_POINT('',#1120);
#466=VERTEX_POINT('',#1123);
#467=VERTEX_POINT('',#1125);
#468=VERTEX_POINT('',#1128);
#469=VERTEX_POINT('',#1130);
#470=VERTEX_POINT('',#1133);
#471=VERTEX_POINT('',#1135);
#472=VERTEX_POINT('',#1138);
#473=VERTEX_POINT('',#1139);
#474=VERTEX_POINT('',#1141);
#475=VERTEX_POINT('',#1143);
#476=VERTEX_POINT('',#1145);
#477=VERTEX_POINT('',#1147);
#478=VERTEX_POINT('',#1149);
#479=VERTEX_POINT('',#1151);
#480=VERTEX_POINT('',#1153);
#481=VERTEX_POINT('',#1155);
#482=VERTEX_POINT('',#1157);
#483=VERTEX_POINT('',#1159);
#484=VERTEX_POINT('',#1161);
#485=VERTEX_POINT('',#1163);
#486=VERTEX_POINT('',#1165);
#487=VERTEX_POINT('',#1167);
#488=VERTEX_POINT('',#1169);
#489=VERTEX_POINT('',#1171);
#490=VERTEX_POINT('',#1173);
#491=VERTEX_POINT('',#1175);
#492=VERTEX_POINT('',#1178);
#493=VERTEX_POINT('',#1181);
#494=VERTEX_POINT('',#1183);
#495=VERTEX_POINT('',#1187);
#496=VERTEX_POINT('',#1190);
#497=VERTEX_POINT('',#1192);
#498=VERTEX_POINT('',#1193);
#499=VERTEX_POINT('',#1195);
#500=VERTEX_POINT('',#1197);
#501=VERTEX_POINT('',#1199);
#502=VERTEX_POINT('',#1201);
#503=VERTEX_POINT('',#1203);
#504=VERTEX_POINT('',#1205);
#505=VERTEX_POINT('',#1208);
#506=VERTEX_POINT('',#1210);
#507=VERTEX_POINT('',#1212);
#508=VERTEX_POINT('',#1214);
#509=VERTEX_POINT('',#1217);
#510=VERTEX_POINT('',#1221);
#511=VERTEX_POINT('',#1222);
#512=VERTEX_POINT('',#1225);
#513=VERTEX_POINT('',#1228);
#514=VERTEX_POINT('',#1230);
#515=VERTEX_POINT('',#1235);
#516=VERTEX_POINT('',#1239);
#517=VERTEX_POINT('',#1243);
#518=VERTEX_POINT('',#1245);
#519=VERTEX_POINT('',#1249);
#520=VERTEX_POINT('',#1251);
#521=VERTEX_POINT('',#1255);
#522=VERTEX_POINT('',#1259);
#523=VERTEX_POINT('',#1263);
#524=VERTEX_POINT('',#1267);
#525=VERTEX_POINT('',#1271);
#526=VERTEX_POINT('',#1275);
#527=VERTEX_POINT('',#1281);
#528=VERTEX_POINT('',#1285);
#529=VERTEX_POINT('',#1289);
#530=VERTEX_POINT('',#1293);
#531=VERTEX_POINT('',#1313);
#532=VERTEX_POINT('',#1315);
#533=VERTEX_POINT('',#1324);
#534=VERTEX_POINT('',#1326);
#535=CIRCLE('',#793,0.00125);
#536=CIRCLE('',#794,0.00125);
#537=CIRCLE('',#796,0.00125);
#538=CIRCLE('',#797,0.00125);
#539=CIRCLE('',#799,0.00125);
#540=CIRCLE('',#800,0.00125);
#541=CIRCLE('',#802,0.00125);
#542=CIRCLE('',#803,0.00125);
#543=CIRCLE('',#805,0.00125);
#544=CIRCLE('',#806,0.001375);
#545=CIRCLE('',#807,0.00125);
#546=CIRCLE('',#808,0.00125);
#547=CIRCLE('',#809,0.01675);
#548=CIRCLE('',#812,0.01675);
#549=CIRCLE('',#814,0.01575);
#550=CIRCLE('',#815,0.001775);
#551=CIRCLE('',#816,0.00165);
#552=CIRCLE('',#817,0.00165);
#553=CIRCLE('',#818,0.00165);
#554=CIRCLE('',#819,0.002325);
#555=CIRCLE('',#820,0.002325);
#556=CIRCLE('',#821,0.002325);
#557=CIRCLE('',#822,0.002325);
#558=CIRCLE('',#828,0.00125);
#559=CIRCLE('',#829,0.00125);
#560=CIRCLE('',#832,0.00125);
#561=CIRCLE('',#835,0.00125);
#562=CIRCLE('',#838,0.00125);
#563=CIRCLE('',#841,0.001375);
#564=CIRCLE('',#843,0.002325);
#565=CIRCLE('',#846,0.002325);
#566=CIRCLE('',#849,0.002325);
#567=CIRCLE('',#852,0.002325);
#568=CIRCLE('',#855,0.0004);
#569=CIRCLE('',#856,0.0004);
#570=CIRCLE('',#858,0.0004);
#571=CIRCLE('',#860,0.0004);
#572=CIRCLE('',#862,0.0004);
#573=CIRCLE('',#864,0.0004);
#574=CIRCLE('',#866,0.0004);
#575=CIRCLE('',#868,0.0004);
#576=EDGE_LOOP('',(#161));
#577=EDGE_LOOP('',(#162));
#578=EDGE_LOOP('',(#163));
#579=EDGE_LOOP('',(#164));
#580=EDGE_LOOP('',(#165));
#581=EDGE_LOOP('',(#166));
#582=EDGE_LOOP('',(#167));
#583=EDGE_LOOP('',(#168));
#584=EDGE_LOOP('',(#169,#170,#171,#172,#173,#174,#175,#176,#177,#178,#179,
#180,#181,#182,#183,#184,#185,#186,#187,#188));
#585=EDGE_LOOP('',(#189));
#586=EDGE_LOOP('',(#190));
#587=EDGE_LOOP('',(#191));
#588=EDGE_LOOP('',(#192));
#589=EDGE_LOOP('',(#193));
#590=EDGE_LOOP('',(#194,#195,#196,#197));
#591=EDGE_LOOP('',(#198));
#592=EDGE_LOOP('',(#199));
#593=EDGE_LOOP('',(#200));
#594=EDGE_LOOP('',(#201,#202,#203,#204,#205,#206,#207,#208));
#595=EDGE_LOOP('',(#209));
#596=EDGE_LOOP('',(#210));
#597=EDGE_LOOP('',(#211));
#598=EDGE_LOOP('',(#212));
#599=EDGE_LOOP('',(#213,#214,#215,#216));
#600=EDGE_LOOP('',(#217,#218,#219,#220,#221,#222,#223,#224,#225,#226,#227,
#228));
#601=EDGE_LOOP('',(#229,#230,#231,#232));
#602=EDGE_LOOP('',(#233,#234,#235,#236));
#603=EDGE_LOOP('',(#237,#238,#239,#240,#241,#242,#243,#244));
#604=EDGE_LOOP('',(#245,#246,#247,#248));
#605=EDGE_LOOP('',(#249,#250,#251,#252,#253,#254));
#606=EDGE_LOOP('',(#255,#256,#257,#258));
#607=EDGE_LOOP('',(#259,#260,#261,#262,#263,#264));
#608=EDGE_LOOP('',(#265,#266,#267,#268));
#609=EDGE_LOOP('',(#269,#270,#271,#272));
#610=EDGE_LOOP('',(#273,#274,#275,#276));
#611=EDGE_LOOP('',(#277,#278,#279,#280));
#612=EDGE_LOOP('',(#281));
#613=EDGE_LOOP('',(#282));
#614=EDGE_LOOP('',(#283));
#615=EDGE_LOOP('',(#284));
#616=EDGE_LOOP('',(#285));
#617=EDGE_LOOP('',(#286));
#618=EDGE_LOOP('',(#287));
#619=EDGE_LOOP('',(#288));
#620=EDGE_LOOP('',(#289));
#621=EDGE_LOOP('',(#290));
#622=EDGE_LOOP('',(#291));
#623=EDGE_LOOP('',(#292));
#624=EDGE_LOOP('',(#293));
#625=EDGE_LOOP('',(#294));
#626=EDGE_LOOP('',(#295));
#627=EDGE_LOOP('',(#296));
#628=EDGE_LOOP('',(#297,#298,#299,#300));
#629=EDGE_LOOP('',(#301,#302,#303,#304));
#630=EDGE_LOOP('',(#305,#306,#307,#308));
#631=EDGE_LOOP('',(#309,#310,#311,#312));
#632=EDGE_LOOP('',(#313,#314,#315,#316));
#633=EDGE_LOOP('',(#317,#318,#319,#320));
#634=EDGE_LOOP('',(#321,#322,#323,#324));
#635=EDGE_LOOP('',(#325,#326,#327,#328));
#636=EDGE_LOOP('',(#329,#330,#331,#332));
#637=EDGE_LOOP('',(#333,#334,#335,#336));
#638=EDGE_LOOP('',(#337,#338,#339,#340));
#639=EDGE_LOOP('',(#341,#342,#343,#344));
#640=EDGE_LOOP('',(#345,#346,#347,#348));
#641=EDGE_LOOP('',(#349,#350,#351,#352));
#642=EDGE_LOOP('',(#353,#354,#355,#356));
#643=EDGE_LOOP('',(#357,#358,#359,#360));
#644=EDGE_LOOP('',(#361));
#645=EDGE_LOOP('',(#362));
#646=FACE_BOUND('',#576,.T.);
#647=FACE_BOUND('',#577,.T.);
#648=FACE_BOUND('',#578,.T.);
#649=FACE_BOUND('',#579,.T.);
#650=FACE_BOUND('',#580,.T.);
#651=FACE_BOUND('',#581,.T.);
#652=FACE_BOUND('',#582,.T.);
#653=FACE_BOUND('',#583,.T.);
#654=FACE_BOUND('',#584,.T.);
#655=FACE_BOUND('',#585,.T.);
#656=FACE_BOUND('',#586,.T.);
#657=FACE_BOUND('',#587,.T.);
#658=FACE_BOUND('',#588,.T.);
#659=FACE_BOUND('',#589,.T.);
#660=FACE_BOUND('',#590,.T.);
#661=FACE_BOUND('',#591,.T.);
#662=FACE_BOUND('',#592,.T.);
#663=FACE_BOUND('',#593,.T.);
#664=FACE_BOUND('',#594,.T.);
#665=FACE_BOUND('',#595,.T.);
#666=FACE_BOUND('',#596,.T.);
#667=FACE_BOUND('',#597,.T.);
#668=FACE_BOUND('',#598,.T.);
#669=FACE_BOUND('',#599,.T.);
#670=FACE_BOUND('',#600,.T.);
#671=FACE_BOUND('',#601,.T.);
#672=FACE_BOUND('',#602,.T.);
#673=FACE_BOUND('',#603,.T.);
#674=FACE_BOUND('',#604,.T.);
#675=FACE_BOUND('',#605,.T.);
#676=FACE_BOUND('',#606,.T.);
#677=FACE_BOUND('',#607,.T.);
#678=FACE_BOUND('',#608,.T.);
#679=FACE_BOUND('',#609,.T.);
#680=FACE_BOUND('',#610,.T.);
#681=FACE_BOUND('',#611,.T.);
#682=FACE_BOUND('',#612,.T.);
#683=FACE_BOUND('',#613,.T.);
#684=FACE_BOUND('',#614,.T.);
#685=FACE_BOUND('',#615,.T.);
#686=FACE_BOUND('',#616,.T.);
#687=FACE_BOUND('',#617,.T.);
#688=FACE_BOUND('',#618,.T.);
#689=FACE_BOUND('',#619,.T.);
#690=FACE_BOUND('',#620,.T.);
#691=FACE_BOUND('',#621,.T.);
#692=FACE_BOUND('',#622,.T.);
#693=FACE_BOUND('',#623,.T.);
#694=FACE_BOUND('',#624,.T.);
#695=FACE_BOUND('',#625,.T.);
#696=FACE_BOUND('',#626,.T.);
#697=FACE_BOUND('',#627,.T.);
#698=FACE_BOUND('',#628,.T.);
#699=FACE_BOUND('',#629,.T.);
#700=FACE_BOUND('',#630,.T.);
#701=FACE_BOUND('',#631,.T.);
#702=FACE_BOUND('',#632,.T.);
#703=FACE_BOUND('',#633,.T.);
#704=FACE_BOUND('',#634,.T.);
#705=FACE_BOUND('',#635,.T.);
#706=FACE_BOUND('',#636,.T.);
#707=FACE_BOUND('',#637,.T.);
#708=FACE_BOUND('',#638,.T.);
#709=FACE_BOUND('',#639,.T.);
#710=FACE_BOUND('',#640,.T.);
#711=FACE_BOUND('',#641,.T.);
#712=FACE_BOUND('',#642,.T.);
#713=FACE_BOUND('',#643,.T.);
#714=FACE_BOUND('',#644,.T.);
#715=FACE_BOUND('',#645,.T.);
#716=CYLINDRICAL_SURFACE('',#792,0.00125);
#717=CYLINDRICAL_SURFACE('',#795,0.00125);
#718=CYLINDRICAL_SURFACE('',#798,0.00125);
#719=CYLINDRICAL_SURFACE('',#801,0.00125);
#720=CYLINDRICAL_SURFACE('',#811,0.01675);
#721=CYLINDRICAL_SURFACE('',#831,0.00125);
#722=CYLINDRICAL_SURFACE('',#834,0.00125);
#723=CYLINDRICAL_SURFACE('',#837,0.00125);
#724=CYLINDRICAL_SURFACE('',#840,0.001375);
#725=CYLINDRICAL_SURFACE('',#842,0.002325);
#726=CYLINDRICAL_SURFACE('',#845,0.002325);
#727=CYLINDRICAL_SURFACE('',#848,0.002325);
#728=CYLINDRICAL_SURFACE('',#851,0.002325);
#729=CYLINDRICAL_SURFACE('',#854,0.0004);
#730=CYLINDRICAL_SURFACE('',#861,0.0004);
#731=CYLINDRICAL_SURFACE('',#863,0.0004);
#732=CYLINDRICAL_SURFACE('',#869,0.0004);
#733=ADVANCED_FACE('',(#646,#647),#716,.F.);
#734=ADVANCED_FACE('',(#648,#649),#717,.F.);
#735=ADVANCED_FACE('',(#650,#651),#718,.F.);
#736=ADVANCED_FACE('',(#652,#653),#719,.F.);
#737=ADVANCED_FACE('',(#654,#655,#656,#657,#658,#659),#137,.F.);
#738=ADVANCED_FACE('',(#660),#138,.T.);
#739=ADVANCED_FACE('',(#661,#662),#720,.T.);
#740=ADVANCED_FACE('',(#663,#664,#665,#666,#667,#668),#139,.T.);
#741=ADVANCED_FACE('',(#669),#140,.T.);
#742=ADVANCED_FACE('',(#670),#141,.F.);
#743=ADVANCED_FACE('',(#671),#142,.F.);
#744=ADVANCED_FACE('',(#672),#143,.T.);
#745=ADVANCED_FACE('',(#673),#144,.T.);
#746=ADVANCED_FACE('',(#674),#145,.F.);
#747=ADVANCED_FACE('',(#675),#721,.F.);
#748=ADVANCED_FACE('',(#676),#146,.T.);
#749=ADVANCED_FACE('',(#677),#722,.F.);
#750=ADVANCED_FACE('',(#678),#147,.T.);
#751=ADVANCED_FACE('',(#679),#723,.F.);
#752=ADVANCED_FACE('',(#680),#148,.F.);
#753=ADVANCED_FACE('',(#681),#724,.F.);
#754=ADVANCED_FACE('',(#682,#683),#725,.F.);
#755=ADVANCED_FACE('',(#684,#685),#149,.T.);
#756=ADVANCED_FACE('',(#686,#687),#726,.F.);
#757=ADVANCED_FACE('',(#688,#689),#150,.T.);
#758=ADVANCED_FACE('',(#690,#691),#727,.F.);
#759=ADVANCED_FACE('',(#692,#693),#151,.T.);
#760=ADVANCED_FACE('',(#694,#695),#728,.F.);
#761=ADVANCED_FACE('',(#696,#697),#152,.T.);
#762=ADVANCED_FACE('',(#698),#729,.T.);
#763=ADVANCED_FACE('',(#699),#12,.T.);
#764=ADVANCED_FACE('',(#700),#13,.T.);
#765=ADVANCED_FACE('',(#701),#730,.T.);
#766=ADVANCED_FACE('',(#702),#731,.T.);
#767=ADVANCED_FACE('',(#703),#14,.T.);
#768=ADVANCED_FACE('',(#704),#15,.T.);
#769=ADVANCED_FACE('',(#705),#732,.T.);
#770=ADVANCED_FACE('',(#706),#153,.F.);
#771=ADVANCED_FACE('',(#707),#154,.F.);
#772=ADVANCED_FACE('',(#708),#155,.T.);
#773=ADVANCED_FACE('',(#709),#156,.F.);
#774=ADVANCED_FACE('',(#710),#157,.F.);
#775=ADVANCED_FACE('',(#711),#158,.F.);
#776=ADVANCED_FACE('',(#712),#159,.F.);
#777=ADVANCED_FACE('',(#713),#160,.F.);
#778=ADVANCED_FACE('',(#714,#715),#16,.T.);
#779=CLOSED_SHELL('',(#733,#734,#735,#736,#737,#738,#739,#740,#741,#742,
#743,#744,#745,#746,#747,#748,#749,#750,#751,#752,#753,#754,#755,#756,#757,
#758,#759,#760,#761,#762,#763,#764,#765,#766,#767,#768,#769,#770,#771,#772,
#773,#774,#775,#776,#777,#778));
#780=STYLED_ITEM('',(#781),#788);
#781=PRESENTATION_STYLE_ASSIGNMENT((#782));
#782=SURFACE_STYLE_USAGE(.BOTH.,#783);
#783=SURFACE_SIDE_STYLE('',(#784));
#784=SURFACE_STYLE_FILL_AREA(#785);
#785=FILL_AREA_STYLE('',(#786));
#786=FILL_AREA_STYLE_COLOUR('',#787);
#787=COLOUR_RGB('',0.647058823529412,0.647058823529412,0.647058823529412);
#788=MANIFOLD_SOLID_BREP('Part 2',#779);
#789=SHAPE_DEFINITION_REPRESENTATION(#1340,#790);
#790=SHAPE_REPRESENTATION('Part 2',(#791),#1335);
#791=AXIS2_PLACEMENT_3D('',#1115,#879,#880);
#792=AXIS2_PLACEMENT_3D('',#1116,#881,#882);
#793=AXIS2_PLACEMENT_3D('',#1117,#883,#884);
#794=AXIS2_PLACEMENT_3D('',#1119,#885,#886);
#795=AXIS2_PLACEMENT_3D('',#1121,#887,#888);
#796=AXIS2_PLACEMENT_3D('',#1122,#889,#890);
#797=AXIS2_PLACEMENT_3D('',#1124,#891,#892);
#798=AXIS2_PLACEMENT_3D('',#1126,#893,#894);
#799=AXIS2_PLACEMENT_3D('',#1127,#895,#896);
#800=AXIS2_PLACEMENT_3D('',#1129,#897,#898);
#801=AXIS2_PLACEMENT_3D('',#1131,#899,#900);
#802=AXIS2_PLACEMENT_3D('',#1132,#901,#902);
#803=AXIS2_PLACEMENT_3D('',#1134,#903,#904);
#804=AXIS2_PLACEMENT_3D('',#1136,#905,#906);
#805=AXIS2_PLACEMENT_3D('',#1160,#918,#919);
#806=AXIS2_PLACEMENT_3D('',#1164,#921,#922);
#807=AXIS2_PLACEMENT_3D('',#1168,#924,#925);
#808=AXIS2_PLACEMENT_3D('',#1172,#927,#928);
#809=AXIS2_PLACEMENT_3D('',#1177,#931,#932);
#810=AXIS2_PLACEMENT_3D('',#1179,#933,#934);
#811=AXIS2_PLACEMENT_3D('',#1185,#938,#939);
#812=AXIS2_PLACEMENT_3D('',#1186,#940,#941);
#813=AXIS2_PLACEMENT_3D('',#1188,#942,#943);
#814=AXIS2_PLACEMENT_3D('',#1189,#944,#945);
#815=AXIS2_PLACEMENT_3D('',#1191,#946,#947);
#816=AXIS2_PLACEMENT_3D('',#1196,#949,#950);
#817=AXIS2_PLACEMENT_3D('',#1200,#952,#953);
#818=AXIS2_PLACEMENT_3D('',#1204,#955,#956);
#819=AXIS2_PLACEMENT_3D('',#1207,#958,#959);
#820=AXIS2_PLACEMENT_3D('',#1209,#960,#961);
#821=AXIS2_PLACEMENT_3D('',#1211,#962,#963);
#822=AXIS2_PLACEMENT_3D('',#1213,#964,#965);
#823=AXIS2_PLACEMENT_3D('',#1215,#966,#967);
#824=AXIS2_PLACEMENT_3D('',#1219,#970,#971);
#825=AXIS2_PLACEMENT_3D('',#1233,#980,#981);
#826=AXIS2_PLACEMENT_3D('',#1237,#984,#985);
#827=AXIS2_PLACEMENT_3D('',#1241,#988,#989);
#828=AXIS2_PLACEMENT_3D('',#1242,#990,#991);
#829=AXIS2_PLACEMENT_3D('',#1244,#992,#993);
#830=AXIS2_PLACEMENT_3D('',#1247,#995,#996);
#831=AXIS2_PLACEMENT_3D('',#1253,#1000,#1001);
#832=AXIS2_PLACEMENT_3D('',#1256,#1003,#1004);
#833=AXIS2_PLACEMENT_3D('',#1257,#1005,#1006);
#834=AXIS2_PLACEMENT_3D('',#1261,#1009,#1010);
#835=AXIS2_PLACEMENT_3D('',#1264,#1012,#1013);
#836=AXIS2_PLACEMENT_3D('',#1265,#1014,#1015);
#837=AXIS2_PLACEMENT_3D('',#1269,#1018,#1019);
#838=AXIS2_PLACEMENT_3D('',#1272,#1021,#1022);
#839=AXIS2_PLACEMENT_3D('',#1273,#1023,#1024);
#840=AXIS2_PLACEMENT_3D('',#1277,#1027,#1028);
#841=AXIS2_PLACEMENT_3D('',#1278,#1029,#1030);
#842=AXIS2_PLACEMENT_3D('',#1279,#1031,#1032);
#843=AXIS2_PLACEMENT_3D('',#1280,#1033,#1034);
#844=AXIS2_PLACEMENT_3D('',#1282,#1035,#1036);
#845=AXIS2_PLACEMENT_3D('',#1283,#1037,#1038);
#846=AXIS2_PLACEMENT_3D('',#1284,#1039,#1040);
#847=AXIS2_PLACEMENT_3D('',#1286,#1041,#1042);
#848=AXIS2_PLACEMENT_3D('',#1287,#1043,#1044);
#849=AXIS2_PLACEMENT_3D('',#1288,#1045,#1046);
#850=AXIS2_PLACEMENT_3D('',#1290,#1047,#1048);
#851=AXIS2_PLACEMENT_3D('',#1291,#1049,#1050);
#852=AXIS2_PLACEMENT_3D('',#1292,#1051,#1052);
#853=AXIS2_PLACEMENT_3D('',#1294,#1053,#1054);
#854=AXIS2_PLACEMENT_3D('',#1295,#1055,#1056);
#855=AXIS2_PLACEMENT_3D('',#1296,#1057,#1058);
#856=AXIS2_PLACEMENT_3D('',#1297,#1059,#1060);
#857=AXIS2_PLACEMENT_3D('',#1298,#1061,#1062);
#858=AXIS2_PLACEMENT_3D('',#1299,#1063,#1064);
#859=AXIS2_PLACEMENT_3D('',#1300,#1065,#1066);
#860=AXIS2_PLACEMENT_3D('',#1301,#1067,#1068);
#861=AXIS2_PLACEMENT_3D('',#1302,#1069,#1070);
#862=AXIS2_PLACEMENT_3D('',#1303,#1071,#1072);
#863=AXIS2_PLACEMENT_3D('',#1304,#1073,#1074);
#864=AXIS2_PLACEMENT_3D('',#1305,#1075,#1076);
#865=AXIS2_PLACEMENT_3D('',#1306,#1077,#1078);
#866=AXIS2_PLACEMENT_3D('',#1307,#1079,#1080);
#867=AXIS2_PLACEMENT_3D('',#1308,#1081,#1082);
#868=AXIS2_PLACEMENT_3D('',#1309,#1083,#1084);
#869=AXIS2_PLACEMENT_3D('',#1310,#1085,#1086);
#870=AXIS2_PLACEMENT_3D('',#1311,#1087,#1088);
#871=AXIS2_PLACEMENT_3D('',#1317,#1092,#1093);
#872=AXIS2_PLACEMENT_3D('',#1319,#1095,#1096);
#873=AXIS2_PLACEMENT_3D('',#1321,#1098,#1099);
#874=AXIS2_PLACEMENT_3D('',#1322,#1100,#1101);
#875=AXIS2_PLACEMENT_3D('',#1328,#1105,#1106);
#876=AXIS2_PLACEMENT_3D('',#1330,#1108,#1109);
#877=AXIS2_PLACEMENT_3D('',#1332,#1111,#1112);
#878=AXIS2_PLACEMENT_3D('',#1333,#1113,#1114);
#879=DIRECTION('',(0.,0.,1.));
#880=DIRECTION('',(1.,0.,0.));
#881=DIRECTION('',(0.,0.,-1.));
#882=DIRECTION('',(0.,1.,0.));
#883=DIRECTION('',(0.,0.,1.));
#884=DIRECTION('',(0.,-1.,0.));
#885=DIRECTION('',(0.,0.,1.));
#886=DIRECTION('',(0.,-1.,0.));
#887=DIRECTION('',(0.,0.,-1.));
#888=DIRECTION('',(0.,1.,0.));
#889=DIRECTION('',(0.,0.,-1.));
#890=DIRECTION('',(0.,-1.,0.));
#891=DIRECTION('',(0.,0.,-1.));
#892=DIRECTION('',(0.,-1.,0.));
#893=DIRECTION('',(0.,0.,-1.));
#894=DIRECTION('',(0.,1.,0.));
#895=DIRECTION('',(0.,0.,1.));
#896=DIRECTION('',(0.,-1.,0.));
#897=DIRECTION('',(0.,0.,1.));
#898=DIRECTION('',(0.,-1.,0.));
#899=DIRECTION('',(0.,0.,-1.));
#900=DIRECTION('',(0.,1.,0.));
#901=DIRECTION('',(0.,0.,-1.));
#902=DIRECTION('',(0.,-1.,0.));
#903=DIRECTION('',(0.,0.,-1.));
#904=DIRECTION('',(0.,-1.,0.));
#905=DIRECTION('',(0.,0.,1.));
#906=DIRECTION('',(1.,0.,0.));
#907=DIRECTION('',(-1.,0.,0.));
#908=DIRECTION('',(0.,-1.,0.));
#909=DIRECTION('',(1.,0.,0.));
#910=DIRECTION('',(0.,1.,0.));
#911=DIRECTION('',(-1.,0.,0.));
#912=DIRECTION('',(0.,-1.,0.));
#913=DIRECTION('',(1.,0.,0.));
#914=DIRECTION('',(0.,-1.,0.));
#915=DIRECTION('',(-1.,0.,0.));
#916=DIRECTION('',(0.,1.,0.));
#917=DIRECTION('',(-1.,0.,0.));
#918=DIRECTION('',(0.,0.,-1.));
#919=DIRECTION('',(0.,1.,0.));
#920=DIRECTION('',(0.,-1.,0.));
#921=DIRECTION('',(0.,0.,-1.));
#922=DIRECTION('',(0.,1.,0.));
#923=DIRECTION('',(1.,0.,0.));
#924=DIRECTION('',(0.,0.,-1.));
#925=DIRECTION('',(0.,1.,0.));
#926=DIRECTION('',(0.,-1.,0.));
#927=DIRECTION('',(0.,0.,-1.));
#928=DIRECTION('',(0.,1.,0.));
#929=DIRECTION('',(-1.,0.,0.));
#930=DIRECTION('',(0.,1.,0.));
#931=DIRECTION('',(0.,0.,1.));
#932=DIRECTION('',(0.,-1.,0.));
#933=DIRECTION('',(0.,-1.,0.));
#934=DIRECTION('',(-1.,0.,0.));
#935=DIRECTION('',(0.,0.,-1.));
#936=DIRECTION('',(0.,0.,-1.));
#937=DIRECTION('',(-1.,0.,0.));
#938=DIRECTION('',(0.,0.,-1.));
#939=DIRECTION('',(0.,1.,0.));
#940=DIRECTION('',(0.,0.,1.));
#941=DIRECTION('',(0.,-1.,0.));
#942=DIRECTION('',(0.,0.,1.));
#943=DIRECTION('',(1.,0.,0.));
#944=DIRECTION('',(0.,0.,1.));
#945=DIRECTION('',(0.,-1.,0.));
#946=DIRECTION('',(0.,0.,1.));
#947=DIRECTION('',(0.,-1.,0.));
#948=DIRECTION('',(0.,-1.,0.));
#949=DIRECTION('',(0.,0.,1.));
#950=DIRECTION('',(0.,-1.,0.));
#951=DIRECTION('',(1.,0.,0.));
#952=DIRECTION('',(0.,0.,1.));
#953=DIRECTION('',(0.,-1.,0.));
#954=DIRECTION('',(0.,-1.,0.));
#955=DIRECTION('',(0.,0.,1.));
#956=DIRECTION('',(0.,-1.,0.));
#957=DIRECTION('',(1.,0.,0.));
#958=DIRECTION('',(0.,0.,1.));
#959=DIRECTION('',(0.,-1.,0.));
#960=DIRECTION('',(0.,0.,1.));
#961=DIRECTION('',(0.,-1.,0.));
#962=DIRECTION('',(0.,0.,1.));
#963=DIRECTION('',(0.,-1.,0.));
#964=DIRECTION('',(0.,0.,1.));
#965=DIRECTION('',(0.,-1.,0.));
#966=DIRECTION('',(-1.,0.,0.));
#967=DIRECTION('',(0.,1.,0.));
#968=DIRECTION('',(0.,0.,-1.));
#969=DIRECTION('',(0.,1.,0.));
#970=DIRECTION('',(0.,-1.,0.));
#971=DIRECTION('',(-1.,0.,0.));
#972=DIRECTION('',(-1.,0.,0.));
#973=DIRECTION('',(0.,0.,-1.));
#974=DIRECTION('',(0.,0.,-1.));
#975=DIRECTION('',(-1.,0.,0.));
#976=DIRECTION('',(0.,0.,-1.));
#977=DIRECTION('',(-1.,0.,0.));
#978=DIRECTION('',(0.,0.,-1.));
#979=DIRECTION('',(0.,0.,1.));
#980=DIRECTION('',(-1.,0.,0.));
#981=DIRECTION('',(0.,1.,0.));
#982=DIRECTION('',(0.,0.,-1.));
#983=DIRECTION('',(0.,1.,0.));
#984=DIRECTION('',(0.,-1.,0.));
#985=DIRECTION('',(-1.,0.,0.));
#986=DIRECTION('',(0.,0.,-1.));
#987=DIRECTION('',(-1.,0.,0.));
#988=DIRECTION('',(0.,0.,-1.));
#989=DIRECTION('',(-1.,0.,0.));
#990=DIRECTION('',(0.,0.,-1.));
#991=DIRECTION('',(0.,1.,0.));
#992=DIRECTION('',(0.,0.,-1.));
#993=DIRECTION('',(0.,1.,0.));
#994=DIRECTION('',(1.,0.,0.));
#995=DIRECTION('',(1.,0.,0.));
#996=DIRECTION('',(0.,-1.,0.));
#997=DIRECTION('',(0.,0.,-1.));
#998=DIRECTION('',(0.,-1.,0.));
#999=DIRECTION('',(0.,0.,-1.));
#1000=DIRECTION('',(0.,0.,-1.));
#1001=DIRECTION('',(0.,1.,0.));
#1002=DIRECTION('',(0.,0.,-1.));
#1003=DIRECTION('',(0.,0.,1.));
#1004=DIRECTION('',(0.,-1.,0.));
#1005=DIRECTION('',(0.,1.,0.));
#1006=DIRECTION('',(1.,0.,0.));
#1007=DIRECTION('',(0.,0.,-1.));
#1008=DIRECTION('',(1.,0.,0.));
#1009=DIRECTION('',(0.,0.,-1.));
#1010=DIRECTION('',(0.,1.,0.));
#1011=DIRECTION('',(0.,0.,-1.));
#1012=DIRECTION('',(0.,0.,1.));
#1013=DIRECTION('',(0.,-1.,0.));
#1014=DIRECTION('',(1.,0.,0.));
#1015=DIRECTION('',(0.,-1.,0.));
#1016=DIRECTION('',(0.,0.,-1.));
#1017=DIRECTION('',(0.,-1.,0.));
#1018=DIRECTION('',(0.,0.,-1.));
#1019=DIRECTION('',(0.,1.,0.));
#1020=DIRECTION('',(0.,0.,-1.));
#1021=DIRECTION('',(0.,0.,1.));
#1022=DIRECTION('',(0.,-1.,0.));
#1023=DIRECTION('',(0.,1.,0.));
#1024=DIRECTION('',(1.,0.,0.));
#1025=DIRECTION('',(0.,0.,-1.));
#1026=DIRECTION('',(1.,0.,0.));
#1027=DIRECTION('',(0.,0.,-1.));
#1028=DIRECTION('',(0.,1.,0.));
#1029=DIRECTION('',(0.,0.,1.));
#1030=DIRECTION('',(0.,-1.,0.));
#1031=DIRECTION('',(0.,0.,1.));
#1032=DIRECTION('',(0.,-1.,0.));
#1033=DIRECTION('',(0.,0.,1.));
#1034=DIRECTION('',(0.,-1.,0.));
#1035=DIRECTION('',(0.,0.,1.));
#1036=DIRECTION('',(1.,0.,0.));
#1037=DIRECTION('',(0.,0.,1.));
#1038=DIRECTION('',(0.,-1.,0.));
#1039=DIRECTION('',(0.,0.,1.));
#1040=DIRECTION('',(0.,-1.,0.));
#1041=DIRECTION('',(0.,0.,1.));
#1042=DIRECTION('',(1.,0.,0.));
#1043=DIRECTION('',(0.,0.,1.));
#1044=DIRECTION('',(0.,-1.,0.));
#1045=DIRECTION('',(0.,0.,1.));
#1046=DIRECTION('',(0.,-1.,0.));
#1047=DIRECTION('',(0.,0.,1.));
#1048=DIRECTION('',(1.,0.,0.));
#1049=DIRECTION('',(0.,0.,1.));
#1050=DIRECTION('',(0.,-1.,0.));
#1051=DIRECTION('',(0.,0.,1.));
#1052=DIRECTION('',(0.,-1.,0.));
#1053=DIRECTION('',(0.,0.,1.));
#1054=DIRECTION('',(1.,0.,0.));
#1055=DIRECTION('',(0.,-1.,0.));
#1056=DIRECTION('',(-1.,0.,0.));
#1057=DIRECTION('',(0.,-1.,0.));
#1058=DIRECTION('',(-1.,0.,0.));
#1059=DIRECTION('',(0.,1.,0.));
#1060=DIRECTION('',(1.,0.,0.));
#1061=DIRECTION('',(0.,0.,1.));
#1062=DIRECTION('',(0.,-1.,0.));
#1063=DIRECTION('',(1.,0.,0.));
#1064=DIRECTION('',(0.,-1.,0.));
#1065=DIRECTION('',(0.,0.,1.));
#1066=DIRECTION('',(0.,-1.,0.));
#1067=DIRECTION('',(1.,-1.0842021724855E-15,0.));
#1068=DIRECTION('',(-1.0842021724855E-15,-1.,0.));
#1069=DIRECTION('',(-1.,0.,0.));
#1070=DIRECTION('',(0.,1.,0.));
#1071=DIRECTION('',(1.,0.,0.));
#1072=DIRECTION('',(0.,-1.,0.));
#1073=DIRECTION('',(1.,0.,0.));
#1074=DIRECTION('',(0.,-1.,0.));
#1075=DIRECTION('',(1.,0.,0.));
#1076=DIRECTION('',(0.,-1.,0.));
#1077=DIRECTION('',(0.,0.,1.));
#1078=DIRECTION('',(0.,-1.,0.));
#1079=DIRECTION('',(0.,-1.,0.));
#1080=DIRECTION('',(-1.,0.,0.));
#1081=DIRECTION('',(0.,0.,1.));
#1082=DIRECTION('',(0.,-1.,0.));
#1083=DIRECTION('',(2.16840434497101E-15,1.,-2.16840434497101E-15));
#1084=DIRECTION('',(1.,-2.16840434497101E-15,0.));
#1085=DIRECTION('',(0.,1.,0.));
#1086=DIRECTION('',(1.,0.,0.));
#1087=DIRECTION('',(0.,-1.,0.));
#1088=DIRECTION('',(1.,0.,0.));
#1089=DIRECTION('',(0.,0.,-1.));
#1090=DIRECTION('',(-1.,0.,0.));
#1091=DIRECTION('',(0.,0.,-1.));
#1092=DIRECTION('',(-1.,0.,0.));
#1093=DIRECTION('',(0.,1.,0.));
#1094=DIRECTION('',(0.,-1.,0.));
#1095=DIRECTION('',(-1.,0.,0.));
#1096=DIRECTION('',(0.,1.,0.));
#1097=DIRECTION('',(0.,-1.,0.));
#1098=DIRECTION('',(0.,0.,1.));
#1099=DIRECTION('',(0.,-1.,0.));
#1100=DIRECTION('',(0.,-1.,0.));
#1101=DIRECTION('',(1.,0.,0.));
#1102=DIRECTION('',(0.,0.,-1.));
#1103=DIRECTION('',(-1.,0.,0.));
#1104=DIRECTION('',(0.,0.,1.));
#1105=DIRECTION('',(-1.,0.,0.));
#1106=DIRECTION('',(0.,1.,0.));
#1107=DIRECTION('',(0.,-1.,0.));
#1108=DIRECTION('',(1.,0.,0.));
#1109=DIRECTION('',(0.,-1.,0.));
#1110=DIRECTION('',(0.,-1.,0.));
#1111=DIRECTION('',(0.,0.,1.));
#1112=DIRECTION('',(0.,-1.,0.));
#1113=DIRECTION('',(0.,0.,1.));
#1114=DIRECTION('',(0.,-1.,0.));
#1115=CARTESIAN_POINT('',(0.,0.,0.));
#1116=CARTESIAN_POINT('',(-0.009391085,0.009391085,0.023));
#1117=CARTESIAN_POINT('',(-0.009391085,0.009391085,0.018));
#1118=CARTESIAN_POINT('',(-0.009391085,0.008141085,0.018));
#1119=CARTESIAN_POINT('',(-0.009391085,0.009391085,0.02));
#1120=CARTESIAN_POINT('',(-0.009391085,0.008141085,0.02));
#1121=CARTESIAN_POINT('',(0.009391085,0.009391085,0.023));
#1122=CARTESIAN_POINT('',(0.009391085,0.009391085,0.018));
#1123=CARTESIAN_POINT('',(0.009391085,0.008141085,0.018));
#1124=CARTESIAN_POINT('',(0.009391085,0.009391085,0.02));
#1125=CARTESIAN_POINT('',(0.009391085,0.008141085,0.02));
#1126=CARTESIAN_POINT('',(0.009391085,-0.009391085,0.023));
#1127=CARTESIAN_POINT('',(0.009391085,-0.009391085,0.018));
#1128=CARTESIAN_POINT('',(0.009391085,-0.010641085,0.018));
#1129=CARTESIAN_POINT('',(0.009391085,-0.009391085,0.02));
#1130=CARTESIAN_POINT('',(0.009391085,-0.010641085,0.02));
#1131=CARTESIAN_POINT('',(-0.009391085,-0.009391085,0.023));
#1132=CARTESIAN_POINT('',(-0.009391085,-0.009391085,0.018));
#1133=CARTESIAN_POINT('',(-0.009391085,-0.010641085,0.018));
#1134=CARTESIAN_POINT('',(-0.009391085,-0.009391085,0.02));
#1135=CARTESIAN_POINT('',(-0.009391085,-0.010641085,0.02));
#1136=CARTESIAN_POINT('',(0.,0.,0.018));
#1137=CARTESIAN_POINT('',(0.,0.00489894891781792,0.018));
#1138=CARTESIAN_POINT('',(-0.008412,0.00489894891781792,0.018));
#1139=CARTESIAN_POINT('',(-0.009,0.00489894891781792,0.018));
#1140=CARTESIAN_POINT('',(-0.008412,0.,0.018));
#1141=CARTESIAN_POINT('',(-0.008412,0.00201619482241018,0.018));
#1142=CARTESIAN_POINT('',(0.,0.00201619482241018,0.018));
#1143=CARTESIAN_POINT('',(-0.00661,0.00201619482241018,0.018));
#1144=CARTESIAN_POINT('',(-0.00661,0.,0.018));
#1145=CARTESIAN_POINT('',(-0.00661,0.00489894891781792,0.018));
#1146=CARTESIAN_POINT('',(0.,0.00489894891781792,0.018));
#1147=CARTESIAN_POINT('',(0.00661,0.00489894891781792,0.018));
#1148=CARTESIAN_POINT('',(0.00661,0.,0.018));
#1149=CARTESIAN_POINT('',(0.00661,0.00201619482241018,0.018));
#1150=CARTESIAN_POINT('',(0.,0.00201619482241018,0.018));
#1151=CARTESIAN_POINT('',(0.008412,0.00201619482241018,0.018));
#1152=CARTESIAN_POINT('',(0.008412,0.,0.018));
#1153=CARTESIAN_POINT('',(0.008412,0.00489894891781792,0.018));
#1154=CARTESIAN_POINT('',(0.,0.00489894891781792,0.018));
#1155=CARTESIAN_POINT('',(0.009,0.00489894891781792,0.018));
#1156=CARTESIAN_POINT('',(0.009,0.00594894891781792,0.018));
#1157=CARTESIAN_POINT('',(0.009,0.00699894891781792,0.018));
#1158=CARTESIAN_POINT('',(0.,0.00699894891781792,0.018));
#1159=CARTESIAN_POINT('',(0.00456124979828358,0.00699894891781792,0.018));
#1160=CARTESIAN_POINT('',(0.00336974710345267,0.00737686600953339,0.018));
#1161=CARTESIAN_POINT('',(0.00461974710345267,0.00737686600953339,0.018));
#1162=CARTESIAN_POINT('',(0.00461974710345267,0.00779436600953339,0.018));
#1163=CARTESIAN_POINT('',(0.00461974710345267,0.00821186600953339,0.018));
#1164=CARTESIAN_POINT('',(0.00324474710345267,0.00821186600953339,0.018));
#1165=CARTESIAN_POINT('',(0.00324474710345267,0.00958686600953339,0.018));
#1166=CARTESIAN_POINT('',(-3.7752896547331E-5,0.00958686600953339,0.018));
#1167=CARTESIAN_POINT('',(-0.00332025289654733,0.00958686600953339,0.018));
#1168=CARTESIAN_POINT('',(-0.00332025289654733,0.00833686600953339,0.018));
#1169=CARTESIAN_POINT('',(-0.00457025289654733,0.00833686600953339,0.018));
#1170=CARTESIAN_POINT('',(-0.00457025289654733,0.00785686600953339,0.018));
#1171=CARTESIAN_POINT('',(-0.00457025289654733,0.00737686600953339,0.018));
#1172=CARTESIAN_POINT('',(-0.00332025289654733,0.00737686600953339,0.018));
#1173=CARTESIAN_POINT('',(-0.00451175559137824,0.00699894891781792,0.018));
#1174=CARTESIAN_POINT('',(0.,0.00699894891781792,0.018));
#1175=CARTESIAN_POINT('',(-0.009,0.00699894891781792,0.018));
#1176=CARTESIAN_POINT('',(-0.009,0.00594894891781792,0.018));
#1177=CARTESIAN_POINT('',(0.,1.02564169428591E-18,0.018));
#1178=CARTESIAN_POINT('',(0.,-0.01675,0.018));
#1179=CARTESIAN_POINT('',(0.,0.00699894891781792,0.021));
#1180=CARTESIAN_POINT('',(0.00456124979828358,0.00699894891781792,0.023));
#1181=CARTESIAN_POINT('',(0.00456124979828358,0.00699894891781792,0.021));
#1182=CARTESIAN_POINT('',(0.009,0.00699894891781792,0.021));
#1183=CARTESIAN_POINT('',(0.009,0.00699894891781792,0.021));
#1184=CARTESIAN_POINT('',(0.,0.00699894891781792,0.021));
#1185=CARTESIAN_POINT('',(0.,1.02564169428591E-18,0.023));
#1186=CARTESIAN_POINT('',(0.,1.02564169428591E-18,0.022));
#1187=CARTESIAN_POINT('',(0.,-0.01675,0.022));
#1188=CARTESIAN_POINT('',(0.,0.,0.023));
#1189=CARTESIAN_POINT('',(0.,1.02564169428591E-18,0.023));
#1190=CARTESIAN_POINT('',(0.,-0.01575,0.023));
#1191=CARTESIAN_POINT('',(0.00324474710345267,0.00821186600953339,0.023));
#1192=CARTESIAN_POINT('',(0.00324474710345267,0.00998686600953339,0.023));
#1193=CARTESIAN_POINT('',(0.00501974710345267,0.00821186600953339,0.023));
#1194=CARTESIAN_POINT('',(0.00501974710345267,0.00737686600953339,0.023));
#1195=CARTESIAN_POINT('',(0.00501974710345267,0.00737686600953339,0.023));
#1196=CARTESIAN_POINT('',(0.00336974710345267,0.00737686600953339,0.023));
#1197=CARTESIAN_POINT('',(0.00336974710345267,0.00572686600953339,0.023));
#1198=CARTESIAN_POINT('',(0.,0.00572686600953339,0.023));
#1199=CARTESIAN_POINT('',(-0.00332025289654733,0.00572686600953339,0.023));
#1200=CARTESIAN_POINT('',(-0.00332025289654733,0.00737686600953339,0.023));
#1201=CARTESIAN_POINT('',(-0.00497025289654733,0.00737686600953339,0.023));
#1202=CARTESIAN_POINT('',(-0.00497025289654733,0.,0.023));
#1203=CARTESIAN_POINT('',(-0.00497025289654733,0.00833686600953339,0.023));
#1204=CARTESIAN_POINT('',(-0.00332025289654733,0.00833686600953339,0.023));
#1205=CARTESIAN_POINT('',(-0.00332025289654733,0.0099868660095334,0.023));
#1206=CARTESIAN_POINT('',(0.00324474710345267,0.00998686600953339,0.023));
#1207=CARTESIAN_POINT('',(-0.009391085,-0.009391085,0.023));
#1208=CARTESIAN_POINT('',(-0.009391085,-0.011716085,0.023));
#1209=CARTESIAN_POINT('',(0.009391085,-0.009391085,0.023));
#1210=CARTESIAN_POINT('',(0.009391085,-0.011716085,0.023));
#1211=CARTESIAN_POINT('',(0.009391085,0.009391085,0.023));
#1212=CARTESIAN_POINT('',(0.009391085,0.007066085,0.023));
#1213=CARTESIAN_POINT('',(-0.009391085,0.009391085,0.023));
#1214=CARTESIAN_POINT('',(-0.009391085,0.007066085,0.023));
#1215=CARTESIAN_POINT('',(0.009,0.00594894891781792,0.021));
#1216=CARTESIAN_POINT('',(0.009,0.00489894891781792,0.021));
#1217=CARTESIAN_POINT('',(0.009,0.00489894891781792,0.021));
#1218=CARTESIAN_POINT('',(0.009,0.00594894891781792,0.021));
#1219=CARTESIAN_POINT('',(0.,0.00489894891781792,0.021));
#1220=CARTESIAN_POINT('',(0.,0.00489894891781792,0.0182426206824183));
#1221=CARTESIAN_POINT('',(-0.00661,0.00489894891781792,0.0182426206824183));
#1222=CARTESIAN_POINT('',(-0.008412,0.00489894891781792,0.0182426206824183));
#1223=CARTESIAN_POINT('',(-0.008412,0.00489894891781792,0.021));
#1224=CARTESIAN_POINT('',(-0.009,0.00489894891781792,0.021));
#1225=CARTESIAN_POINT('',(-0.009,0.00489894891781792,0.021));
#1226=CARTESIAN_POINT('',(0.,0.00489894891781792,0.021));
#1227=CARTESIAN_POINT('',(0.008412,0.00489894891781792,0.021));
#1228=CARTESIAN_POINT('',(0.008412,0.00489894891781792,0.0182426206824183));
#1229=CARTESIAN_POINT('',(0.,0.00489894891781792,0.0182426206824183));
#1230=CARTESIAN_POINT('',(0.00661,0.00489894891781792,0.0182426206824183));
#1231=CARTESIAN_POINT('',(0.00661,0.00489894891781792,0.021));
#1232=CARTESIAN_POINT('',(-0.00661,0.00489894891781792,0.021));
#1233=CARTESIAN_POINT('',(-0.009,0.00594894891781792,0.021));
#1234=CARTESIAN_POINT('',(-0.009,0.00699894891781792,0.021));
#1235=CARTESIAN_POINT('',(-0.009,0.00699894891781792,0.021));
#1236=CARTESIAN_POINT('',(-0.009,0.00594894891781792,0.021));
#1237=CARTESIAN_POINT('',(0.,0.00699894891781792,0.021));
#1238=CARTESIAN_POINT('',(-0.00451175559137824,0.00699894891781792,0.023));
#1239=CARTESIAN_POINT('',(-0.00451175559137824,0.00699894891781792,0.021));
#1240=CARTESIAN_POINT('',(0.,0.00699894891781792,0.021));
#1241=CARTESIAN_POINT('',(0.,0.,0.021));
#1242=CARTESIAN_POINT('',(0.00336974710345267,0.00737686600953339,0.021));
#1243=CARTESIAN_POINT('',(0.00336974710345267,0.00612686600953339,0.021));
#1244=CARTESIAN_POINT('',(-0.00332025289654733,0.00737686600953339,0.021));
#1245=CARTESIAN_POINT('',(-0.00332025289654733,0.00612686600953339,0.021));
#1246=CARTESIAN_POINT('',(0.,0.00612686600953339,0.021));
#1247=CARTESIAN_POINT('',(0.00461974710345267,0.00779436600953339,0.023));
#1248=CARTESIAN_POINT('',(0.00461974710345267,0.00737686600953339,0.023));
#1249=CARTESIAN_POINT('',(0.00461974710345267,0.00737686600953339,0.0226));
#1250=CARTESIAN_POINT('',(0.00461974710345267,0.00821186600953339,0.0226));
#1251=CARTESIAN_POINT('',(0.00461974710345267,0.00821186600953339,0.0226));
#1252=CARTESIAN_POINT('',(0.00461974710345267,0.00821186600953339,0.023));
#1253=CARTESIAN_POINT('',(0.00336974710345267,0.00737686600953339,0.023));
#1254=CARTESIAN_POINT('',(0.00336974710345267,0.00612686600953339,0.023));
#1255=CARTESIAN_POINT('',(0.00336974710345267,0.00612686600953339,0.0226));
#1256=CARTESIAN_POINT('',(0.00336974710345267,0.00737686600953339,0.0226));
#1257=CARTESIAN_POINT('',(2.47471034526686E-5,0.00612686600953339,0.023));
#1258=CARTESIAN_POINT('',(-0.00332025289654733,0.00612686600953339,0.023));
#1259=CARTESIAN_POINT('',(-0.00332025289654733,0.00612686600953339,0.0226));
#1260=CARTESIAN_POINT('',(2.47471034526686E-5,0.00612686600953339,0.0226));
#1261=CARTESIAN_POINT('',(-0.00332025289654733,0.00737686600953339,0.023));
#1262=CARTESIAN_POINT('',(-0.00457025289654733,0.00737686600953339,0.023));
#1263=CARTESIAN_POINT('',(-0.00457025289654733,0.00737686600953339,0.0226));
#1264=CARTESIAN_POINT('',(-0.00332025289654733,0.00737686600953339,0.0226));
#1265=CARTESIAN_POINT('',(-0.00457025289654733,0.00785686600953339,0.023));
#1266=CARTESIAN_POINT('',(-0.00457025289654733,0.00833686600953339,0.023));
#1267=CARTESIAN_POINT('',(-0.00457025289654733,0.00833686600953339,0.0226));
#1268=CARTESIAN_POINT('',(-0.00457025289654733,0.00785686600953339,0.0226));
#1269=CARTESIAN_POINT('',(-0.00332025289654733,0.00833686600953339,0.023));
#1270=CARTESIAN_POINT('',(-0.00332025289654733,0.00958686600953339,0.023));
#1271=CARTESIAN_POINT('',(-0.00332025289654733,0.00958686600953339,0.0226));
#1272=CARTESIAN_POINT('',(-0.00332025289654733,0.00833686600953339,0.0226));
#1273=CARTESIAN_POINT('',(-3.7752896547331E-5,0.00958686600953339,0.023));
#1274=CARTESIAN_POINT('',(0.00324474710345267,0.00958686600953339,0.023));
#1275=CARTESIAN_POINT('',(0.00324474710345267,0.00958686600953339,0.0226));
#1276=CARTESIAN_POINT('',(-0.00332025289654733,0.00958686600953339,0.0226));
#1277=CARTESIAN_POINT('',(0.00324474710345267,0.00821186600953339,0.023));
#1278=CARTESIAN_POINT('',(0.00324474710345267,0.00821186600953339,0.0226));
#1279=CARTESIAN_POINT('',(-0.009391085,0.009391085,0.02));
#1280=CARTESIAN_POINT('',(-0.009391085,0.009391085,0.02));
#1281=CARTESIAN_POINT('',(-0.009391085,0.007066085,0.02));
#1282=CARTESIAN_POINT('',(0.,0.,0.02));
#1283=CARTESIAN_POINT('',(0.009391085,0.009391085,0.02));
#1284=CARTESIAN_POINT('',(0.009391085,0.009391085,0.02));
#1285=CARTESIAN_POINT('',(0.009391085,0.007066085,0.02));
#1286=CARTESIAN_POINT('',(0.,0.,0.02));
#1287=CARTESIAN_POINT('',(0.009391085,-0.009391085,0.02));
#1288=CARTESIAN_POINT('',(0.009391085,-0.009391085,0.02));
#1289=CARTESIAN_POINT('',(0.009391085,-0.011716085,0.02));
#1290=CARTESIAN_POINT('',(0.,0.,0.02));
#1291=CARTESIAN_POINT('',(-0.009391085,-0.009391085,0.02));
#1292=CARTESIAN_POINT('',(-0.009391085,-0.009391085,0.02));
#1293=CARTESIAN_POINT('',(-0.009391085,-0.011716085,0.02));
#1294=CARTESIAN_POINT('',(0.,0.,0.02));
#1295=CARTESIAN_POINT('',(-0.00497025289654733,0.00785686600953339,0.0226));
#1296=CARTESIAN_POINT('',(-0.00497025289654733,0.00737686600953339,0.0226));
#1297=CARTESIAN_POINT('',(-0.00497025289654733,0.00833686600953339,0.0226));
#1298=CARTESIAN_POINT('',(-0.00332025289654733,0.00833686600953339,0.0226));
#1299=CARTESIAN_POINT('',(-0.00332025289654733,0.0099868660095334,0.0226));
#1300=CARTESIAN_POINT('',(-0.00332025289654733,0.00737686600953339,0.0226));
#1301=CARTESIAN_POINT('',(-0.00332025289654733,0.00572686600953339,0.0226));
#1302=CARTESIAN_POINT('',(0.,0.00998686600953339,0.0226));
#1303=CARTESIAN_POINT('',(0.00324474710345267,0.00998686600953339,0.0226));
#1304=CARTESIAN_POINT('',(2.47471034526686E-5,0.00572686600953339,0.0226));
#1305=CARTESIAN_POINT('',(0.00336974710345267,0.00572686600953339,0.0226));
#1306=CARTESIAN_POINT('',(0.00324474710345267,0.00821186600953339,0.0226));
#1307=CARTESIAN_POINT('',(0.00501974710345267,0.00821186600953339,0.0226));
#1308=CARTESIAN_POINT('',(0.00336974710345267,0.00737686600953339,0.0226));
#1309=CARTESIAN_POINT('',(0.00501974710345267,0.00737686600953339,0.0226));
#1310=CARTESIAN_POINT('',(0.00501974710345267,0.,0.0226));
#1311=CARTESIAN_POINT('',(0.0022137799862377,0.00201619482241018,0.0204258728314042));
#1312=CARTESIAN_POINT('',(0.00661,0.00201619482241018,0.018));
#1313=CARTESIAN_POINT('',(0.00661,0.00201619482241018,0.0182426206824183));
#1314=CARTESIAN_POINT('',(0.007111,0.00201619482241018,0.0182426206824183));
#1315=CARTESIAN_POINT('',(0.008412,0.00201619482241018,0.0182426206824183));
#1316=CARTESIAN_POINT('',(0.008412,0.00201619482241018,0.00180262068241835));
#1317=CARTESIAN_POINT('',(0.00661,0.00501619482241018,0.018));
#1318=CARTESIAN_POINT('',(0.00661,0.00501619482241018,0.0182426206824183));
#1319=CARTESIAN_POINT('',(0.008412,0.00501619482241018,0.00180262068241835));
#1320=CARTESIAN_POINT('',(0.008412,0.00501619482241018,0.0182426206824183));
#1321=CARTESIAN_POINT('',(0.007111,0.00501619482241018,0.0182426206824183));
#1322=CARTESIAN_POINT('',(0.0022137799862377,0.00201619482241018,0.0204258728314042));
#1323=CARTESIAN_POINT('',(-0.008412,0.00201619482241018,0.0178426206824184));
#1324=CARTESIAN_POINT('',(-0.008412,0.00201619482241018,0.0182426206824183));
#1325=CARTESIAN_POINT('',(-0.008012,0.00201619482241018,0.0182426206824183));
#1326=CARTESIAN_POINT('',(-0.00661,0.00201619482241018,0.0182426206824183));
#1327=CARTESIAN_POINT('',(-0.00661,0.00201619482241018,0.0174426206824183));
#1328=CARTESIAN_POINT('',(-0.008412,0.00501619482241018,0.0178426206824184));
#1329=CARTESIAN_POINT('',(-0.008412,0.00501619482241018,0.0182426206824183));
#1330=CARTESIAN_POINT('',(-0.00661,0.00501619482241018,0.0174426206824183));
#1331=CARTESIAN_POINT('',(-0.00661,0.00501619482241018,0.0182426206824183));
#1332=CARTESIAN_POINT('',(-0.008012,0.00501619482241018,0.0182426206824183));
#1333=CARTESIAN_POINT('',(0.,1.02564169428591E-18,0.022));
#1334=MECHANICAL_DESIGN_GEOMETRIC_PRESENTATION_REPRESENTATION('',(#780),
#1335);
#1335=(
GEOMETRIC_REPRESENTATION_CONTEXT(3)
GLOBAL_UNCERTAINTY_ASSIGNED_CONTEXT((#1336))
GLOBAL_UNIT_ASSIGNED_CONTEXT((#1339,#1338,#1337))
REPRESENTATION_CONTEXT('Part 2','TOP_LEVEL_ASSEMBLY_PART')
);
#1336=UNCERTAINTY_MEASURE_WITH_UNIT(LENGTH_MEASURE(1.E-8),#1339,
'DISTANCE_ACCURACY_VALUE','Maximum Tolerance applied to model');
#1337=(
NAMED_UNIT(*)
SI_UNIT($,.STERADIAN.)
SOLID_ANGLE_UNIT()
);
#1338=(
NAMED_UNIT(*)
PLANE_ANGLE_UNIT()
SI_UNIT($,.RADIAN.)
);
#1339=(
LENGTH_UNIT()
NAMED_UNIT(*)
SI_UNIT($,.METRE.)
);
#1340=PRODUCT_DEFINITION_SHAPE('','',#1341);
#1341=PRODUCT_DEFINITION('','',#1343,#1342);
#1342=PRODUCT_DEFINITION_CONTEXT('',#1349,'design');
#1343=PRODUCT_DEFINITION_FORMATION_WITH_SPECIFIED_SOURCE('','',#1345,
 .NOT_KNOWN.);
#1344=PRODUCT_RELATED_PRODUCT_CATEGORY('','',(#1345));
#1345=PRODUCT('Part 2','Part 2','Part 2',(#1347));
#1346=PRODUCT_CATEGORY('','');
#1347=PRODUCT_CONTEXT('',#1349,'mechanical');
#1348=APPLICATION_PROTOCOL_DEFINITION('international standard',
'ap242_managed_model_based_3d_engineering',2020,#1349);
#1349=APPLICATION_CONTEXT('managed model based 3d engineering');
ENDSEC;
END-ISO-10303-21;
