ISO-10303-21;
HEADER;
/* Generated by software containing ST-Developer
 * from STEP Tools, Inc. (www.steptools.com) 
 */
/* OPTION: using custom renumber hook */

FILE_DESCRIPTION(
/* description */ ('STEP AP242 Edition 2',
'CAx-IF Rec.Pracs.---Representation and Presentation of Product Manufa
cturing Information (PMI)---4.0---2014-10-13',
'CAx-IF Rec.Pracs.---3D Tessellated Geometry---0.4---2014-09-14','2;1',
'CAx-IF Rec.Pracs.---User Defined Attributes---1.5---2016-08-15'),
/* implementation_level */ '2;1');

FILE_NAME(
/* name */ 'Pin - Part 2',
/* time_stamp */ '2026-06-08T01:12:37Z',
/* author */ (''),
/* organization */ (''),
/* preprocessor_version */ 'ST-DEVELOPER v20',
/* originating_system */ 'ONSHAPE BY PTC INC, 1.216',
/* authorisation */ '  ');

FILE_SCHEMA (('AP242_MANAGED_MODEL_BASED_3D_ENGINEERING_MIM_LF { 1 0 10303 442 3 1 4 }'));
ENDSEC;

DATA;
#10=SHAPE_REPRESENTATION_RELATIONSHIP('','',#698,#11);
#11=ADVANCED_BREP_SHAPE_REPRESENTATION('',(#696),#1232);
#12=ELLIPSE('',#734,0.00115470053837925,0.001);
#13=ELLIPSE('',#736,0.00115470053837925,0.001);
#14=SPHERICAL_SURFACE('',#731,0.001);
#15=SPHERICAL_SURFACE('',#737,0.001);
#16=SPHERICAL_SURFACE('',#753,0.001);
#17=SPHERICAL_SURFACE('',#755,0.001);
#18=SPHERICAL_SURFACE('',#757,0.001);
#19=SPHERICAL_SURFACE('',#759,0.001);
#20=SPHERICAL_SURFACE('',#775,0.001);
#21=SPHERICAL_SURFACE('',#777,0.001);
#22=SPHERICAL_SURFACE('',#779,0.001);
#23=SPHERICAL_SURFACE('',#781,0.001);
#24=SPHERICAL_SURFACE('',#791,0.001);
#25=SPHERICAL_SURFACE('',#793,0.001);
#26=TOROIDAL_SURFACE('',#721,0.002,0.001);
#27=TOROIDAL_SURFACE('',#723,0.002,0.001);
#28=CYLINDRICAL_SURFACE('',#704,0.004);
#29=CYLINDRICAL_SURFACE('',#715,0.001);
#30=CYLINDRICAL_SURFACE('',#718,0.001);
#31=CYLINDRICAL_SURFACE('',#726,0.001);
#32=CYLINDRICAL_SURFACE('',#728,0.001);
#33=CYLINDRICAL_SURFACE('',#733,0.001);
#34=CYLINDRICAL_SURFACE('',#735,0.001);
#35=CYLINDRICAL_SURFACE('',#739,0.001);
#36=CYLINDRICAL_SURFACE('',#741,0.001);
#37=CYLINDRICAL_SURFACE('',#743,0.001);
#38=CYLINDRICAL_SURFACE('',#746,0.001);
#39=CYLINDRICAL_SURFACE('',#748,0.001);
#40=CYLINDRICAL_SURFACE('',#750,0.001);
#41=CYLINDRICAL_SURFACE('',#761,0.001);
#42=CYLINDRICAL_SURFACE('',#763,0.001);
#43=CYLINDRICAL_SURFACE('',#765,0.001);
#44=CYLINDRICAL_SURFACE('',#768,0.001);
#45=CYLINDRICAL_SURFACE('',#770,0.001);
#46=CYLINDRICAL_SURFACE('',#772,0.001);
#47=CYLINDRICAL_SURFACE('',#783,0.001);
#48=CYLINDRICAL_SURFACE('',#785,0.001);
#49=CYLINDRICAL_SURFACE('',#787,0.001);
#50=CYLINDRICAL_SURFACE('',#789,0.001);
#51=CYLINDRICAL_SURFACE('',#795,0.001);
#52=LINE('',#1041,#99);
#53=LINE('',#1044,#100);
#54=LINE('',#1046,#101);
#55=LINE('',#1048,#102);
#56=LINE('',#1050,#103);
#57=LINE('',#1053,#104);
#58=LINE('',#1055,#105);
#59=LINE('',#1057,#106);
#60=LINE('',#1062,#107);
#61=LINE('',#1065,#108);
#62=LINE('',#1069,#109);
#63=LINE('',#1071,#110);
#64=LINE('',#1073,#111);
#65=LINE('',#1075,#112);
#66=LINE('',#1077,#113);
#67=LINE('',#1079,#114);
#68=LINE('',#1081,#115);
#69=LINE('',#1084,#116);
#70=LINE('',#1086,#117);
#71=LINE('',#1088,#118);
#72=LINE('',#1090,#119);
#73=LINE('',#1093,#120);
#74=LINE('',#1095,#121);
#75=LINE('',#1099,#122);
#76=LINE('',#1101,#123);
#77=LINE('',#1103,#124);
#78=LINE('',#1105,#125);
#79=LINE('',#1107,#126);
#80=LINE('',#1109,#127);
#81=LINE('',#1112,#128);
#82=LINE('',#1114,#129);
#83=LINE('',#1116,#130);
#84=LINE('',#1118,#131);
#85=LINE('',#1121,#132);
#86=LINE('',#1123,#133);
#87=LINE('',#1125,#134);
#88=LINE('',#1127,#135);
#89=LINE('',#1130,#136);
#90=LINE('',#1132,#137);
#91=LINE('',#1134,#138);
#92=LINE('',#1136,#139);
#93=LINE('',#1139,#140);
#94=LINE('',#1141,#141);
#95=LINE('',#1143,#142);
#96=LINE('',#1145,#143);
#97=LINE('',#1148,#144);
#98=LINE('',#1149,#145);
#99=VECTOR('',#802,1.);
#100=VECTOR('',#803,1.);
#101=VECTOR('',#804,1.);
#102=VECTOR('',#805,1.);
#103=VECTOR('',#808,1.);
#104=VECTOR('',#809,1.);
#105=VECTOR('',#810,1.);
#106=VECTOR('',#811,1.);
#107=VECTOR('',#818,1.);
#108=VECTOR('',#819,1.);
#109=VECTOR('',#822,1.);
#110=VECTOR('',#823,1.);
#111=VECTOR('',#824,1.);
#112=VECTOR('',#825,1.);
#113=VECTOR('',#826,1.);
#114=VECTOR('',#827,1.);
#115=VECTOR('',#830,1.);
#116=VECTOR('',#831,1.);
#117=VECTOR('',#832,1.);
#118=VECTOR('',#833,1.);
#119=VECTOR('',#836,1.);
#120=VECTOR('',#837,1.);
#121=VECTOR('',#838,1.);
#122=VECTOR('',#841,1.);
#123=VECTOR('',#842,1.);
#124=VECTOR('',#843,1.);
#125=VECTOR('',#844,1.);
#126=VECTOR('',#845,1.);
#127=VECTOR('',#848,1.);
#128=VECTOR('',#849,1.);
#129=VECTOR('',#850,1.);
#130=VECTOR('',#851,1.);
#131=VECTOR('',#854,1.);
#132=VECTOR('',#855,1.);
#133=VECTOR('',#856,1.);
#134=VECTOR('',#857,1.);
#135=VECTOR('',#860,1.);
#136=VECTOR('',#861,1.);
#137=VECTOR('',#862,1.);
#138=VECTOR('',#863,1.);
#139=VECTOR('',#866,1.);
#140=VECTOR('',#867,1.);
#141=VECTOR('',#868,1.);
#142=VECTOR('',#869,1.);
#143=VECTOR('',#872,1.);
#144=VECTOR('',#873,1.);
#145=VECTOR('',#874,1.);
#146=ORIENTED_EDGE('',*,*,#336,.T.);
#147=ORIENTED_EDGE('',*,*,#337,.T.);
#148=ORIENTED_EDGE('',*,*,#338,.T.);
#149=ORIENTED_EDGE('',*,*,#339,.T.);
#150=ORIENTED_EDGE('',*,*,#340,.T.);
#151=ORIENTED_EDGE('',*,*,#341,.T.);
#152=ORIENTED_EDGE('',*,*,#342,.T.);
#153=ORIENTED_EDGE('',*,*,#343,.T.);
#154=ORIENTED_EDGE('',*,*,#344,.T.);
#155=ORIENTED_EDGE('',*,*,#345,.F.);
#156=ORIENTED_EDGE('',*,*,#345,.T.);
#157=ORIENTED_EDGE('',*,*,#336,.F.);
#158=ORIENTED_EDGE('',*,*,#346,.T.);
#159=ORIENTED_EDGE('',*,*,#347,.T.);
#160=ORIENTED_EDGE('',*,*,#348,.F.);
#161=ORIENTED_EDGE('',*,*,#349,.T.);
#162=ORIENTED_EDGE('',*,*,#350,.T.);
#163=ORIENTED_EDGE('',*,*,#351,.T.);
#164=ORIENTED_EDGE('',*,*,#352,.T.);
#165=ORIENTED_EDGE('',*,*,#353,.T.);
#166=ORIENTED_EDGE('',*,*,#354,.T.);
#167=ORIENTED_EDGE('',*,*,#355,.T.);
#168=ORIENTED_EDGE('',*,*,#356,.T.);
#169=ORIENTED_EDGE('',*,*,#357,.T.);
#170=ORIENTED_EDGE('',*,*,#358,.T.);
#171=ORIENTED_EDGE('',*,*,#359,.T.);
#172=ORIENTED_EDGE('',*,*,#360,.T.);
#173=ORIENTED_EDGE('',*,*,#361,.T.);
#174=ORIENTED_EDGE('',*,*,#362,.F.);
#175=ORIENTED_EDGE('',*,*,#363,.T.);
#176=ORIENTED_EDGE('',*,*,#364,.T.);
#177=ORIENTED_EDGE('',*,*,#365,.T.);
#178=ORIENTED_EDGE('',*,*,#366,.T.);
#179=ORIENTED_EDGE('',*,*,#367,.T.);
#180=ORIENTED_EDGE('',*,*,#368,.T.);
#181=ORIENTED_EDGE('',*,*,#369,.T.);
#182=ORIENTED_EDGE('',*,*,#370,.T.);
#183=ORIENTED_EDGE('',*,*,#371,.T.);
#184=ORIENTED_EDGE('',*,*,#372,.T.);
#185=ORIENTED_EDGE('',*,*,#373,.T.);
#186=ORIENTED_EDGE('',*,*,#374,.T.);
#187=ORIENTED_EDGE('',*,*,#375,.T.);
#188=ORIENTED_EDGE('',*,*,#376,.T.);
#189=ORIENTED_EDGE('',*,*,#377,.T.);
#190=ORIENTED_EDGE('',*,*,#378,.T.);
#191=ORIENTED_EDGE('',*,*,#379,.T.);
#192=ORIENTED_EDGE('',*,*,#380,.T.);
#193=ORIENTED_EDGE('',*,*,#381,.T.);
#194=ORIENTED_EDGE('',*,*,#382,.T.);
#195=ORIENTED_EDGE('',*,*,#383,.T.);
#196=ORIENTED_EDGE('',*,*,#384,.T.);
#197=ORIENTED_EDGE('',*,*,#385,.T.);
#198=ORIENTED_EDGE('',*,*,#337,.F.);
#199=ORIENTED_EDGE('',*,*,#386,.T.);
#200=ORIENTED_EDGE('',*,*,#387,.F.);
#201=ORIENTED_EDGE('',*,*,#381,.F.);
#202=ORIENTED_EDGE('',*,*,#388,.F.);
#203=ORIENTED_EDGE('',*,*,#339,.F.);
#204=ORIENTED_EDGE('',*,*,#389,.F.);
#205=ORIENTED_EDGE('',*,*,#349,.F.);
#206=ORIENTED_EDGE('',*,*,#390,.F.);
#207=ORIENTED_EDGE('',*,*,#380,.F.);
#208=ORIENTED_EDGE('',*,*,#390,.T.);
#209=ORIENTED_EDGE('',*,*,#348,.T.);
#210=ORIENTED_EDGE('',*,*,#391,.F.);
#211=ORIENTED_EDGE('',*,*,#388,.T.);
#212=ORIENTED_EDGE('',*,*,#392,.F.);
#213=ORIENTED_EDGE('',*,*,#362,.T.);
#214=ORIENTED_EDGE('',*,*,#393,.F.);
#215=ORIENTED_EDGE('',*,*,#387,.T.);
#216=ORIENTED_EDGE('',*,*,#393,.T.);
#217=ORIENTED_EDGE('',*,*,#361,.F.);
#218=ORIENTED_EDGE('',*,*,#394,.F.);
#219=ORIENTED_EDGE('',*,*,#382,.F.);
#220=ORIENTED_EDGE('',*,*,#395,.F.);
#221=ORIENTED_EDGE('',*,*,#383,.F.);
#222=ORIENTED_EDGE('',*,*,#396,.F.);
#223=ORIENTED_EDGE('',*,*,#375,.F.);
#224=ORIENTED_EDGE('',*,*,#389,.T.);
#225=ORIENTED_EDGE('',*,*,#395,.T.);
#226=ORIENTED_EDGE('',*,*,#397,.F.);
#227=ORIENTED_EDGE('',*,*,#391,.T.);
#228=ORIENTED_EDGE('',*,*,#347,.F.);
#229=ORIENTED_EDGE('',*,*,#398,.F.);
#230=ORIENTED_EDGE('',*,*,#340,.F.);
#231=ORIENTED_EDGE('',*,*,#392,.T.);
#232=ORIENTED_EDGE('',*,*,#338,.F.);
#233=ORIENTED_EDGE('',*,*,#399,.F.);
#234=ORIENTED_EDGE('',*,*,#363,.F.);
#235=ORIENTED_EDGE('',*,*,#396,.T.);
#236=ORIENTED_EDGE('',*,*,#394,.T.);
#237=ORIENTED_EDGE('',*,*,#400,.F.);
#238=ORIENTED_EDGE('',*,*,#397,.T.);
#239=ORIENTED_EDGE('',*,*,#374,.F.);
#240=ORIENTED_EDGE('',*,*,#401,.F.);
#241=ORIENTED_EDGE('',*,*,#350,.F.);
#242=ORIENTED_EDGE('',*,*,#398,.T.);
#243=ORIENTED_EDGE('',*,*,#346,.F.);
#244=ORIENTED_EDGE('',*,*,#402,.F.);
#245=ORIENTED_EDGE('',*,*,#386,.F.);
#246=ORIENTED_EDGE('',*,*,#403,.F.);
#247=ORIENTED_EDGE('',*,*,#384,.F.);
#248=ORIENTED_EDGE('',*,*,#404,.F.);
#249=ORIENTED_EDGE('',*,*,#378,.F.);
#250=ORIENTED_EDGE('',*,*,#399,.T.);
#251=ORIENTED_EDGE('',*,*,#385,.F.);
#252=ORIENTED_EDGE('',*,*,#405,.F.);
#253=ORIENTED_EDGE('',*,*,#364,.F.);
#254=ORIENTED_EDGE('',*,*,#400,.T.);
#255=ORIENTED_EDGE('',*,*,#360,.F.);
#256=ORIENTED_EDGE('',*,*,#406,.F.);
#257=ORIENTED_EDGE('',*,*,#372,.F.);
#258=ORIENTED_EDGE('',*,*,#407,.F.);
#259=ORIENTED_EDGE('',*,*,#373,.F.);
#260=ORIENTED_EDGE('',*,*,#408,.F.);
#261=ORIENTED_EDGE('',*,*,#355,.F.);
#262=ORIENTED_EDGE('',*,*,#401,.T.);
#263=ORIENTED_EDGE('',*,*,#407,.T.);
#264=ORIENTED_EDGE('',*,*,#409,.F.);
#265=ORIENTED_EDGE('',*,*,#404,.T.);
#266=ORIENTED_EDGE('',*,*,#402,.T.);
#267=ORIENTED_EDGE('',*,*,#410,.F.);
#268=ORIENTED_EDGE('',*,*,#405,.T.);
#269=ORIENTED_EDGE('',*,*,#403,.T.);
#270=ORIENTED_EDGE('',*,*,#411,.F.);
#271=ORIENTED_EDGE('',*,*,#408,.T.);
#272=ORIENTED_EDGE('',*,*,#406,.T.);
#273=ORIENTED_EDGE('',*,*,#412,.F.);
#274=ORIENTED_EDGE('',*,*,#409,.T.);
#275=ORIENTED_EDGE('',*,*,#358,.F.);
#276=ORIENTED_EDGE('',*,*,#413,.F.);
#277=ORIENTED_EDGE('',*,*,#351,.F.);
#278=ORIENTED_EDGE('',*,*,#410,.T.);
#279=ORIENTED_EDGE('',*,*,#354,.F.);
#280=ORIENTED_EDGE('',*,*,#414,.F.);
#281=ORIENTED_EDGE('',*,*,#379,.F.);
#282=ORIENTED_EDGE('',*,*,#415,.F.);
#283=ORIENTED_EDGE('',*,*,#376,.F.);
#284=ORIENTED_EDGE('',*,*,#416,.F.);
#285=ORIENTED_EDGE('',*,*,#371,.F.);
#286=ORIENTED_EDGE('',*,*,#411,.T.);
#287=ORIENTED_EDGE('',*,*,#377,.F.);
#288=ORIENTED_EDGE('',*,*,#417,.F.);
#289=ORIENTED_EDGE('',*,*,#365,.F.);
#290=ORIENTED_EDGE('',*,*,#412,.T.);
#291=ORIENTED_EDGE('',*,*,#359,.F.);
#292=ORIENTED_EDGE('',*,*,#418,.F.);
#293=ORIENTED_EDGE('',*,*,#356,.F.);
#294=ORIENTED_EDGE('',*,*,#419,.F.);
#295=ORIENTED_EDGE('',*,*,#357,.F.);
#296=ORIENTED_EDGE('',*,*,#420,.F.);
#297=ORIENTED_EDGE('',*,*,#341,.F.);
#298=ORIENTED_EDGE('',*,*,#413,.T.);
#299=ORIENTED_EDGE('',*,*,#419,.T.);
#300=ORIENTED_EDGE('',*,*,#421,.F.);
#301=ORIENTED_EDGE('',*,*,#416,.T.);
#302=ORIENTED_EDGE('',*,*,#414,.T.);
#303=ORIENTED_EDGE('',*,*,#422,.F.);
#304=ORIENTED_EDGE('',*,*,#417,.T.);
#305=ORIENTED_EDGE('',*,*,#415,.T.);
#306=ORIENTED_EDGE('',*,*,#423,.F.);
#307=ORIENTED_EDGE('',*,*,#420,.T.);
#308=ORIENTED_EDGE('',*,*,#418,.T.);
#309=ORIENTED_EDGE('',*,*,#424,.F.);
#310=ORIENTED_EDGE('',*,*,#421,.T.);
#311=ORIENTED_EDGE('',*,*,#344,.F.);
#312=ORIENTED_EDGE('',*,*,#425,.F.);
#313=ORIENTED_EDGE('',*,*,#352,.F.);
#314=ORIENTED_EDGE('',*,*,#422,.T.);
#315=ORIENTED_EDGE('',*,*,#353,.F.);
#316=ORIENTED_EDGE('',*,*,#426,.F.);
#317=ORIENTED_EDGE('',*,*,#368,.F.);
#318=ORIENTED_EDGE('',*,*,#423,.T.);
#319=ORIENTED_EDGE('',*,*,#370,.F.);
#320=ORIENTED_EDGE('',*,*,#427,.F.);
#321=ORIENTED_EDGE('',*,*,#366,.F.);
#322=ORIENTED_EDGE('',*,*,#424,.T.);
#323=ORIENTED_EDGE('',*,*,#367,.F.);
#324=ORIENTED_EDGE('',*,*,#428,.F.);
#325=ORIENTED_EDGE('',*,*,#342,.F.);
#326=ORIENTED_EDGE('',*,*,#426,.T.);
#327=ORIENTED_EDGE('',*,*,#425,.T.);
#328=ORIENTED_EDGE('',*,*,#429,.F.);
#329=ORIENTED_EDGE('',*,*,#428,.T.);
#330=ORIENTED_EDGE('',*,*,#427,.T.);
#331=ORIENTED_EDGE('',*,*,#430,.F.);
#332=ORIENTED_EDGE('',*,*,#429,.T.);
#333=ORIENTED_EDGE('',*,*,#343,.F.);
#334=ORIENTED_EDGE('',*,*,#430,.T.);
#335=ORIENTED_EDGE('',*,*,#369,.F.);
#336=EDGE_CURVE('',#431,#431,#481,.T.);
#337=EDGE_CURVE('',#432,#433,#52,.T.);
#338=EDGE_CURVE('',#433,#434,#53,.F.);
#339=EDGE_CURVE('',#434,#435,#54,.T.);
#340=EDGE_CURVE('',#435,#432,#55,.T.);
#341=EDGE_CURVE('',#436,#437,#56,.T.);
#342=EDGE_CURVE('',#437,#438,#57,.T.);
#343=EDGE_CURVE('',#438,#439,#58,.F.);
#344=EDGE_CURVE('',#439,#436,#59,.F.);
#345=EDGE_CURVE('',#440,#440,#482,.T.);
#346=EDGE_CURVE('',#441,#442,#60,.F.);
#347=EDGE_CURVE('',#442,#443,#61,.F.);
#348=EDGE_CURVE('',#444,#443,#483,.F.);
#349=EDGE_CURVE('',#444,#445,#62,.T.);
#350=EDGE_CURVE('',#445,#446,#63,.F.);
#351=EDGE_CURVE('',#446,#447,#64,.T.);
#352=EDGE_CURVE('',#447,#448,#65,.T.);
#353=EDGE_CURVE('',#448,#449,#66,.F.);
#354=EDGE_CURVE('',#449,#441,#67,.F.);
#355=EDGE_CURVE('',#450,#451,#68,.T.);
#356=EDGE_CURVE('',#451,#452,#69,.T.);
#357=EDGE_CURVE('',#452,#453,#70,.F.);
#358=EDGE_CURVE('',#453,#450,#71,.F.);
#359=EDGE_CURVE('',#454,#455,#72,.F.);
#360=EDGE_CURVE('',#455,#456,#73,.T.);
#361=EDGE_CURVE('',#456,#457,#74,.T.);
#362=EDGE_CURVE('',#458,#457,#484,.T.);
#363=EDGE_CURVE('',#458,#459,#75,.T.);
#364=EDGE_CURVE('',#459,#460,#76,.F.);
#365=EDGE_CURVE('',#460,#461,#77,.T.);
#366=EDGE_CURVE('',#461,#462,#78,.T.);
#367=EDGE_CURVE('',#462,#454,#79,.F.);
#368=EDGE_CURVE('',#463,#464,#80,.T.);
#369=EDGE_CURVE('',#464,#465,#81,.T.);
#370=EDGE_CURVE('',#465,#466,#82,.F.);
#371=EDGE_CURVE('',#466,#463,#83,.F.);
#372=EDGE_CURVE('',#467,#468,#84,.F.);
#373=EDGE_CURVE('',#468,#469,#85,.F.);
#374=EDGE_CURVE('',#469,#470,#86,.T.);
#375=EDGE_CURVE('',#470,#467,#87,.T.);
#376=EDGE_CURVE('',#471,#472,#88,.T.);
#377=EDGE_CURVE('',#472,#473,#89,.F.);
#378=EDGE_CURVE('',#473,#474,#90,.F.);
#379=EDGE_CURVE('',#474,#471,#91,.T.);
#380=EDGE_CURVE('',#475,#476,#92,.F.);
#381=EDGE_CURVE('',#476,#477,#93,.F.);
#382=EDGE_CURVE('',#477,#478,#94,.F.);
#383=EDGE_CURVE('',#478,#475,#95,.F.);
#384=EDGE_CURVE('',#479,#480,#96,.F.);
#385=EDGE_CURVE('',#480,#433,#97,.F.);
#386=EDGE_CURVE('',#432,#479,#98,.F.);
#387=EDGE_CURVE('',#477,#434,#485,.F.);
#388=EDGE_CURVE('',#435,#476,#486,.T.);
#389=EDGE_CURVE('',#445,#475,#487,.T.);
#390=EDGE_CURVE('',#476,#444,#488,.T.);
#391=EDGE_CURVE('',#435,#443,#489,.F.);
#392=EDGE_CURVE('',#458,#434,#490,.F.);
#393=EDGE_CURVE('',#477,#457,#491,.F.);
#394=EDGE_CURVE('',#478,#456,#492,.T.);
#395=EDGE_CURVE('',#475,#470,#493,.T.);
#396=EDGE_CURVE('',#467,#478,#494,.T.);
#397=EDGE_CURVE('',#445,#470,#495,.F.);
#398=EDGE_CURVE('',#432,#442,#12,.F.);
#399=EDGE_CURVE('',#459,#433,#13,.T.);
#400=EDGE_CURVE('',#467,#456,#496,.F.);
#401=EDGE_CURVE('',#446,#469,#497,.T.);
#402=EDGE_CURVE('',#479,#441,#498,.T.);
#403=EDGE_CURVE('',#480,#473,#499,.T.);
#404=EDGE_CURVE('',#474,#479,#500,.T.);
#405=EDGE_CURVE('',#460,#480,#501,.T.);
#406=EDGE_CURVE('',#468,#455,#502,.T.);
#407=EDGE_CURVE('',#469,#450,#503,.T.);
#408=EDGE_CURVE('',#451,#468,#504,.T.);
#409=EDGE_CURVE('',#446,#450,#505,.F.);
#410=EDGE_CURVE('',#474,#441,#506,.F.);
#411=EDGE_CURVE('',#460,#473,#507,.F.);
#412=EDGE_CURVE('',#451,#455,#508,.F.);
#413=EDGE_CURVE('',#447,#453,#509,.T.);
#414=EDGE_CURVE('',#471,#449,#510,.T.);
#415=EDGE_CURVE('',#472,#466,#511,.T.);
#416=EDGE_CURVE('',#463,#471,#512,.T.);
#417=EDGE_CURVE('',#461,#472,#513,.T.);
#418=EDGE_CURVE('',#452,#454,#514,.T.);
#419=EDGE_CURVE('',#453,#436,#515,.T.);
#420=EDGE_CURVE('',#437,#452,#516,.T.);
#421=EDGE_CURVE('',#447,#436,#517,.F.);
#422=EDGE_CURVE('',#463,#449,#518,.F.);
#423=EDGE_CURVE('',#461,#466,#519,.F.);
#424=EDGE_CURVE('',#437,#454,#520,.F.);
#425=EDGE_CURVE('',#448,#439,#521,.T.);
#426=EDGE_CURVE('',#464,#448,#522,.T.);
#427=EDGE_CURVE('',#462,#465,#523,.T.);
#428=EDGE_CURVE('',#438,#462,#524,.T.);
#429=EDGE_CURVE('',#464,#439,#525,.F.);
#430=EDGE_CURVE('',#438,#465,#526,.F.);
#431=VERTEX_POINT('',#1040);
#432=VERTEX_POINT('',#1042);
#433=VERTEX_POINT('',#1043);
#434=VERTEX_POINT('',#1045);
#435=VERTEX_POINT('',#1047);
#436=VERTEX_POINT('',#1051);
#437=VERTEX_POINT('',#1052);
#438=VERTEX_POINT('',#1054);
#439=VERTEX_POINT('',#1056);
#440=VERTEX_POINT('',#1059);
#441=VERTEX_POINT('',#1063);
#442=VERTEX_POINT('',#1064);
#443=VERTEX_POINT('',#1066);
#444=VERTEX_POINT('',#1068);
#445=VERTEX_POINT('',#1070);
#446=VERTEX_POINT('',#1072);
#447=VERTEX_POINT('',#1074);
#448=VERTEX_POINT('',#1076);
#449=VERTEX_POINT('',#1078);
#450=VERTEX_POINT('',#1082);
#451=VERTEX_POINT('',#1083);
#452=VERTEX_POINT('',#1085);
#453=VERTEX_POINT('',#1087);
#454=VERTEX_POINT('',#1091);
#455=VERTEX_POINT('',#1092);
#456=VERTEX_POINT('',#1094);
#457=VERTEX_POINT('',#1096);
#458=VERTEX_POINT('',#1098);
#459=VERTEX_POINT('',#1100);
#460=VERTEX_POINT('',#1102);
#461=VERTEX_POINT('',#1104);
#462=VERTEX_POINT('',#1106);
#463=VERTEX_POINT('',#1110);
#464=VERTEX_POINT('',#1111);
#465=VERTEX_POINT('',#1113);
#466=VERTEX_POINT('',#1115);
#467=VERTEX_POINT('',#1119);
#468=VERTEX_POINT('',#1120);
#469=VERTEX_POINT('',#1122);
#470=VERTEX_POINT('',#1124);
#471=VERTEX_POINT('',#1128);
#472=VERTEX_POINT('',#1129);
#473=VERTEX_POINT('',#1131);
#474=VERTEX_POINT('',#1133);
#475=VERTEX_POINT('',#1137);
#476=VERTEX_POINT('',#1138);
#477=VERTEX_POINT('',#1140);
#478=VERTEX_POINT('',#1142);
#479=VERTEX_POINT('',#1146);
#480=VERTEX_POINT('',#1147);
#481=CIRCLE('',#701,0.004);
#482=CIRCLE('',#703,0.004);
#483=CIRCLE('',#706,0.002);
#484=CIRCLE('',#709,0.002);
#485=CIRCLE('',#716,0.001);
#486=CIRCLE('',#717,0.001);
#487=CIRCLE('',#719,0.001);
#488=CIRCLE('',#720,0.001);
#489=CIRCLE('',#722,0.001);
#490=CIRCLE('',#724,0.001);
#491=CIRCLE('',#725,0.001);
#492=CIRCLE('',#727,0.001);
#493=CIRCLE('',#729,0.001);
#494=CIRCLE('',#730,0.001);
#495=CIRCLE('',#732,0.001);
#496=CIRCLE('',#738,0.001);
#497=CIRCLE('',#740,0.001);
#498=CIRCLE('',#742,0.001);
#499=CIRCLE('',#744,0.001);
#500=CIRCLE('',#745,0.001);
#501=CIRCLE('',#747,0.001);
#502=CIRCLE('',#749,0.001);
#503=CIRCLE('',#751,0.001);
#504=CIRCLE('',#752,0.001);
#505=CIRCLE('',#754,0.001);
#506=CIRCLE('',#756,0.001);
#507=CIRCLE('',#758,0.001);
#508=CIRCLE('',#760,0.001);
#509=CIRCLE('',#762,0.001);
#510=CIRCLE('',#764,0.001);
#511=CIRCLE('',#766,0.001);
#512=CIRCLE('',#767,0.001);
#513=CIRCLE('',#769,0.001);
#514=CIRCLE('',#771,0.001);
#515=CIRCLE('',#773,0.001);
#516=CIRCLE('',#774,0.001);
#517=CIRCLE('',#776,0.001);
#518=CIRCLE('',#778,0.001);
#519=CIRCLE('',#780,0.001);
#520=CIRCLE('',#782,0.001);
#521=CIRCLE('',#784,0.001);
#522=CIRCLE('',#786,0.001);
#523=CIRCLE('',#788,0.001);
#524=CIRCLE('',#790,0.001);
#525=CIRCLE('',#792,0.001);
#526=CIRCLE('',#794,0.001);
#527=EDGE_LOOP('',(#146));
#528=EDGE_LOOP('',(#147,#148,#149,#150));
#529=EDGE_LOOP('',(#151,#152,#153,#154));
#530=EDGE_LOOP('',(#155));
#531=EDGE_LOOP('',(#156));
#532=EDGE_LOOP('',(#157));
#533=EDGE_LOOP('',(#158,#159,#160,#161,#162,#163,#164,#165,#166));
#534=EDGE_LOOP('',(#167,#168,#169,#170));
#535=EDGE_LOOP('',(#171,#172,#173,#174,#175,#176,#177,#178,#179));
#536=EDGE_LOOP('',(#180,#181,#182,#183));
#537=EDGE_LOOP('',(#184,#185,#186,#187));
#538=EDGE_LOOP('',(#188,#189,#190,#191));
#539=EDGE_LOOP('',(#192,#193,#194,#195));
#540=EDGE_LOOP('',(#196,#197,#198,#199));
#541=EDGE_LOOP('',(#200,#201,#202,#203));
#542=EDGE_LOOP('',(#204,#205,#206,#207));
#543=EDGE_LOOP('',(#208,#209,#210,#211));
#544=EDGE_LOOP('',(#212,#213,#214,#215));
#545=EDGE_LOOP('',(#216,#217,#218,#219));
#546=EDGE_LOOP('',(#220,#221,#222,#223));
#547=EDGE_LOOP('',(#224,#225,#226));
#548=EDGE_LOOP('',(#227,#228,#229,#230));
#549=EDGE_LOOP('',(#231,#232,#233,#234));
#550=EDGE_LOOP('',(#235,#236,#237));
#551=EDGE_LOOP('',(#238,#239,#240,#241));
#552=EDGE_LOOP('',(#242,#243,#244,#245));
#553=EDGE_LOOP('',(#246,#247,#248,#249));
#554=EDGE_LOOP('',(#250,#251,#252,#253));
#555=EDGE_LOOP('',(#254,#255,#256,#257));
#556=EDGE_LOOP('',(#258,#259,#260,#261));
#557=EDGE_LOOP('',(#262,#263,#264));
#558=EDGE_LOOP('',(#265,#266,#267));
#559=EDGE_LOOP('',(#268,#269,#270));
#560=EDGE_LOOP('',(#271,#272,#273));
#561=EDGE_LOOP('',(#274,#275,#276,#277));
#562=EDGE_LOOP('',(#278,#279,#280,#281));
#563=EDGE_LOOP('',(#282,#283,#284,#285));
#564=EDGE_LOOP('',(#286,#287,#288,#289));
#565=EDGE_LOOP('',(#290,#291,#292,#293));
#566=EDGE_LOOP('',(#294,#295,#296,#297));
#567=EDGE_LOOP('',(#298,#299,#300));
#568=EDGE_LOOP('',(#301,#302,#303));
#569=EDGE_LOOP('',(#304,#305,#306));
#570=EDGE_LOOP('',(#307,#308,#309));
#571=EDGE_LOOP('',(#310,#311,#312,#313));
#572=EDGE_LOOP('',(#314,#315,#316,#317));
#573=EDGE_LOOP('',(#318,#319,#320,#321));
#574=EDGE_LOOP('',(#322,#323,#324,#325));
#575=EDGE_LOOP('',(#326,#327,#328));
#576=EDGE_LOOP('',(#329,#330,#331));
#577=EDGE_LOOP('',(#332,#333,#334,#335));
#578=FACE_BOUND('',#527,.T.);
#579=FACE_BOUND('',#528,.T.);
#580=FACE_BOUND('',#529,.T.);
#581=FACE_BOUND('',#530,.T.);
#582=FACE_BOUND('',#531,.T.);
#583=FACE_BOUND('',#532,.T.);
#584=FACE_BOUND('',#533,.T.);
#585=FACE_BOUND('',#534,.T.);
#586=FACE_BOUND('',#535,.T.);
#587=FACE_BOUND('',#536,.T.);
#588=FACE_BOUND('',#537,.T.);
#589=FACE_BOUND('',#538,.T.);
#590=FACE_BOUND('',#539,.T.);
#591=FACE_BOUND('',#540,.T.);
#592=FACE_BOUND('',#541,.T.);
#593=FACE_BOUND('',#542,.T.);
#594=FACE_BOUND('',#543,.T.);
#595=FACE_BOUND('',#544,.T.);
#596=FACE_BOUND('',#545,.T.);
#597=FACE_BOUND('',#546,.T.);
#598=FACE_BOUND('',#547,.T.);
#599=FACE_BOUND('',#548,.T.);
#600=FACE_BOUND('',#549,.T.);
#601=FACE_BOUND('',#550,.T.);
#602=FACE_BOUND('',#551,.T.);
#603=FACE_BOUND('',#552,.T.);
#604=FACE_BOUND('',#553,.T.);
#605=FACE_BOUND('',#554,.T.);
#606=FACE_BOUND('',#555,.T.);
#607=FACE_BOUND('',#556,.T.);
#608=FACE_BOUND('',#557,.T.);
#609=FACE_BOUND('',#558,.T.);
#610=FACE_BOUND('',#559,.T.);
#611=FACE_BOUND('',#560,.T.);
#612=FACE_BOUND('',#561,.T.);
#613=FACE_BOUND('',#562,.T.);
#614=FACE_BOUND('',#563,.T.);
#615=FACE_BOUND('',#564,.T.);
#616=FACE_BOUND('',#565,.T.);
#617=FACE_BOUND('',#566,.T.);
#618=FACE_BOUND('',#567,.T.);
#619=FACE_BOUND('',#568,.T.);
#620=FACE_BOUND('',#569,.T.);
#621=FACE_BOUND('',#570,.T.);
#622=FACE_BOUND('',#571,.T.);
#623=FACE_BOUND('',#572,.T.);
#624=FACE_BOUND('',#573,.T.);
#625=FACE_BOUND('',#574,.T.);
#626=FACE_BOUND('',#575,.T.);
#627=FACE_BOUND('',#576,.T.);
#628=FACE_BOUND('',#577,.T.);
#629=PLANE('',#700);
#630=PLANE('',#702);
#631=PLANE('',#705);
#632=PLANE('',#707);
#633=PLANE('',#708);
#634=PLANE('',#710);
#635=PLANE('',#711);
#636=PLANE('',#712);
#637=PLANE('',#713);
#638=PLANE('',#714);
#639=ADVANCED_FACE('',(#578,#579),#629,.T.);
#640=ADVANCED_FACE('',(#580,#581),#630,.F.);
#641=ADVANCED_FACE('',(#582,#583),#28,.F.);
#642=ADVANCED_FACE('',(#584),#631,.F.);
#643=ADVANCED_FACE('',(#585),#632,.T.);
#644=ADVANCED_FACE('',(#586),#633,.T.);
#645=ADVANCED_FACE('',(#587),#634,.F.);
#646=ADVANCED_FACE('',(#588),#635,.T.);
#647=ADVANCED_FACE('',(#589),#636,.T.);
#648=ADVANCED_FACE('',(#590),#637,.F.);
#649=ADVANCED_FACE('',(#591),#638,.T.);
#650=ADVANCED_FACE('',(#592),#29,.F.);
#651=ADVANCED_FACE('',(#593),#30,.T.);
#652=ADVANCED_FACE('',(#594),#26,.T.);
#653=ADVANCED_FACE('',(#595),#27,.T.);
#654=ADVANCED_FACE('',(#596),#31,.T.);
#655=ADVANCED_FACE('',(#597),#32,.T.);
#656=ADVANCED_FACE('',(#598),#14,.T.);
#657=ADVANCED_FACE('',(#599),#33,.T.);
#658=ADVANCED_FACE('',(#600),#34,.T.);
#659=ADVANCED_FACE('',(#601),#15,.T.);
#660=ADVANCED_FACE('',(#602),#35,.T.);
#661=ADVANCED_FACE('',(#603),#36,.T.);
#662=ADVANCED_FACE('',(#604),#37,.T.);
#663=ADVANCED_FACE('',(#605),#38,.T.);
#664=ADVANCED_FACE('',(#606),#39,.T.);
#665=ADVANCED_FACE('',(#607),#40,.T.);
#666=ADVANCED_FACE('',(#608),#16,.T.);
#667=ADVANCED_FACE('',(#609),#17,.T.);
#668=ADVANCED_FACE('',(#610),#18,.T.);
#669=ADVANCED_FACE('',(#611),#19,.T.);
#670=ADVANCED_FACE('',(#612),#41,.T.);
#671=ADVANCED_FACE('',(#613),#42,.T.);
#672=ADVANCED_FACE('',(#614),#43,.T.);
#673=ADVANCED_FACE('',(#615),#44,.T.);
#674=ADVANCED_FACE('',(#616),#45,.T.);
#675=ADVANCED_FACE('',(#617),#46,.T.);
#676=ADVANCED_FACE('',(#618),#20,.T.);
#677=ADVANCED_FACE('',(#619),#21,.T.);
#678=ADVANCED_FACE('',(#620),#22,.T.);
#679=ADVANCED_FACE('',(#621),#23,.T.);
#680=ADVANCED_FACE('',(#622),#47,.T.);
#681=ADVANCED_FACE('',(#623),#48,.T.);
#682=ADVANCED_FACE('',(#624),#49,.T.);
#683=ADVANCED_FACE('',(#625),#50,.T.);
#684=ADVANCED_FACE('',(#626),#24,.T.);
#685=ADVANCED_FACE('',(#627),#25,.T.);
#686=ADVANCED_FACE('',(#628),#51,.T.);
#687=CLOSED_SHELL('',(#639,#640,#641,#642,#643,#644,#645,#646,#647,#648,
#649,#650,#651,#652,#653,#654,#655,#656,#657,#658,#659,#660,#661,#662,#663,
#664,#665,#666,#667,#668,#669,#670,#671,#672,#673,#674,#675,#676,#677,#678,
#679,#680,#681,#682,#683,#684,#685,#686));
#688=STYLED_ITEM('',(#689),#696);
#689=PRESENTATION_STYLE_ASSIGNMENT((#690));
#690=SURFACE_STYLE_USAGE(.BOTH.,#691);
#691=SURFACE_SIDE_STYLE('',(#692));
#692=SURFACE_STYLE_FILL_AREA(#693);
#693=FILL_AREA_STYLE('',(#694));
#694=FILL_AREA_STYLE_COLOUR('',#695);
#695=COLOUR_RGB('',0.647058823529412,0.647058823529412,0.647058823529412);
#696=MANIFOLD_SOLID_BREP('Part 2',#687);
#697=SHAPE_DEFINITION_REPRESENTATION(#1237,#698);
#698=SHAPE_REPRESENTATION('Part 2',(#699),#1232);
#699=AXIS2_PLACEMENT_3D('',#1037,#796,#797);
#700=AXIS2_PLACEMENT_3D('',#1038,#798,#799);
#701=AXIS2_PLACEMENT_3D('',#1039,#800,#801);
#702=AXIS2_PLACEMENT_3D('',#1049,#806,#807);
#703=AXIS2_PLACEMENT_3D('',#1058,#812,#813);
#704=AXIS2_PLACEMENT_3D('',#1060,#814,#815);
#705=AXIS2_PLACEMENT_3D('',#1061,#816,#817);
#706=AXIS2_PLACEMENT_3D('',#1067,#820,#821);
#707=AXIS2_PLACEMENT_3D('',#1080,#828,#829);
#708=AXIS2_PLACEMENT_3D('',#1089,#834,#835);
#709=AXIS2_PLACEMENT_3D('',#1097,#839,#840);
#710=AXIS2_PLACEMENT_3D('',#1108,#846,#847);
#711=AXIS2_PLACEMENT_3D('',#1117,#852,#853);
#712=AXIS2_PLACEMENT_3D('',#1126,#858,#859);
#713=AXIS2_PLACEMENT_3D('',#1135,#864,#865);
#714=AXIS2_PLACEMENT_3D('',#1144,#870,#871);
#715=AXIS2_PLACEMENT_3D('',#1150,#875,#876);
#716=AXIS2_PLACEMENT_3D('',#1151,#877,#878);
#717=AXIS2_PLACEMENT_3D('',#1152,#879,#880);
#718=AXIS2_PLACEMENT_3D('',#1153,#881,#882);
#719=AXIS2_PLACEMENT_3D('',#1154,#883,#884);
#720=AXIS2_PLACEMENT_3D('',#1155,#885,#886);
#721=AXIS2_PLACEMENT_3D('',#1156,#887,#888);
#722=AXIS2_PLACEMENT_3D('',#1157,#889,#890);
#723=AXIS2_PLACEMENT_3D('',#1158,#891,#892);
#724=AXIS2_PLACEMENT_3D('',#1159,#893,#894);
#725=AXIS2_PLACEMENT_3D('',#1160,#895,#896);
#726=AXIS2_PLACEMENT_3D('',#1161,#897,#898);
#727=AXIS2_PLACEMENT_3D('',#1162,#899,#900);
#728=AXIS2_PLACEMENT_3D('',#1163,#901,#902);
#729=AXIS2_PLACEMENT_3D('',#1164,#903,#904);
#730=AXIS2_PLACEMENT_3D('',#1165,#905,#906);
#731=AXIS2_PLACEMENT_3D('',#1166,#907,#908);
#732=AXIS2_PLACEMENT_3D('',#1167,#909,#910);
#733=AXIS2_PLACEMENT_3D('',#1168,#911,#912);
#734=AXIS2_PLACEMENT_3D('',#1169,#913,#914);
#735=AXIS2_PLACEMENT_3D('',#1170,#915,#916);
#736=AXIS2_PLACEMENT_3D('',#1171,#917,#918);
#737=AXIS2_PLACEMENT_3D('',#1172,#919,#920);
#738=AXIS2_PLACEMENT_3D('',#1173,#921,#922);
#739=AXIS2_PLACEMENT_3D('',#1174,#923,#924);
#740=AXIS2_PLACEMENT_3D('',#1175,#925,#926);
#741=AXIS2_PLACEMENT_3D('',#1176,#927,#928);
#742=AXIS2_PLACEMENT_3D('',#1177,#929,#930);
#743=AXIS2_PLACEMENT_3D('',#1178,#931,#932);
#744=AXIS2_PLACEMENT_3D('',#1179,#933,#934);
#745=AXIS2_PLACEMENT_3D('',#1180,#935,#936);
#746=AXIS2_PLACEMENT_3D('',#1181,#937,#938);
#747=AXIS2_PLACEMENT_3D('',#1182,#939,#940);
#748=AXIS2_PLACEMENT_3D('',#1183,#941,#942);
#749=AXIS2_PLACEMENT_3D('',#1184,#943,#944);
#750=AXIS2_PLACEMENT_3D('',#1185,#945,#946);
#751=AXIS2_PLACEMENT_3D('',#1186,#947,#948);
#752=AXIS2_PLACEMENT_3D('',#1187,#949,#950);
#753=AXIS2_PLACEMENT_3D('',#1188,#951,#952);
#754=AXIS2_PLACEMENT_3D('',#1189,#953,#954);
#755=AXIS2_PLACEMENT_3D('',#1190,#955,#956);
#756=AXIS2_PLACEMENT_3D('',#1191,#957,#958);
#757=AXIS2_PLACEMENT_3D('',#1192,#959,#960);
#758=AXIS2_PLACEMENT_3D('',#1193,#961,#962);
#759=AXIS2_PLACEMENT_3D('',#1194,#963,#964);
#760=AXIS2_PLACEMENT_3D('',#1195,#965,#966);
#761=AXIS2_PLACEMENT_3D('',#1196,#967,#968);
#762=AXIS2_PLACEMENT_3D('',#1197,#969,#970);
#763=AXIS2_PLACEMENT_3D('',#1198,#971,#972);
#764=AXIS2_PLACEMENT_3D('',#1199,#973,#974);
#765=AXIS2_PLACEMENT_3D('',#1200,#975,#976);
#766=AXIS2_PLACEMENT_3D('',#1201,#977,#978);
#767=AXIS2_PLACEMENT_3D('',#1202,#979,#980);
#768=AXIS2_PLACEMENT_3D('',#1203,#981,#982);
#769=AXIS2_PLACEMENT_3D('',#1204,#983,#984);
#770=AXIS2_PLACEMENT_3D('',#1205,#985,#986);
#771=AXIS2_PLACEMENT_3D('',#1206,#987,#988);
#772=AXIS2_PLACEMENT_3D('',#1207,#989,#990);
#773=AXIS2_PLACEMENT_3D('',#1208,#991,#992);
#774=AXIS2_PLACEMENT_3D('',#1209,#993,#994);
#775=AXIS2_PLACEMENT_3D('',#1210,#995,#996);
#776=AXIS2_PLACEMENT_3D('',#1211,#997,#998);
#777=AXIS2_PLACEMENT_3D('',#1212,#999,#1000);
#778=AXIS2_PLACEMENT_3D('',#1213,#1001,#1002);
#779=AXIS2_PLACEMENT_3D('',#1214,#1003,#1004);
#780=AXIS2_PLACEMENT_3D('',#1215,#1005,#1006);
#781=AXIS2_PLACEMENT_3D('',#1216,#1007,#1008);
#782=AXIS2_PLACEMENT_3D('',#1217,#1009,#1010);
#783=AXIS2_PLACEMENT_3D('',#1218,#1011,#1012);
#784=AXIS2_PLACEMENT_3D('',#1219,#1013,#1014);
#785=AXIS2_PLACEMENT_3D('',#1220,#1015,#1016);
#786=AXIS2_PLACEMENT_3D('',#1221,#1017,#1018);
#787=AXIS2_PLACEMENT_3D('',#1222,#1019,#1020);
#788=AXIS2_PLACEMENT_3D('',#1223,#1021,#1022);
#789=AXIS2_PLACEMENT_3D('',#1224,#1023,#1024);
#790=AXIS2_PLACEMENT_3D('',#1225,#1025,#1026);
#791=AXIS2_PLACEMENT_3D('',#1226,#1027,#1028);
#792=AXIS2_PLACEMENT_3D('',#1227,#1029,#1030);
#793=AXIS2_PLACEMENT_3D('',#1228,#1031,#1032);
#794=AXIS2_PLACEMENT_3D('',#1229,#1033,#1034);
#795=AXIS2_PLACEMENT_3D('',#1230,#1035,#1036);
#796=DIRECTION('',(0.,0.,1.));
#797=DIRECTION('',(1.,0.,0.));
#798=DIRECTION('',(0.,0.,-1.));
#799=DIRECTION('',(-1.,0.,0.));
#800=DIRECTION('',(0.,0.,1.));
#801=DIRECTION('',(0.,-1.,0.));
#802=DIRECTION('',(0.,-1.,0.));
#803=DIRECTION('',(1.,0.,0.));
#804=DIRECTION('',(2.31296463463574E-16,1.,0.));
#805=DIRECTION('',(1.,0.,0.));
#806=DIRECTION('',(0.,0.,-1.));
#807=DIRECTION('',(-1.,0.,0.));
#808=DIRECTION('',(-1.15648231731787E-16,-1.,0.));
#809=DIRECTION('',(1.,0.,0.));
#810=DIRECTION('',(-1.15648231731787E-16,-1.,0.));
#811=DIRECTION('',(1.,0.,0.));
#812=DIRECTION('',(0.,0.,1.));
#813=DIRECTION('',(0.,-1.,0.));
#814=DIRECTION('',(0.,0.,1.));
#815=DIRECTION('',(0.,-1.,0.));
#816=DIRECTION('',(0.,-1.,0.));
#817=DIRECTION('',(-1.,0.,0.));
#818=DIRECTION('',(0.5,0.,-0.866025403784439));
#819=DIRECTION('',(1.,0.,0.));
#820=DIRECTION('',(0.,-1.,0.));
#821=DIRECTION('',(-1.,0.,0.));
#822=DIRECTION('',(-0.5,0.,-0.866025403784439));
#823=DIRECTION('',(1.,0.,0.));
#824=DIRECTION('',(0.,0.,1.));
#825=DIRECTION('',(1.,0.,0.));
#826=DIRECTION('',(0.,0.,1.));
#827=DIRECTION('',(1.,0.,0.));
#828=DIRECTION('',(-1.,1.15648231731787E-16,0.));
#829=DIRECTION('',(1.15648231731787E-16,1.,0.));
#830=DIRECTION('',(-1.15648231731787E-16,-1.,0.));
#831=DIRECTION('',(0.,0.,1.));
#832=DIRECTION('',(-1.15648231731787E-16,-1.,0.));
#833=DIRECTION('',(0.,0.,1.));
#834=DIRECTION('',(0.,-1.,0.));
#835=DIRECTION('',(-1.,0.,0.));
#836=DIRECTION('',(0.,0.,1.));
#837=DIRECTION('',(1.,0.,0.));
#838=DIRECTION('',(0.5,0.,0.866025403784439));
#839=DIRECTION('',(0.,-1.,0.));
#840=DIRECTION('',(-1.,0.,0.));
#841=DIRECTION('',(1.,0.,0.));
#842=DIRECTION('',(-0.5,0.,0.866025403784439));
#843=DIRECTION('',(1.,0.,0.));
#844=DIRECTION('',(0.,0.,1.));
#845=DIRECTION('',(1.,0.,0.));
#846=DIRECTION('',(-1.,1.15648231731787E-16,0.));
#847=DIRECTION('',(1.15648231731787E-16,1.,0.));
#848=DIRECTION('',(0.,0.,1.));
#849=DIRECTION('',(-1.15648231731787E-16,-1.,0.));
#850=DIRECTION('',(0.,0.,1.));
#851=DIRECTION('',(-1.15648231731787E-16,-1.,0.));
#852=DIRECTION('',(0.,0.,-1.));
#853=DIRECTION('',(-1.,0.,0.));
#854=DIRECTION('',(1.,0.,0.));
#855=DIRECTION('',(-1.15648231731787E-16,-1.,0.));
#856=DIRECTION('',(1.,0.,0.));
#857=DIRECTION('',(-2.31296463463574E-16,-1.,0.));
#858=DIRECTION('',(0.,0.,-1.));
#859=DIRECTION('',(-1.,0.,0.));
#860=DIRECTION('',(-1.15648231731787E-16,-1.,0.));
#861=DIRECTION('',(1.,0.,0.));
#862=DIRECTION('',(0.,-1.,0.));
#863=DIRECTION('',(1.,0.,0.));
#864=DIRECTION('',(-0.866025403784439,2.00308613164954E-16,0.5));
#865=DIRECTION('',(-2.31296463463574E-16,-1.,0.));
#866=DIRECTION('',(-0.5,-1.23259516440783E-32,-0.866025403784439));
#867=DIRECTION('',(2.31296463463574E-16,1.,0.));
#868=DIRECTION('',(0.5,1.23259516440783E-32,0.866025403784439));
#869=DIRECTION('',(-2.31296463463574E-16,-1.,0.));
#870=DIRECTION('',(-0.866025403784439,0.,-0.5));
#871=DIRECTION('',(0.,1.,0.));
#872=DIRECTION('',(0.,1.,0.));
#873=DIRECTION('',(0.5,0.,-0.866025403784439));
#874=DIRECTION('',(-0.5,0.,0.866025403784439));
#875=DIRECTION('',(2.31296463463574E-16,1.,0.));
#876=DIRECTION('',(1.,-2.31296463463574E-16,0.));
#877=DIRECTION('',(0.,-1.,0.));
#878=DIRECTION('',(-1.,0.,0.));
#879=DIRECTION('',(0.,-1.,0.));
#880=DIRECTION('',(-1.,0.,0.));
#881=DIRECTION('',(-0.5,0.,-0.866025403784439));
#882=DIRECTION('',(-0.866025403784439,0.,0.5));
#883=DIRECTION('',(-0.5,0.,-0.866025403784439));
#884=DIRECTION('',(-0.866025403784439,0.,0.5));
#885=DIRECTION('',(0.5,-3.17476430374377E-16,0.866025403784438));
#886=DIRECTION('',(0.866025403784438,0.,-0.5));
#887=DIRECTION('',(0.,-1.,0.));
#888=DIRECTION('',(-1.,0.,0.));
#889=DIRECTION('',(-1.,0.,0.));
#890=DIRECTION('',(0.,1.,0.));
#891=DIRECTION('',(0.,-1.,0.));
#892=DIRECTION('',(-1.,0.,0.));
#893=DIRECTION('',(-1.,0.,0.));
#894=DIRECTION('',(0.,1.,0.));
#895=DIRECTION('',(0.5,0.,0.866025403784439));
#896=DIRECTION('',(0.866025403784439,0.,-0.5));
#897=DIRECTION('',(-0.5,0.,-0.866025403784439));
#898=DIRECTION('',(-0.866025403784439,0.,0.5));
#899=DIRECTION('',(-0.5,8.67361737988404E-16,-0.866025403784439));
#900=DIRECTION('',(-0.866025403784439,0.,0.5));
#901=DIRECTION('',(2.31296463463574E-16,1.,0.));
#902=DIRECTION('',(1.,-2.31296463463574E-16,0.));
#903=DIRECTION('',(0.,1.,0.));
#904=DIRECTION('',(1.,0.,0.));
#905=DIRECTION('',(0.,-1.,0.));
#906=DIRECTION('',(-1.,0.,0.));
#907=DIRECTION('',(-1.73472347597681E-15,1.,0.));
#908=DIRECTION('',(1.,1.73472347597681E-15,0.));
#909=DIRECTION('',(1.,1.73472347597681E-15,0.));
#910=DIRECTION('',(1.73472347597681E-15,-1.,0.));
#911=DIRECTION('',(-1.,0.,0.));
#912=DIRECTION('',(0.,1.,0.));
#913=DIRECTION('',(-0.866025403784439,0.,0.5));
#914=DIRECTION('',(-0.5,0.,-0.866025403784439));
#915=DIRECTION('',(1.,0.,0.));
#916=DIRECTION('',(0.,-1.,0.));
#917=DIRECTION('',(0.866025403784439,0.,-0.5));
#918=DIRECTION('',(0.5,0.,0.866025403784439));
#919=DIRECTION('',(-1.73472347597681E-15,-1.,0.));
#920=DIRECTION('',(-1.,1.73472347597681E-15,0.));
#921=DIRECTION('',(1.,0.,1.73472347597681E-15));
#922=DIRECTION('',(1.73472347597681E-15,0.,-1.));
#923=DIRECTION('',(-1.,0.,0.));
#924=DIRECTION('',(0.,1.,0.));
#925=DIRECTION('',(-1.,0.,-1.73472347597681E-15));
#926=DIRECTION('',(-1.73472347597681E-15,0.,1.));
#927=DIRECTION('',(0.5,0.,-0.866025403784439));
#928=DIRECTION('',(-0.866025403784439,0.,-0.5));
#929=DIRECTION('',(0.5,0.,-0.866025403784439));
#930=DIRECTION('',(-0.866025403784439,0.,-0.5));
#931=DIRECTION('',(0.,1.,0.));
#932=DIRECTION('',(1.,0.,0.));
#933=DIRECTION('',(0.,-1.,0.));
#934=DIRECTION('',(-1.,0.,0.));
#935=DIRECTION('',(0.,1.,0.));
#936=DIRECTION('',(1.,0.,0.));
#937=DIRECTION('',(0.5,0.,-0.866025403784439));
#938=DIRECTION('',(-0.866025403784439,0.,-0.5));
#939=DIRECTION('',(0.5,0.,-0.866025403784439));
#940=DIRECTION('',(-0.866025403784439,0.,-0.5));
#941=DIRECTION('',(1.,0.,0.));
#942=DIRECTION('',(0.,-1.,0.));
#943=DIRECTION('',(-1.,0.,0.));
#944=DIRECTION('',(0.,1.,0.));
#945=DIRECTION('',(-1.15648231731787E-16,-1.,0.));
#946=DIRECTION('',(-1.,1.15648231731787E-16,0.));
#947=DIRECTION('',(0.,1.,0.));
#948=DIRECTION('',(1.,0.,0.));
#949=DIRECTION('',(0.,-1.,0.));
#950=DIRECTION('',(-1.,0.,0.));
#951=DIRECTION('',(1.73472347597681E-15,0.,-1.));
#952=DIRECTION('',(-1.,0.,-1.73472347597681E-15));
#953=DIRECTION('',(0.,0.,-1.));
#954=DIRECTION('',(0.,1.,0.));
#955=DIRECTION('',(0.,1.,0.));
#956=DIRECTION('',(1.,0.,0.));
#957=DIRECTION('',(-1.,0.,0.));
#958=DIRECTION('',(0.,1.,0.));
#959=DIRECTION('',(0.,-1.,0.));
#960=DIRECTION('',(-1.,0.,0.));
#961=DIRECTION('',(-1.,0.,0.));
#962=DIRECTION('',(0.,1.,0.));
#963=DIRECTION('',(0.,0.,-1.));
#964=DIRECTION('',(0.,1.,0.));
#965=DIRECTION('',(0.,0.,-1.));
#966=DIRECTION('',(0.,1.,0.));
#967=DIRECTION('',(0.,0.,-1.));
#968=DIRECTION('',(0.,1.,0.));
#969=DIRECTION('',(0.,0.,1.));
#970=DIRECTION('',(0.,-1.,0.));
#971=DIRECTION('',(-1.,0.,0.));
#972=DIRECTION('',(0.,1.,0.));
#973=DIRECTION('',(1.,1.73472347597681E-15,0.));
#974=DIRECTION('',(1.73472347597681E-15,-1.,0.));
#975=DIRECTION('',(1.15648231731787E-16,1.,0.));
#976=DIRECTION('',(1.,-1.15648231731787E-16,0.));
#977=DIRECTION('',(0.,-1.,0.));
#978=DIRECTION('',(-1.,0.,0.));
#979=DIRECTION('',(0.,1.,0.));
#980=DIRECTION('',(1.,0.,0.));
#981=DIRECTION('',(1.,0.,0.));
#982=DIRECTION('',(0.,-1.,0.));
#983=DIRECTION('',(1.,0.,0.));
#984=DIRECTION('',(0.,-1.,0.));
#985=DIRECTION('',(0.,0.,1.));
#986=DIRECTION('',(0.,-1.,0.));
#987=DIRECTION('',(0.,0.,1.));
#988=DIRECTION('',(0.,-1.,0.));
#989=DIRECTION('',(1.15648231731787E-16,1.,0.));
#990=DIRECTION('',(1.,-1.15648231731787E-16,0.));
#991=DIRECTION('',(0.,1.,0.));
#992=DIRECTION('',(1.,0.,0.));
#993=DIRECTION('',(0.,-1.,0.));
#994=DIRECTION('',(-1.,0.,0.));
#995=DIRECTION('',(-1.,0.,0.));
#996=DIRECTION('',(0.,1.,0.));
#997=DIRECTION('',(-1.,0.,0.));
#998=DIRECTION('',(0.,1.,0.));
#999=DIRECTION('',(1.73472347597681E-15,0.,-1.));
#1000=DIRECTION('',(-1.,0.,-1.73472347597681E-15));
#1001=DIRECTION('',(0.,0.,-1.));
#1002=DIRECTION('',(0.,1.,0.));
#1003=DIRECTION('',(0.,0.,-1.));
#1004=DIRECTION('',(0.,1.,0.));
#1005=DIRECTION('',(0.,0.,-1.));
#1006=DIRECTION('',(0.,1.,0.));
#1007=DIRECTION('',(-1.,0.,0.));
#1008=DIRECTION('',(0.,1.,0.));
#1009=DIRECTION('',(-1.,0.,-1.73472347597681E-15));
#1010=DIRECTION('',(-1.73472347597681E-15,0.,1.));
#1011=DIRECTION('',(1.,0.,0.));
#1012=DIRECTION('',(0.,-1.,0.));
#1013=DIRECTION('',(1.,0.,-1.73472347597681E-15));
#1014=DIRECTION('',(-1.73472347597681E-15,0.,-1.));
#1015=DIRECTION('',(0.,0.,1.));
#1016=DIRECTION('',(0.,-1.,0.));
#1017=DIRECTION('',(0.,0.,1.));
#1018=DIRECTION('',(0.,-1.,0.));
#1019=DIRECTION('',(0.,0.,-1.));
#1020=DIRECTION('',(0.,1.,0.));
#1021=DIRECTION('',(0.,0.,1.));
#1022=DIRECTION('',(0.,-1.,0.));
#1023=DIRECTION('',(-1.,0.,0.));
#1024=DIRECTION('',(0.,1.,0.));
#1025=DIRECTION('',(1.,0.,0.));
#1026=DIRECTION('',(0.,-1.,0.));
#1027=DIRECTION('',(0.,1.,0.));
#1028=DIRECTION('',(1.,0.,0.));
#1029=DIRECTION('',(0.,1.,0.));
#1030=DIRECTION('',(1.,0.,0.));
#1031=DIRECTION('',(0.,-1.,0.));
#1032=DIRECTION('',(-1.,0.,0.));
#1033=DIRECTION('',(0.,-1.,0.));
#1034=DIRECTION('',(-1.,0.,0.));
#1035=DIRECTION('',(-1.15648231731787E-16,-1.,0.));
#1036=DIRECTION('',(-1.,1.15648231731787E-16,0.));
#1037=CARTESIAN_POINT('',(0.,0.,0.));
#1038=CARTESIAN_POINT('',(0.,0.,-0.004));
#1039=CARTESIAN_POINT('',(0.,4.59242549680257E-19,-0.004));
#1040=CARTESIAN_POINT('',(0.,-0.004,-0.004));
#1041=CARTESIAN_POINT('',(0.005,-0.0075,-0.004));
#1042=CARTESIAN_POINT('',(0.005,0.0065,-0.004));
#1043=CARTESIAN_POINT('',(0.005,-0.0065,-0.004));
#1044=CARTESIAN_POINT('',(0.,-0.0065,-0.004));
#1045=CARTESIAN_POINT('',(-0.00442264973081038,-0.0065,-0.004));
#1046=CARTESIAN_POINT('',(-0.00442264973081038,1.02294324187457E-18,-0.004));
#1047=CARTESIAN_POINT('',(-0.00442264973081037,0.0065,-0.004));
#1048=CARTESIAN_POINT('',(0.005,0.0065,-0.004));
#1049=CARTESIAN_POINT('',(0.,0.,0.));
#1050=CARTESIAN_POINT('',(-0.012,-0.0075,0.));
#1051=CARTESIAN_POINT('',(-0.012,0.0065,0.));
#1052=CARTESIAN_POINT('',(-0.012,-0.0065,0.));
#1053=CARTESIAN_POINT('',(0.013,-0.0065,0.));
#1054=CARTESIAN_POINT('',(0.012,-0.0065,0.));
#1055=CARTESIAN_POINT('',(0.012,-1.38777878078145E-18,0.));
#1056=CARTESIAN_POINT('',(0.012,0.0065,0.));
#1057=CARTESIAN_POINT('',(0.,0.0065,0.));
#1058=CARTESIAN_POINT('',(0.,4.59242549680257E-19,0.));
#1059=CARTESIAN_POINT('',(0.,-0.004,0.));
#1060=CARTESIAN_POINT('',(0.,4.59242549680257E-19,-0.004));
#1061=CARTESIAN_POINT('',(1.7347234759768E-18,0.0075,-0.004));
#1062=CARTESIAN_POINT('',(0.00461602540378444,0.0075,-0.0013349364905389));
#1063=CARTESIAN_POINT('',(0.00846410161513776,0.0075,-0.008));
#1064=CARTESIAN_POINT('',(0.00557735026918963,0.0075,-0.003));
#1065=CARTESIAN_POINT('',(-0.005,0.0075,-0.003));
#1066=CARTESIAN_POINT('',(-0.00442264973081037,0.0075,-0.003));
#1067=CARTESIAN_POINT('',(-0.00442264973081037,0.0075,-0.005));
#1068=CARTESIAN_POINT('',(-0.00615470053837925,0.0075,-0.004));
#1069=CARTESIAN_POINT('',(-0.00461602540378444,0.0075,-0.0013349364905389));
#1070=CARTESIAN_POINT('',(-0.00846410161513776,0.0075,-0.008));
#1071=CARTESIAN_POINT('',(-0.013,0.0075,-0.008));
#1072=CARTESIAN_POINT('',(-0.012,0.0075,-0.008));
#1073=CARTESIAN_POINT('',(-0.012,0.0075,0.));
#1074=CARTESIAN_POINT('',(-0.012,0.0075,-0.001));
#1075=CARTESIAN_POINT('',(1.7347234759768E-18,0.0075,-0.001));
#1076=CARTESIAN_POINT('',(0.012,0.0075,-0.001));
#1077=CARTESIAN_POINT('',(0.012,0.0075,-0.004));
#1078=CARTESIAN_POINT('',(0.012,0.0075,-0.008));
#1079=CARTESIAN_POINT('',(0.00788675134594813,0.0075,-0.008));
#1080=CARTESIAN_POINT('',(-0.013,0.,-0.004));
#1081=CARTESIAN_POINT('',(-0.013,0.,-0.008));
#1082=CARTESIAN_POINT('',(-0.013,0.0065,-0.008));
#1083=CARTESIAN_POINT('',(-0.013,-0.0065,-0.008));
#1084=CARTESIAN_POINT('',(-0.013,-0.0065,-0.004));
#1085=CARTESIAN_POINT('',(-0.013,-0.0065,-0.001));
#1086=CARTESIAN_POINT('',(-0.013,0.0075,-0.001));
#1087=CARTESIAN_POINT('',(-0.013,0.0065,-0.001));
#1088=CARTESIAN_POINT('',(-0.013,0.0065,-0.009));
#1089=CARTESIAN_POINT('',(-1.7347234759768E-18,-0.0075,-0.004));
#1090=CARTESIAN_POINT('',(-0.012,-0.0075,-0.004));
#1091=CARTESIAN_POINT('',(-0.012,-0.0075,-0.001));
#1092=CARTESIAN_POINT('',(-0.012,-0.0075,-0.008));
#1093=CARTESIAN_POINT('',(-1.7347234759768E-18,-0.0075,-0.008));
#1094=CARTESIAN_POINT('',(-0.00846410161513776,-0.0075,-0.008));
#1095=CARTESIAN_POINT('',(-0.00586602540378444,-0.0075,-0.0035));
#1096=CARTESIAN_POINT('',(-0.00615470053837925,-0.0075,-0.004));
#1097=CARTESIAN_POINT('',(-0.00442264973081038,-0.0075,-0.005));
#1098=CARTESIAN_POINT('',(-0.00442264973081038,-0.0075,-0.003));
#1099=CARTESIAN_POINT('',(-1.7347234759768E-18,-0.0075,-0.003));
#1100=CARTESIAN_POINT('',(0.00557735026918962,-0.0075,-0.003));
#1101=CARTESIAN_POINT('',(0.00875277674973257,-0.0075,-0.0085));
#1102=CARTESIAN_POINT('',(0.00846410161513776,-0.0075,-0.008));
#1103=CARTESIAN_POINT('',(-1.7347234759768E-18,-0.0075,-0.008));
#1104=CARTESIAN_POINT('',(0.012,-0.0075,-0.008));
#1105=CARTESIAN_POINT('',(0.012,-0.0075,0.));
#1106=CARTESIAN_POINT('',(0.012,-0.0075,-0.001));
#1107=CARTESIAN_POINT('',(-0.013,-0.0075,-0.001));
#1108=CARTESIAN_POINT('',(0.013,0.,-0.004));
#1109=CARTESIAN_POINT('',(0.013,0.0065,-0.004));
#1110=CARTESIAN_POINT('',(0.013,0.0065,-0.008));
#1111=CARTESIAN_POINT('',(0.013,0.0065,-0.001));
#1112=CARTESIAN_POINT('',(0.013,0.,-0.001));
#1113=CARTESIAN_POINT('',(0.013,-0.0065,-0.001));
#1114=CARTESIAN_POINT('',(0.013,-0.0065,-0.009));
#1115=CARTESIAN_POINT('',(0.013,-0.0065,-0.008));
#1116=CARTESIAN_POINT('',(0.013,0.0075,-0.008));
#1117=CARTESIAN_POINT('',(0.,0.,-0.009));
#1118=CARTESIAN_POINT('',(0.,-0.0065,-0.009));
#1119=CARTESIAN_POINT('',(-0.00846410161513776,-0.0065,-0.009));
#1120=CARTESIAN_POINT('',(-0.012,-0.0065,-0.009));
#1121=CARTESIAN_POINT('',(-0.012,1.38777878078145E-18,-0.009));
#1122=CARTESIAN_POINT('',(-0.012,0.0065,-0.009));
#1123=CARTESIAN_POINT('',(-0.00788675134594813,0.0065,-0.009));
#1124=CARTESIAN_POINT('',(-0.00846410161513775,0.0065,-0.009));
#1125=CARTESIAN_POINT('',(-0.00846410161513776,-0.0075,-0.009));
#1126=CARTESIAN_POINT('',(0.,0.,-0.009));
#1127=CARTESIAN_POINT('',(0.012,-0.0075,-0.009));
#1128=CARTESIAN_POINT('',(0.012,0.0065,-0.009));
#1129=CARTESIAN_POINT('',(0.012,-0.0065,-0.009));
#1130=CARTESIAN_POINT('',(0.,-0.0065,-0.009));
#1131=CARTESIAN_POINT('',(0.00846410161513776,-0.0065,-0.009));
#1132=CARTESIAN_POINT('',(0.00846410161513776,0.0075,-0.009));
#1133=CARTESIAN_POINT('',(0.00846410161513776,0.0065,-0.009));
#1134=CARTESIAN_POINT('',(0.013,0.0065,-0.009));
#1135=CARTESIAN_POINT('',(-0.008,0.,-0.00919615242270663));
#1136=CARTESIAN_POINT('',(-0.008,0.0065,-0.00919615242270663));
#1137=CARTESIAN_POINT('',(-0.00759807621135332,0.0065,-0.0085));
#1138=CARTESIAN_POINT('',(-0.00528867513459481,0.0065,-0.0045));
#1139=CARTESIAN_POINT('',(-0.00528867513459481,-6.27119852669071E-19,-0.0045));
#1140=CARTESIAN_POINT('',(-0.00528867513459481,-0.0065,-0.0045));
#1141=CARTESIAN_POINT('',(-0.00788675134594813,-0.0065,-0.009));
#1142=CARTESIAN_POINT('',(-0.00759807621135332,-0.0065,-0.0085));
#1143=CARTESIAN_POINT('',(-0.00759807621135331,0.0075,-0.0085));
#1144=CARTESIAN_POINT('',(0.005,0.,-0.004));
#1145=CARTESIAN_POINT('',(0.00759807621135332,-0.0075,-0.0085));
#1146=CARTESIAN_POINT('',(0.00759807621135332,0.0065,-0.0085));
#1147=CARTESIAN_POINT('',(0.00759807621135332,-0.0065,-0.0085));
#1148=CARTESIAN_POINT('',(0.005,-0.0065,-0.004));
#1149=CARTESIAN_POINT('',(0.005,0.0065,-0.004));
#1150=CARTESIAN_POINT('',(-0.00442264973081038,1.02294324187457E-18,-0.005));
#1151=CARTESIAN_POINT('',(-0.00442264973081038,-0.0065,-0.005));
#1152=CARTESIAN_POINT('',(-0.00442264973081037,0.0065,-0.005));
#1153=CARTESIAN_POINT('',(-0.00461602540378444,0.0065,-0.0013349364905389));
#1154=CARTESIAN_POINT('',(-0.00846410161513776,0.0065,-0.008));
#1155=CARTESIAN_POINT('',(-0.00615470053837925,0.0065,-0.004));
#1156=CARTESIAN_POINT('',(-0.00442264973081037,0.0065,-0.005));
#1157=CARTESIAN_POINT('',(-0.00442264973081037,0.0065,-0.003));
#1158=CARTESIAN_POINT('',(-0.00442264973081038,-0.0065,-0.005));
#1159=CARTESIAN_POINT('',(-0.00442264973081038,-0.0065,-0.003));
#1160=CARTESIAN_POINT('',(-0.00615470053837925,-0.0065,-0.004));
#1161=CARTESIAN_POINT('',(-0.00461602540378444,-0.0065,-0.0013349364905389));
#1162=CARTESIAN_POINT('',(-0.00846410161513776,-0.0065,-0.008));
#1163=CARTESIAN_POINT('',(-0.00846410161513776,1.95771676997769E-18,-0.008));
#1164=CARTESIAN_POINT('',(-0.00846410161513775,0.0065,-0.008));
#1165=CARTESIAN_POINT('',(-0.00846410161513776,-0.0065,-0.008));
#1166=CARTESIAN_POINT('',(-0.00846410161513775,0.0065,-0.008));
#1167=CARTESIAN_POINT('',(-0.00846410161513775,0.0065,-0.008));
#1168=CARTESIAN_POINT('',(0.,0.0065,-0.003));
#1169=CARTESIAN_POINT('',(0.00557735026918963,0.0065,-0.003));
#1170=CARTESIAN_POINT('',(-1.7347234759768E-18,-0.0065,-0.003));
#1171=CARTESIAN_POINT('',(0.00557735026918962,-0.0065,-0.003));
#1172=CARTESIAN_POINT('',(-0.00846410161513776,-0.0065,-0.008));
#1173=CARTESIAN_POINT('',(-0.00846410161513776,-0.0065,-0.008));
#1174=CARTESIAN_POINT('',(0.,0.0065,-0.008));
#1175=CARTESIAN_POINT('',(-0.012,0.0065,-0.008));
#1176=CARTESIAN_POINT('',(0.00461602540378444,0.0065,-0.0013349364905389));
#1177=CARTESIAN_POINT('',(0.00846410161513776,0.0065,-0.008));
#1178=CARTESIAN_POINT('',(0.00846410161513776,0.,-0.008));
#1179=CARTESIAN_POINT('',(0.00846410161513776,-0.0065,-0.008));
#1180=CARTESIAN_POINT('',(0.00846410161513776,0.0065,-0.008));
#1181=CARTESIAN_POINT('',(0.00461602540378444,-0.0065,-0.0013349364905389));
#1182=CARTESIAN_POINT('',(0.00846410161513776,-0.0065,-0.008));
#1183=CARTESIAN_POINT('',(-1.7347234759768E-18,-0.0065,-0.008));
#1184=CARTESIAN_POINT('',(-0.012,-0.0065,-0.008));
#1185=CARTESIAN_POINT('',(-0.012,-1.15648231731787E-19,-0.008));
#1186=CARTESIAN_POINT('',(-0.012,0.0065,-0.008));
#1187=CARTESIAN_POINT('',(-0.012,-0.0065,-0.008));
#1188=CARTESIAN_POINT('',(-0.012,0.0065,-0.008));
#1189=CARTESIAN_POINT('',(-0.012,0.0065,-0.008));
#1190=CARTESIAN_POINT('',(0.00846410161513776,0.0065,-0.008));
#1191=CARTESIAN_POINT('',(0.00846410161513776,0.0065,-0.008));
#1192=CARTESIAN_POINT('',(0.00846410161513776,-0.0065,-0.008));
#1193=CARTESIAN_POINT('',(0.00846410161513776,-0.0065,-0.008));
#1194=CARTESIAN_POINT('',(-0.012,-0.0065,-0.008));
#1195=CARTESIAN_POINT('',(-0.012,-0.0065,-0.008));
#1196=CARTESIAN_POINT('',(-0.012,0.0065,-0.004));
#1197=CARTESIAN_POINT('',(-0.012,0.0065,-0.001));
#1198=CARTESIAN_POINT('',(0.,0.0065,-0.008));
#1199=CARTESIAN_POINT('',(0.012,0.0065,-0.008));
#1200=CARTESIAN_POINT('',(0.012,-1.38777878078145E-18,-0.008));
#1201=CARTESIAN_POINT('',(0.012,-0.0065,-0.008));
#1202=CARTESIAN_POINT('',(0.012,0.0065,-0.008));
#1203=CARTESIAN_POINT('',(-1.7347234759768E-18,-0.0065,-0.008));
#1204=CARTESIAN_POINT('',(0.012,-0.0065,-0.008));
#1205=CARTESIAN_POINT('',(-0.012,-0.0065,-0.004));
#1206=CARTESIAN_POINT('',(-0.012,-0.0065,-0.001));
#1207=CARTESIAN_POINT('',(-0.012,1.38777878078145E-18,-0.001));
#1208=CARTESIAN_POINT('',(-0.012,0.0065,-0.001));
#1209=CARTESIAN_POINT('',(-0.012,-0.0065,-0.001));
#1210=CARTESIAN_POINT('',(-0.012,0.0065,-0.001));
#1211=CARTESIAN_POINT('',(-0.012,0.0065,-0.001));
#1212=CARTESIAN_POINT('',(0.012,0.0065,-0.008));
#1213=CARTESIAN_POINT('',(0.012,0.0065,-0.008));
#1214=CARTESIAN_POINT('',(0.012,-0.0065,-0.008));
#1215=CARTESIAN_POINT('',(0.012,-0.0065,-0.008));
#1216=CARTESIAN_POINT('',(-0.012,-0.0065,-0.001));
#1217=CARTESIAN_POINT('',(-0.012,-0.0065,-0.001));
#1218=CARTESIAN_POINT('',(1.7347234759768E-18,0.0065,-0.001));
#1219=CARTESIAN_POINT('',(0.012,0.0065,-0.001));
#1220=CARTESIAN_POINT('',(0.012,0.0065,-0.004));
#1221=CARTESIAN_POINT('',(0.012,0.0065,-0.001));
#1222=CARTESIAN_POINT('',(0.012,-0.0065,-0.004));
#1223=CARTESIAN_POINT('',(0.012,-0.0065,-0.001));
#1224=CARTESIAN_POINT('',(0.,-0.0065,-0.001));
#1225=CARTESIAN_POINT('',(0.012,-0.0065,-0.001));
#1226=CARTESIAN_POINT('',(0.012,0.0065,-0.001));
#1227=CARTESIAN_POINT('',(0.012,0.0065,-0.001));
#1228=CARTESIAN_POINT('',(0.012,-0.0065,-0.001));
#1229=CARTESIAN_POINT('',(0.012,-0.0065,-0.001));
#1230=CARTESIAN_POINT('',(0.012,1.15648231731787E-19,-0.001));
#1231=MECHANICAL_DESIGN_GEOMETRIC_PRESENTATION_REPRESENTATION('',(#688),
#1232);
#1232=(
GEOMETRIC_REPRESENTATION_CONTEXT(3)
GLOBAL_UNCERTAINTY_ASSIGNED_CONTEXT((#1233))
GLOBAL_UNIT_ASSIGNED_CONTEXT((#1236,#1235,#1234))
REPRESENTATION_CONTEXT('Part 2','TOP_LEVEL_ASSEMBLY_PART')
);
#1233=UNCERTAINTY_MEASURE_WITH_UNIT(LENGTH_MEASURE(1.E-8),#1236,
'DISTANCE_ACCURACY_VALUE','Maximum Tolerance applied to model');
#1234=(
NAMED_UNIT(*)
SI_UNIT($,.STERADIAN.)
SOLID_ANGLE_UNIT()
);
#1235=(
NAMED_UNIT(*)
PLANE_ANGLE_UNIT()
SI_UNIT($,.RADIAN.)
);
#1236=(
LENGTH_UNIT()
NAMED_UNIT(*)
SI_UNIT($,.METRE.)
);
#1237=PRODUCT_DEFINITION_SHAPE('','',#1238);
#1238=PRODUCT_DEFINITION('','',#1240,#1239);
#1239=PRODUCT_DEFINITION_CONTEXT('',#1246,'design');
#1240=PRODUCT_DEFINITION_FORMATION_WITH_SPECIFIED_SOURCE('','',#1242,
 .NOT_KNOWN.);
#1241=PRODUCT_RELATED_PRODUCT_CATEGORY('','',(#1242));
#1242=PRODUCT('Part 2','Part 2','Part 2',(#1244));
#1243=PRODUCT_CATEGORY('','');
#1244=PRODUCT_CONTEXT('',#1246,'mechanical');
#1245=APPLICATION_PROTOCOL_DEFINITION('international standard',
'ap242_managed_model_based_3d_engineering',2020,#1246);
#1246=APPLICATION_CONTEXT('managed model based 3d engineering');
ENDSEC;
END-ISO-10303-21;
