ISO-10303-21;
HEADER;
/* Generated by software containing ST-Developer
 * from STEP Tools, Inc. (www.steptools.com) 
 */
/* OPTION: using custom renumber hook */

FILE_DESCRIPTION(
/* description */ ('STEP AP242 Edition 2',
'CAx-IF Rec.Pracs.---Representation and Presentation of Product Manufa
cturing Information (PMI)---4.0---2014-10-13',
'CAx-IF Rec.Pracs.---3D Tessellated Geometry---0.4---2014-09-14','2;1',
'CAx-IF Rec.Pracs.---User Defined Attributes---1.5---2016-08-15'),
/* implementation_level */ '2;1');

FILE_NAME(
/* name */ 'Gimbal Holder - Part 1',
/* time_stamp */ '2026-06-08T01:11:32Z',
/* author */ (''),
/* organization */ (''),
/* preprocessor_version */ 'ST-DEVELOPER v20',
/* originating_system */ 'ONSHAPE BY PTC INC, 1.216',
/* authorisation */ '  ');

FILE_SCHEMA (('AP242_MANAGED_MODEL_BASED_3D_ENGINEERING_MIM_LF { 1 0 10303 442 3 1 4 }'));
ENDSEC;

DATA;
#10=SHAPE_REPRESENTATION_RELATIONSHIP('','',#715,#11);
#11=ADVANCED_BREP_SHAPE_REPRESENTATION('',(#713),#1193);
#12=CYLINDRICAL_SURFACE('',#748,0.01375);
#13=CYLINDRICAL_SURFACE('',#759,0.00125);
#14=CYLINDRICAL_SURFACE('',#761,0.00125);
#15=CYLINDRICAL_SURFACE('',#763,0.00125);
#16=CYLINDRICAL_SURFACE('',#766,0.00125);
#17=CYLINDRICAL_SURFACE('',#769,0.01675);
#18=CYLINDRICAL_SURFACE('',#778,0.0137493547982449);
#19=CIRCLE('',#720,0.01375);
#20=CIRCLE('',#721,0.01375);
#21=CIRCLE('',#722,0.00125);
#22=CIRCLE('',#724,0.01375);
#23=CIRCLE('',#725,0.01375);
#24=CIRCLE('',#726,0.00125);
#25=CIRCLE('',#728,0.01375);
#26=CIRCLE('',#729,0.00125);
#27=CIRCLE('',#730,0.01375);
#28=CIRCLE('',#732,0.01375);
#29=CIRCLE('',#733,0.01375);
#30=CIRCLE('',#734,0.01375);
#31=CIRCLE('',#735,0.01375);
#32=CIRCLE('',#736,0.00125);
#33=CIRCLE('',#737,0.00125);
#34=CIRCLE('',#738,0.00125);
#35=CIRCLE('',#739,0.00125);
#36=CIRCLE('',#740,0.01675);
#37=CIRCLE('',#749,0.01375);
#38=CIRCLE('',#750,0.01375);
#39=CIRCLE('',#751,0.01375);
#40=CIRCLE('',#752,0.01375);
#41=CIRCLE('',#753,0.01375);
#42=CIRCLE('',#754,0.01375);
#43=CIRCLE('',#760,0.00125);
#44=CIRCLE('',#762,0.00125);
#45=CIRCLE('',#764,0.00125);
#46=CIRCLE('',#765,0.00125);
#47=CIRCLE('',#767,0.00125);
#48=CIRCLE('',#770,0.01675);
#49=CIRCLE('',#772,0.0137493547982449);
#50=CIRCLE('',#779,0.0137493547982449);
#51=ORIENTED_EDGE('',*,*,#247,.F.);
#52=ORIENTED_EDGE('',*,*,#248,.F.);
#53=ORIENTED_EDGE('',*,*,#249,.F.);
#54=ORIENTED_EDGE('',*,*,#250,.T.);
#55=ORIENTED_EDGE('',*,*,#251,.F.);
#56=ORIENTED_EDGE('',*,*,#252,.F.);
#57=ORIENTED_EDGE('',*,*,#253,.F.);
#58=ORIENTED_EDGE('',*,*,#248,.T.);
#59=ORIENTED_EDGE('',*,*,#254,.F.);
#60=ORIENTED_EDGE('',*,*,#255,.F.);
#61=ORIENTED_EDGE('',*,*,#256,.F.);
#62=ORIENTED_EDGE('',*,*,#257,.F.);
#63=ORIENTED_EDGE('',*,*,#258,.T.);
#64=ORIENTED_EDGE('',*,*,#259,.F.);
#65=ORIENTED_EDGE('',*,*,#260,.F.);
#66=ORIENTED_EDGE('',*,*,#261,.T.);
#67=ORIENTED_EDGE('',*,*,#262,.F.);
#68=ORIENTED_EDGE('',*,*,#263,.F.);
#69=ORIENTED_EDGE('',*,*,#264,.F.);
#70=ORIENTED_EDGE('',*,*,#265,.T.);
#71=ORIENTED_EDGE('',*,*,#266,.F.);
#72=ORIENTED_EDGE('',*,*,#267,.T.);
#73=ORIENTED_EDGE('',*,*,#268,.F.);
#74=ORIENTED_EDGE('',*,*,#269,.F.);
#75=ORIENTED_EDGE('',*,*,#270,.T.);
#76=ORIENTED_EDGE('',*,*,#249,.T.);
#77=ORIENTED_EDGE('',*,*,#253,.T.);
#78=ORIENTED_EDGE('',*,*,#271,.T.);
#79=ORIENTED_EDGE('',*,*,#272,.F.);
#80=ORIENTED_EDGE('',*,*,#273,.F.);
#81=ORIENTED_EDGE('',*,*,#274,.F.);
#82=ORIENTED_EDGE('',*,*,#275,.F.);
#83=ORIENTED_EDGE('',*,*,#276,.F.);
#84=ORIENTED_EDGE('',*,*,#277,.T.);
#85=ORIENTED_EDGE('',*,*,#278,.T.);
#86=ORIENTED_EDGE('',*,*,#279,.F.);
#87=ORIENTED_EDGE('',*,*,#280,.T.);
#88=ORIENTED_EDGE('',*,*,#281,.T.);
#89=ORIENTED_EDGE('',*,*,#282,.F.);
#90=ORIENTED_EDGE('',*,*,#283,.F.);
#91=ORIENTED_EDGE('',*,*,#284,.F.);
#92=ORIENTED_EDGE('',*,*,#285,.F.);
#93=ORIENTED_EDGE('',*,*,#286,.F.);
#94=ORIENTED_EDGE('',*,*,#287,.F.);
#95=ORIENTED_EDGE('',*,*,#288,.T.);
#96=ORIENTED_EDGE('',*,*,#289,.F.);
#97=ORIENTED_EDGE('',*,*,#290,.T.);
#98=ORIENTED_EDGE('',*,*,#291,.T.);
#99=ORIENTED_EDGE('',*,*,#292,.T.);
#100=ORIENTED_EDGE('',*,*,#256,.T.);
#101=ORIENTED_EDGE('',*,*,#293,.F.);
#102=ORIENTED_EDGE('',*,*,#280,.F.);
#103=ORIENTED_EDGE('',*,*,#293,.T.);
#104=ORIENTED_EDGE('',*,*,#255,.T.);
#105=ORIENTED_EDGE('',*,*,#294,.F.);
#106=ORIENTED_EDGE('',*,*,#281,.F.);
#107=ORIENTED_EDGE('',*,*,#295,.T.);
#108=ORIENTED_EDGE('',*,*,#296,.F.);
#109=ORIENTED_EDGE('',*,*,#297,.F.);
#110=ORIENTED_EDGE('',*,*,#283,.T.);
#111=ORIENTED_EDGE('',*,*,#297,.T.);
#112=ORIENTED_EDGE('',*,*,#298,.F.);
#113=ORIENTED_EDGE('',*,*,#299,.F.);
#114=ORIENTED_EDGE('',*,*,#284,.T.);
#115=ORIENTED_EDGE('',*,*,#300,.T.);
#116=ORIENTED_EDGE('',*,*,#301,.F.);
#117=ORIENTED_EDGE('',*,*,#286,.T.);
#118=ORIENTED_EDGE('',*,*,#302,.T.);
#119=ORIENTED_EDGE('',*,*,#265,.F.);
#120=ORIENTED_EDGE('',*,*,#303,.F.);
#121=ORIENTED_EDGE('',*,*,#304,.F.);
#122=ORIENTED_EDGE('',*,*,#305,.T.);
#123=ORIENTED_EDGE('',*,*,#303,.T.);
#124=ORIENTED_EDGE('',*,*,#264,.T.);
#125=ORIENTED_EDGE('',*,*,#306,.F.);
#126=ORIENTED_EDGE('',*,*,#271,.F.);
#127=ORIENTED_EDGE('',*,*,#252,.T.);
#128=ORIENTED_EDGE('',*,*,#307,.T.);
#129=ORIENTED_EDGE('',*,*,#304,.T.);
#130=ORIENTED_EDGE('',*,*,#308,.T.);
#131=ORIENTED_EDGE('',*,*,#250,.F.);
#132=ORIENTED_EDGE('',*,*,#270,.F.);
#133=ORIENTED_EDGE('',*,*,#309,.T.);
#134=ORIENTED_EDGE('',*,*,#310,.T.);
#135=ORIENTED_EDGE('',*,*,#306,.T.);
#136=ORIENTED_EDGE('',*,*,#268,.T.);
#137=ORIENTED_EDGE('',*,*,#311,.T.);
#138=ORIENTED_EDGE('',*,*,#266,.T.);
#139=ORIENTED_EDGE('',*,*,#302,.F.);
#140=ORIENTED_EDGE('',*,*,#285,.T.);
#141=ORIENTED_EDGE('',*,*,#299,.T.);
#142=ORIENTED_EDGE('',*,*,#312,.T.);
#143=ORIENTED_EDGE('',*,*,#313,.T.);
#144=ORIENTED_EDGE('',*,*,#314,.F.);
#145=ORIENTED_EDGE('',*,*,#315,.F.);
#146=ORIENTED_EDGE('',*,*,#316,.T.);
#147=ORIENTED_EDGE('',*,*,#295,.F.);
#148=ORIENTED_EDGE('',*,*,#282,.T.);
#149=ORIENTED_EDGE('',*,*,#294,.T.);
#150=ORIENTED_EDGE('',*,*,#254,.T.);
#151=ORIENTED_EDGE('',*,*,#317,.T.);
#152=ORIENTED_EDGE('',*,*,#257,.T.);
#153=ORIENTED_EDGE('',*,*,#292,.F.);
#154=ORIENTED_EDGE('',*,*,#279,.T.);
#155=ORIENTED_EDGE('',*,*,#318,.T.);
#156=ORIENTED_EDGE('',*,*,#259,.T.);
#157=ORIENTED_EDGE('',*,*,#319,.T.);
#158=ORIENTED_EDGE('',*,*,#262,.T.);
#159=ORIENTED_EDGE('',*,*,#320,.F.);
#160=ORIENTED_EDGE('',*,*,#272,.T.);
#161=ORIENTED_EDGE('',*,*,#321,.F.);
#162=ORIENTED_EDGE('',*,*,#322,.F.);
#163=ORIENTED_EDGE('',*,*,#274,.T.);
#164=ORIENTED_EDGE('',*,*,#323,.T.);
#165=ORIENTED_EDGE('',*,*,#324,.F.);
#166=ORIENTED_EDGE('',*,*,#325,.F.);
#167=ORIENTED_EDGE('',*,*,#275,.T.);
#168=ORIENTED_EDGE('',*,*,#322,.T.);
#169=ORIENTED_EDGE('',*,*,#326,.F.);
#170=ORIENTED_EDGE('',*,*,#327,.F.);
#171=ORIENTED_EDGE('',*,*,#328,.T.);
#172=ORIENTED_EDGE('',*,*,#329,.T.);
#173=ORIENTED_EDGE('',*,*,#276,.T.);
#174=ORIENTED_EDGE('',*,*,#325,.T.);
#175=ORIENTED_EDGE('',*,*,#330,.F.);
#176=ORIENTED_EDGE('',*,*,#331,.T.);
#177=ORIENTED_EDGE('',*,*,#327,.T.);
#178=ORIENTED_EDGE('',*,*,#332,.F.);
#179=ORIENTED_EDGE('',*,*,#323,.F.);
#180=ORIENTED_EDGE('',*,*,#273,.T.);
#181=ORIENTED_EDGE('',*,*,#320,.T.);
#182=ORIENTED_EDGE('',*,*,#261,.F.);
#183=ORIENTED_EDGE('',*,*,#290,.F.);
#184=ORIENTED_EDGE('',*,*,#333,.T.);
#185=ORIENTED_EDGE('',*,*,#263,.T.);
#186=ORIENTED_EDGE('',*,*,#289,.T.);
#187=ORIENTED_EDGE('',*,*,#334,.F.);
#188=ORIENTED_EDGE('',*,*,#267,.F.);
#189=ORIENTED_EDGE('',*,*,#288,.F.);
#190=ORIENTED_EDGE('',*,*,#335,.T.);
#191=ORIENTED_EDGE('',*,*,#336,.T.);
#192=ORIENTED_EDGE('',*,*,#287,.T.);
#193=ORIENTED_EDGE('',*,*,#258,.F.);
#194=ORIENTED_EDGE('',*,*,#337,.F.);
#195=ORIENTED_EDGE('',*,*,#338,.F.);
#196=ORIENTED_EDGE('',*,*,#339,.T.);
#197=ORIENTED_EDGE('',*,*,#330,.T.);
#198=ORIENTED_EDGE('',*,*,#260,.T.);
#199=ORIENTED_EDGE('',*,*,#318,.F.);
#200=ORIENTED_EDGE('',*,*,#278,.F.);
#201=ORIENTED_EDGE('',*,*,#291,.F.);
#202=ORIENTED_EDGE('',*,*,#340,.T.);
#203=ORIENTED_EDGE('',*,*,#296,.T.);
#204=ORIENTED_EDGE('',*,*,#341,.T.);
#205=ORIENTED_EDGE('',*,*,#335,.F.);
#206=ORIENTED_EDGE('',*,*,#312,.F.);
#207=ORIENTED_EDGE('',*,*,#298,.T.);
#208=ORIENTED_EDGE('',*,*,#329,.F.);
#209=ORIENTED_EDGE('',*,*,#342,.T.);
#210=ORIENTED_EDGE('',*,*,#338,.T.);
#211=ORIENTED_EDGE('',*,*,#277,.F.);
#212=ORIENTED_EDGE('',*,*,#301,.T.);
#213=ORIENTED_EDGE('',*,*,#343,.T.);
#214=ORIENTED_EDGE('',*,*,#309,.F.);
#215=ORIENTED_EDGE('',*,*,#269,.T.);
#216=ORIENTED_EDGE('',*,*,#317,.F.);
#217=ORIENTED_EDGE('',*,*,#337,.T.);
#218=ORIENTED_EDGE('',*,*,#311,.F.);
#219=ORIENTED_EDGE('',*,*,#334,.T.);
#220=ORIENTED_EDGE('',*,*,#336,.F.);
#221=ORIENTED_EDGE('',*,*,#313,.F.);
#222=ORIENTED_EDGE('',*,*,#341,.F.);
#223=ORIENTED_EDGE('',*,*,#316,.F.);
#224=ORIENTED_EDGE('',*,*,#344,.T.);
#225=ORIENTED_EDGE('',*,*,#314,.T.);
#226=ORIENTED_EDGE('',*,*,#344,.F.);
#227=ORIENTED_EDGE('',*,*,#315,.T.);
#228=ORIENTED_EDGE('',*,*,#340,.F.);
#229=ORIENTED_EDGE('',*,*,#333,.F.);
#230=ORIENTED_EDGE('',*,*,#319,.F.);
#231=ORIENTED_EDGE('',*,*,#328,.F.);
#232=ORIENTED_EDGE('',*,*,#331,.F.);
#233=ORIENTED_EDGE('',*,*,#339,.F.);
#234=ORIENTED_EDGE('',*,*,#342,.F.);
#235=ORIENTED_EDGE('',*,*,#310,.F.);
#236=ORIENTED_EDGE('',*,*,#343,.F.);
#237=ORIENTED_EDGE('',*,*,#300,.F.);
#238=ORIENTED_EDGE('',*,*,#305,.F.);
#239=ORIENTED_EDGE('',*,*,#332,.T.);
#240=ORIENTED_EDGE('',*,*,#326,.T.);
#241=ORIENTED_EDGE('',*,*,#324,.T.);
#242=ORIENTED_EDGE('',*,*,#321,.T.);
#243=ORIENTED_EDGE('',*,*,#251,.T.);
#244=ORIENTED_EDGE('',*,*,#247,.T.);
#245=ORIENTED_EDGE('',*,*,#308,.F.);
#246=ORIENTED_EDGE('',*,*,#307,.F.);
#247=EDGE_CURVE('',#345,#346,#409,.T.);
#248=EDGE_CURVE('',#347,#345,#410,.T.);
#249=EDGE_CURVE('',#348,#347,#411,.T.);
#250=EDGE_CURVE('',#348,#346,#412,.T.);
#251=EDGE_CURVE('',#349,#345,#413,.T.);
#252=EDGE_CURVE('',#350,#349,#414,.T.);
#253=EDGE_CURVE('',#347,#350,#415,.T.);
#254=EDGE_CURVE('',#351,#352,#19,.T.);
#255=EDGE_CURVE('',#353,#351,#416,.T.);
#256=EDGE_CURVE('',#354,#353,#417,.T.);
#257=EDGE_CURVE('',#355,#354,#20,.T.);
#258=EDGE_CURVE('',#355,#352,#21,.T.);
#259=EDGE_CURVE('',#356,#357,#22,.T.);
#260=EDGE_CURVE('',#358,#356,#418,.T.);
#261=EDGE_CURVE('',#358,#359,#419,.T.);
#262=EDGE_CURVE('',#360,#359,#23,.T.);
#263=EDGE_CURVE('',#357,#360,#24,.T.);
#264=EDGE_CURVE('',#361,#362,#420,.T.);
#265=EDGE_CURVE('',#361,#363,#421,.T.);
#266=EDGE_CURVE('',#364,#363,#25,.T.);
#267=EDGE_CURVE('',#364,#365,#26,.T.);
#268=EDGE_CURVE('',#362,#365,#27,.T.);
#269=EDGE_CURVE('',#366,#367,#422,.T.);
#270=EDGE_CURVE('',#366,#348,#423,.T.);
#271=EDGE_CURVE('',#350,#368,#424,.T.);
#272=EDGE_CURVE('',#369,#368,#28,.T.);
#273=EDGE_CURVE('',#370,#369,#425,.T.);
#274=EDGE_CURVE('',#371,#370,#426,.T.);
#275=EDGE_CURVE('',#372,#371,#427,.T.);
#276=EDGE_CURVE('',#373,#372,#428,.T.);
#277=EDGE_CURVE('',#373,#374,#429,.T.);
#278=EDGE_CURVE('',#374,#375,#430,.T.);
#279=EDGE_CURVE('',#376,#375,#29,.T.);
#280=EDGE_CURVE('',#376,#377,#431,.T.);
#281=EDGE_CURVE('',#377,#378,#432,.T.);
#282=EDGE_CURVE('',#379,#378,#30,.T.);
#283=EDGE_CURVE('',#380,#379,#433,.T.);
#284=EDGE_CURVE('',#381,#380,#434,.T.);
#285=EDGE_CURVE('',#382,#381,#31,.T.);
#286=EDGE_CURVE('',#367,#382,#435,.T.);
#287=EDGE_CURVE('',#383,#383,#32,.T.);
#288=EDGE_CURVE('',#384,#384,#33,.T.);
#289=EDGE_CURVE('',#385,#385,#34,.T.);
#290=EDGE_CURVE('',#386,#386,#35,.T.);
#291=EDGE_CURVE('',#387,#387,#36,.T.);
#292=EDGE_CURVE('',#376,#354,#436,.T.);
#293=EDGE_CURVE('',#377,#353,#437,.T.);
#294=EDGE_CURVE('',#378,#351,#438,.T.);
#295=EDGE_CURVE('',#379,#388,#439,.T.);
#296=EDGE_CURVE('',#389,#388,#440,.T.);
#297=EDGE_CURVE('',#380,#389,#441,.T.);
#298=EDGE_CURVE('',#390,#389,#442,.T.);
#299=EDGE_CURVE('',#381,#390,#443,.T.);
#300=EDGE_CURVE('',#391,#392,#444,.T.);
#301=EDGE_CURVE('',#367,#392,#445,.T.);
#302=EDGE_CURVE('',#382,#363,#446,.T.);
#303=EDGE_CURVE('',#391,#361,#447,.T.);
#304=EDGE_CURVE('',#393,#394,#448,.T.);
#305=EDGE_CURVE('',#393,#391,#449,.T.);
#306=EDGE_CURVE('',#368,#362,#450,.T.);
#307=EDGE_CURVE('',#349,#394,#451,.T.);
#308=EDGE_CURVE('',#394,#346,#452,.T.);
#309=EDGE_CURVE('',#366,#395,#453,.T.);
#310=EDGE_CURVE('',#395,#393,#454,.T.);
#311=EDGE_CURVE('',#365,#364,#37,.T.);
#312=EDGE_CURVE('',#390,#396,#38,.T.);
#313=EDGE_CURVE('',#396,#397,#39,.T.);
#314=EDGE_CURVE('',#398,#397,#455,.T.);
#315=EDGE_CURVE('',#399,#398,#40,.T.);
#316=EDGE_CURVE('',#399,#388,#456,.T.);
#317=EDGE_CURVE('',#352,#355,#41,.T.);
#318=EDGE_CURVE('',#375,#356,#457,.T.);
#319=EDGE_CURVE('',#357,#360,#42,.T.);
#320=EDGE_CURVE('',#369,#359,#458,.T.);
#321=EDGE_CURVE('',#400,#401,#459,.T.);
#322=EDGE_CURVE('',#371,#400,#460,.T.);
#323=EDGE_CURVE('',#370,#401,#461,.T.);
#324=EDGE_CURVE('',#402,#400,#462,.T.);
#325=EDGE_CURVE('',#372,#402,#463,.T.);
#326=EDGE_CURVE('',#403,#402,#464,.T.);
#327=EDGE_CURVE('',#404,#403,#465,.T.);
#328=EDGE_CURVE('',#404,#405,#466,.T.);
#329=EDGE_CURVE('',#405,#373,#467,.T.);
#330=EDGE_CURVE('',#406,#358,#468,.T.);
#331=EDGE_CURVE('',#406,#404,#469,.T.);
#332=EDGE_CURVE('',#401,#403,#470,.T.);
#333=EDGE_CURVE('',#360,#357,#43,.T.);
#334=EDGE_CURVE('',#365,#364,#44,.T.);
#335=EDGE_CURVE('',#396,#397,#45,.T.);
#336=EDGE_CURVE('',#397,#396,#46,.T.);
#337=EDGE_CURVE('',#352,#355,#47,.T.);
#338=EDGE_CURVE('',#407,#374,#471,.T.);
#339=EDGE_CURVE('',#407,#406,#472,.T.);
#340=EDGE_CURVE('',#408,#408,#48,.T.);
#341=EDGE_CURVE('',#388,#397,#49,.F.);
#342=EDGE_CURVE('',#405,#407,#473,.T.);
#343=EDGE_CURVE('',#392,#395,#474,.T.);
#344=EDGE_CURVE('',#399,#398,#50,.F.);
#345=VERTEX_POINT('',#995);
#346=VERTEX_POINT('',#996);
#347=VERTEX_POINT('',#998);
#348=VERTEX_POINT('',#1000);
#349=VERTEX_POINT('',#1004);
#350=VERTEX_POINT('',#1006);
#351=VERTEX_POINT('',#1010);
#352=VERTEX_POINT('',#1011);
#353=VERTEX_POINT('',#1013);
#354=VERTEX_POINT('',#1015);
#355=VERTEX_POINT('',#1017);
#356=VERTEX_POINT('',#1021);
#357=VERTEX_POINT('',#1022);
#358=VERTEX_POINT('',#1024);
#359=VERTEX_POINT('',#1026);
#360=VERTEX_POINT('',#1028);
#361=VERTEX_POINT('',#1032);
#362=VERTEX_POINT('',#1033);
#363=VERTEX_POINT('',#1035);
#364=VERTEX_POINT('',#1037);
#365=VERTEX_POINT('',#1039);
#366=VERTEX_POINT('',#1043);
#367=VERTEX_POINT('',#1044);
#368=VERTEX_POINT('',#1047);
#369=VERTEX_POINT('',#1049);
#370=VERTEX_POINT('',#1051);
#371=VERTEX_POINT('',#1053);
#372=VERTEX_POINT('',#1055);
#373=VERTEX_POINT('',#1057);
#374=VERTEX_POINT('',#1059);
#375=VERTEX_POINT('',#1061);
#376=VERTEX_POINT('',#1063);
#377=VERTEX_POINT('',#1065);
#378=VERTEX_POINT('',#1067);
#379=VERTEX_POINT('',#1069);
#380=VERTEX_POINT('',#1071);
#381=VERTEX_POINT('',#1073);
#382=VERTEX_POINT('',#1075);
#383=VERTEX_POINT('',#1078);
#384=VERTEX_POINT('',#1080);
#385=VERTEX_POINT('',#1082);
#386=VERTEX_POINT('',#1084);
#387=VERTEX_POINT('',#1086);
#388=VERTEX_POINT('',#1094);
#389=VERTEX_POINT('',#1096);
#390=VERTEX_POINT('',#1100);
#391=VERTEX_POINT('',#1104);
#392=VERTEX_POINT('',#1105);
#393=VERTEX_POINT('',#1111);
#394=VERTEX_POINT('',#1112);
#395=VERTEX_POINT('',#1119);
#396=VERTEX_POINT('',#1124);
#397=VERTEX_POINT('',#1126);
#398=VERTEX_POINT('',#1128);
#399=VERTEX_POINT('',#1130);
#400=VERTEX_POINT('',#1138);
#401=VERTEX_POINT('',#1139);
#402=VERTEX_POINT('',#1144);
#403=VERTEX_POINT('',#1148);
#404=VERTEX_POINT('',#1150);
#405=VERTEX_POINT('',#1152);
#406=VERTEX_POINT('',#1156);
#407=VERTEX_POINT('',#1170);
#408=VERTEX_POINT('',#1174);
#409=LINE('',#994,#475);
#410=LINE('',#997,#476);
#411=LINE('',#999,#477);
#412=LINE('',#1001,#478);
#413=LINE('',#1003,#479);
#414=LINE('',#1005,#480);
#415=LINE('',#1007,#481);
#416=LINE('',#1012,#482);
#417=LINE('',#1014,#483);
#418=LINE('',#1023,#484);
#419=LINE('',#1025,#485);
#420=LINE('',#1031,#486);
#421=LINE('',#1034,#487);
#422=LINE('',#1042,#488);
#423=LINE('',#1045,#489);
#424=LINE('',#1046,#490);
#425=LINE('',#1050,#491);
#426=LINE('',#1052,#492);
#427=LINE('',#1054,#493);
#428=LINE('',#1056,#494);
#429=LINE('',#1058,#495);
#430=LINE('',#1060,#496);
#431=LINE('',#1064,#497);
#432=LINE('',#1066,#498);
#433=LINE('',#1070,#499);
#434=LINE('',#1072,#500);
#435=LINE('',#1076,#501);
#436=LINE('',#1088,#502);
#437=LINE('',#1089,#503);
#438=LINE('',#1091,#504);
#439=LINE('',#1093,#505);
#440=LINE('',#1095,#506);
#441=LINE('',#1097,#507);
#442=LINE('',#1099,#508);
#443=LINE('',#1101,#509);
#444=LINE('',#1103,#510);
#445=LINE('',#1106,#511);
#446=LINE('',#1107,#512);
#447=LINE('',#1108,#513);
#448=LINE('',#1110,#514);
#449=LINE('',#1113,#515);
#450=LINE('',#1114,#516);
#451=LINE('',#1115,#517);
#452=LINE('',#1117,#518);
#453=LINE('',#1118,#519);
#454=LINE('',#1120,#520);
#455=LINE('',#1127,#521);
#456=LINE('',#1131,#522);
#457=LINE('',#1133,#523);
#458=LINE('',#1135,#524);
#459=LINE('',#1137,#525);
#460=LINE('',#1140,#526);
#461=LINE('',#1141,#527);
#462=LINE('',#1143,#528);
#463=LINE('',#1145,#529);
#464=LINE('',#1147,#530);
#465=LINE('',#1149,#531);
#466=LINE('',#1151,#532);
#467=LINE('',#1153,#533);
#468=LINE('',#1155,#534);
#469=LINE('',#1157,#535);
#470=LINE('',#1158,#536);
#471=LINE('',#1169,#537);
#472=LINE('',#1171,#538);
#473=LINE('',#1178,#539);
#474=LINE('',#1180,#540);
#475=VECTOR('',#790,1.);
#476=VECTOR('',#791,1.);
#477=VECTOR('',#792,1.);
#478=VECTOR('',#793,1.);
#479=VECTOR('',#796,1.);
#480=VECTOR('',#797,1.);
#481=VECTOR('',#798,1.);
#482=VECTOR('',#803,1.);
#483=VECTOR('',#804,1.);
#484=VECTOR('',#813,1.);
#485=VECTOR('',#814,1.);
#486=VECTOR('',#821,1.);
#487=VECTOR('',#822,1.);
#488=VECTOR('',#831,1.);
#489=VECTOR('',#832,1.);
#490=VECTOR('',#833,1.);
#491=VECTOR('',#836,1.);
#492=VECTOR('',#837,1.);
#493=VECTOR('',#838,1.);
#494=VECTOR('',#839,1.);
#495=VECTOR('',#840,1.);
#496=VECTOR('',#841,1.);
#497=VECTOR('',#844,1.);
#498=VECTOR('',#845,1.);
#499=VECTOR('',#848,1.);
#500=VECTOR('',#849,1.);
#501=VECTOR('',#852,1.);
#502=VECTOR('',#865,1.);
#503=VECTOR('',#866,1.);
#504=VECTOR('',#869,1.);
#505=VECTOR('',#872,1.);
#506=VECTOR('',#873,1.);
#507=VECTOR('',#874,1.);
#508=VECTOR('',#877,1.);
#509=VECTOR('',#878,1.);
#510=VECTOR('',#881,1.);
#511=VECTOR('',#882,1.);
#512=VECTOR('',#883,1.);
#513=VECTOR('',#884,1.);
#514=VECTOR('',#887,1.);
#515=VECTOR('',#888,1.);
#516=VECTOR('',#889,1.);
#517=VECTOR('',#890,1.);
#518=VECTOR('',#893,1.);
#519=VECTOR('',#894,1.);
#520=VECTOR('',#895,1.);
#521=VECTOR('',#904,1.);
#522=VECTOR('',#907,1.);
#523=VECTOR('',#910,1.);
#524=VECTOR('',#913,1.);
#525=VECTOR('',#916,1.);
#526=VECTOR('',#917,1.);
#527=VECTOR('',#918,1.);
#528=VECTOR('',#921,1.);
#529=VECTOR('',#922,1.);
#530=VECTOR('',#925,1.);
#531=VECTOR('',#926,1.);
#532=VECTOR('',#927,1.);
#533=VECTOR('',#928,1.);
#534=VECTOR('',#931,1.);
#535=VECTOR('',#932,1.);
#536=VECTOR('',#933,1.);
#537=VECTOR('',#954,1.);
#538=VECTOR('',#955,1.);
#539=VECTOR('',#966,1.);
#540=VECTOR('',#969,1.);
#541=EDGE_LOOP('',(#51,#52,#53,#54));
#542=EDGE_LOOP('',(#55,#56,#57,#58));
#543=EDGE_LOOP('',(#59,#60,#61,#62,#63));
#544=EDGE_LOOP('',(#64,#65,#66,#67,#68));
#545=EDGE_LOOP('',(#69,#70,#71,#72,#73));
#546=EDGE_LOOP('',(#74,#75,#76,#77,#78,#79,#80,#81,#82,#83,#84,#85,#86,
#87,#88,#89,#90,#91,#92,#93));
#547=EDGE_LOOP('',(#94));
#548=EDGE_LOOP('',(#95));
#549=EDGE_LOOP('',(#96));
#550=EDGE_LOOP('',(#97));
#551=EDGE_LOOP('',(#98));
#552=EDGE_LOOP('',(#99,#100,#101,#102));
#553=EDGE_LOOP('',(#103,#104,#105,#106));
#554=EDGE_LOOP('',(#107,#108,#109,#110));
#555=EDGE_LOOP('',(#111,#112,#113,#114));
#556=EDGE_LOOP('',(#115,#116,#117,#118,#119,#120));
#557=EDGE_LOOP('',(#121,#122,#123,#124,#125,#126,#127,#128));
#558=EDGE_LOOP('',(#129,#130,#131,#132,#133,#134));
#559=EDGE_LOOP('',(#135,#136,#137,#138,#139,#140,#141,#142,#143,#144,#145,
#146,#147,#148,#149,#150,#151,#152,#153,#154,#155,#156,#157,#158,#159,#160));
#560=EDGE_LOOP('',(#161,#162,#163,#164));
#561=EDGE_LOOP('',(#165,#166,#167,#168));
#562=EDGE_LOOP('',(#169,#170,#171,#172,#173,#174));
#563=EDGE_LOOP('',(#175,#176,#177,#178,#179,#180,#181,#182));
#564=EDGE_LOOP('',(#183));
#565=EDGE_LOOP('',(#184,#185));
#566=EDGE_LOOP('',(#186));
#567=EDGE_LOOP('',(#187,#188));
#568=EDGE_LOOP('',(#189));
#569=EDGE_LOOP('',(#190,#191));
#570=EDGE_LOOP('',(#192));
#571=EDGE_LOOP('',(#193,#194));
#572=EDGE_LOOP('',(#195,#196,#197,#198,#199,#200));
#573=EDGE_LOOP('',(#201));
#574=EDGE_LOOP('',(#202));
#575=EDGE_LOOP('',(#203,#204,#205,#206,#207));
#576=EDGE_LOOP('',(#208,#209,#210,#211));
#577=EDGE_LOOP('',(#212,#213,#214,#215));
#578=EDGE_LOOP('',(#216,#217));
#579=EDGE_LOOP('',(#218,#219));
#580=EDGE_LOOP('',(#220,#221));
#581=EDGE_LOOP('',(#222,#223,#224,#225));
#582=EDGE_LOOP('',(#226,#227));
#583=EDGE_LOOP('',(#228));
#584=EDGE_LOOP('',(#229,#230));
#585=EDGE_LOOP('',(#231,#232,#233,#234));
#586=EDGE_LOOP('',(#235,#236,#237,#238));
#587=EDGE_LOOP('',(#239,#240,#241,#242));
#588=EDGE_LOOP('',(#243,#244,#245,#246));
#589=FACE_BOUND('',#541,.T.);
#590=FACE_BOUND('',#542,.T.);
#591=FACE_BOUND('',#543,.T.);
#592=FACE_BOUND('',#544,.T.);
#593=FACE_BOUND('',#545,.T.);
#594=FACE_BOUND('',#546,.T.);
#595=FACE_BOUND('',#547,.T.);
#596=FACE_BOUND('',#548,.T.);
#597=FACE_BOUND('',#549,.T.);
#598=FACE_BOUND('',#550,.T.);
#599=FACE_BOUND('',#551,.T.);
#600=FACE_BOUND('',#552,.T.);
#601=FACE_BOUND('',#553,.T.);
#602=FACE_BOUND('',#554,.T.);
#603=FACE_BOUND('',#555,.T.);
#604=FACE_BOUND('',#556,.T.);
#605=FACE_BOUND('',#557,.T.);
#606=FACE_BOUND('',#558,.T.);
#607=FACE_BOUND('',#559,.T.);
#608=FACE_BOUND('',#560,.T.);
#609=FACE_BOUND('',#561,.T.);
#610=FACE_BOUND('',#562,.T.);
#611=FACE_BOUND('',#563,.T.);
#612=FACE_BOUND('',#564,.T.);
#613=FACE_BOUND('',#565,.T.);
#614=FACE_BOUND('',#566,.T.);
#615=FACE_BOUND('',#567,.T.);
#616=FACE_BOUND('',#568,.T.);
#617=FACE_BOUND('',#569,.T.);
#618=FACE_BOUND('',#570,.T.);
#619=FACE_BOUND('',#571,.T.);
#620=FACE_BOUND('',#572,.T.);
#621=FACE_BOUND('',#573,.T.);
#622=FACE_BOUND('',#574,.T.);
#623=FACE_BOUND('',#575,.T.);
#624=FACE_BOUND('',#576,.T.);
#625=FACE_BOUND('',#577,.T.);
#626=FACE_BOUND('',#578,.T.);
#627=FACE_BOUND('',#579,.T.);
#628=FACE_BOUND('',#580,.T.);
#629=FACE_BOUND('',#581,.T.);
#630=FACE_BOUND('',#582,.T.);
#631=FACE_BOUND('',#583,.T.);
#632=FACE_BOUND('',#584,.T.);
#633=FACE_BOUND('',#585,.T.);
#634=FACE_BOUND('',#586,.T.);
#635=FACE_BOUND('',#587,.T.);
#636=FACE_BOUND('',#588,.T.);
#637=PLANE('',#717);
#638=PLANE('',#718);
#639=PLANE('',#719);
#640=PLANE('',#723);
#641=PLANE('',#727);
#642=PLANE('',#731);
#643=PLANE('',#741);
#644=PLANE('',#742);
#645=PLANE('',#743);
#646=PLANE('',#744);
#647=PLANE('',#745);
#648=PLANE('',#746);
#649=PLANE('',#747);
#650=PLANE('',#755);
#651=PLANE('',#756);
#652=PLANE('',#757);
#653=PLANE('',#758);
#654=PLANE('',#768);
#655=PLANE('',#771);
#656=PLANE('',#773);
#657=PLANE('',#774);
#658=PLANE('',#775);
#659=PLANE('',#776);
#660=PLANE('',#777);
#661=PLANE('',#780);
#662=PLANE('',#781);
#663=PLANE('',#782);
#664=PLANE('',#783);
#665=PLANE('',#784);
#666=PLANE('',#785);
#667=ADVANCED_FACE('',(#589),#637,.F.);
#668=ADVANCED_FACE('',(#590),#638,.F.);
#669=ADVANCED_FACE('',(#591),#639,.F.);
#670=ADVANCED_FACE('',(#592),#640,.F.);
#671=ADVANCED_FACE('',(#593),#641,.F.);
#672=ADVANCED_FACE('',(#594,#595,#596,#597,#598,#599),#642,.T.);
#673=ADVANCED_FACE('',(#600),#643,.F.);
#674=ADVANCED_FACE('',(#601),#644,.F.);
#675=ADVANCED_FACE('',(#602),#645,.T.);
#676=ADVANCED_FACE('',(#603),#646,.T.);
#677=ADVANCED_FACE('',(#604),#647,.T.);
#678=ADVANCED_FACE('',(#605),#648,.F.);
#679=ADVANCED_FACE('',(#606),#649,.F.);
#680=ADVANCED_FACE('',(#607),#12,.F.);
#681=ADVANCED_FACE('',(#608),#650,.T.);
#682=ADVANCED_FACE('',(#609),#651,.T.);
#683=ADVANCED_FACE('',(#610),#652,.T.);
#684=ADVANCED_FACE('',(#611),#653,.T.);
#685=ADVANCED_FACE('',(#612,#613),#13,.F.);
#686=ADVANCED_FACE('',(#614,#615),#14,.F.);
#687=ADVANCED_FACE('',(#616,#617),#15,.F.);
#688=ADVANCED_FACE('',(#618,#619),#16,.F.);
#689=ADVANCED_FACE('',(#620),#654,.F.);
#690=ADVANCED_FACE('',(#621,#622),#17,.T.);
#691=ADVANCED_FACE('',(#623),#655,.F.);
#692=ADVANCED_FACE('',(#624),#656,.T.);
#693=ADVANCED_FACE('',(#625),#657,.F.);
#694=ADVANCED_FACE('',(#626),#658,.F.);
#695=ADVANCED_FACE('',(#627),#659,.F.);
#696=ADVANCED_FACE('',(#628),#660,.F.);
#697=ADVANCED_FACE('',(#629),#18,.F.);
#698=ADVANCED_FACE('',(#630,#631),#661,.T.);
#699=ADVANCED_FACE('',(#632),#662,.F.);
#700=ADVANCED_FACE('',(#633),#663,.T.);
#701=ADVANCED_FACE('',(#634),#664,.T.);
#702=ADVANCED_FACE('',(#635),#665,.F.);
#703=ADVANCED_FACE('',(#636),#666,.F.);
#704=CLOSED_SHELL('',(#667,#668,#669,#670,#671,#672,#673,#674,#675,#676,
#677,#678,#679,#680,#681,#682,#683,#684,#685,#686,#687,#688,#689,#690,#691,
#692,#693,#694,#695,#696,#697,#698,#699,#700,#701,#702,#703));
#705=STYLED_ITEM('',(#706),#713);
#706=PRESENTATION_STYLE_ASSIGNMENT((#707));
#707=SURFACE_STYLE_USAGE(.BOTH.,#708);
#708=SURFACE_SIDE_STYLE('',(#709));
#709=SURFACE_STYLE_FILL_AREA(#710);
#710=FILL_AREA_STYLE('',(#711));
#711=FILL_AREA_STYLE_COLOUR('',#712);
#712=COLOUR_RGB('',0.529411764705882,0.568627450980392,0.6);
#713=MANIFOLD_SOLID_BREP('Part 1',#704);
#714=SHAPE_DEFINITION_REPRESENTATION(#1198,#715);
#715=SHAPE_REPRESENTATION('Part 1',(#716),#1193);
#716=AXIS2_PLACEMENT_3D('',#992,#786,#787);
#717=AXIS2_PLACEMENT_3D('',#993,#788,#789);
#718=AXIS2_PLACEMENT_3D('',#1002,#794,#795);
#719=AXIS2_PLACEMENT_3D('',#1008,#799,#800);
#720=AXIS2_PLACEMENT_3D('',#1009,#801,#802);
#721=AXIS2_PLACEMENT_3D('',#1016,#805,#806);
#722=AXIS2_PLACEMENT_3D('',#1018,#807,#808);
#723=AXIS2_PLACEMENT_3D('',#1019,#809,#810);
#724=AXIS2_PLACEMENT_3D('',#1020,#811,#812);
#725=AXIS2_PLACEMENT_3D('',#1027,#815,#816);
#726=AXIS2_PLACEMENT_3D('',#1029,#817,#818);
#727=AXIS2_PLACEMENT_3D('',#1030,#819,#820);
#728=AXIS2_PLACEMENT_3D('',#1036,#823,#824);
#729=AXIS2_PLACEMENT_3D('',#1038,#825,#826);
#730=AXIS2_PLACEMENT_3D('',#1040,#827,#828);
#731=AXIS2_PLACEMENT_3D('',#1041,#829,#830);
#732=AXIS2_PLACEMENT_3D('',#1048,#834,#835);
#733=AXIS2_PLACEMENT_3D('',#1062,#842,#843);
#734=AXIS2_PLACEMENT_3D('',#1068,#846,#847);
#735=AXIS2_PLACEMENT_3D('',#1074,#850,#851);
#736=AXIS2_PLACEMENT_3D('',#1077,#853,#854);
#737=AXIS2_PLACEMENT_3D('',#1079,#855,#856);
#738=AXIS2_PLACEMENT_3D('',#1081,#857,#858);
#739=AXIS2_PLACEMENT_3D('',#1083,#859,#860);
#740=AXIS2_PLACEMENT_3D('',#1085,#861,#862);
#741=AXIS2_PLACEMENT_3D('',#1087,#863,#864);
#742=AXIS2_PLACEMENT_3D('',#1090,#867,#868);
#743=AXIS2_PLACEMENT_3D('',#1092,#870,#871);
#744=AXIS2_PLACEMENT_3D('',#1098,#875,#876);
#745=AXIS2_PLACEMENT_3D('',#1102,#879,#880);
#746=AXIS2_PLACEMENT_3D('',#1109,#885,#886);
#747=AXIS2_PLACEMENT_3D('',#1116,#891,#892);
#748=AXIS2_PLACEMENT_3D('',#1121,#896,#897);
#749=AXIS2_PLACEMENT_3D('',#1122,#898,#899);
#750=AXIS2_PLACEMENT_3D('',#1123,#900,#901);
#751=AXIS2_PLACEMENT_3D('',#1125,#902,#903);
#752=AXIS2_PLACEMENT_3D('',#1129,#905,#906);
#753=AXIS2_PLACEMENT_3D('',#1132,#908,#909);
#754=AXIS2_PLACEMENT_3D('',#1134,#911,#912);
#755=AXIS2_PLACEMENT_3D('',#1136,#914,#915);
#756=AXIS2_PLACEMENT_3D('',#1142,#919,#920);
#757=AXIS2_PLACEMENT_3D('',#1146,#923,#924);
#758=AXIS2_PLACEMENT_3D('',#1154,#929,#930);
#759=AXIS2_PLACEMENT_3D('',#1159,#934,#935);
#760=AXIS2_PLACEMENT_3D('',#1160,#936,#937);
#761=AXIS2_PLACEMENT_3D('',#1161,#938,#939);
#762=AXIS2_PLACEMENT_3D('',#1162,#940,#941);
#763=AXIS2_PLACEMENT_3D('',#1163,#942,#943);
#764=AXIS2_PLACEMENT_3D('',#1164,#944,#945);
#765=AXIS2_PLACEMENT_3D('',#1165,#946,#947);
#766=AXIS2_PLACEMENT_3D('',#1166,#948,#949);
#767=AXIS2_PLACEMENT_3D('',#1167,#950,#951);
#768=AXIS2_PLACEMENT_3D('',#1168,#952,#953);
#769=AXIS2_PLACEMENT_3D('',#1172,#956,#957);
#770=AXIS2_PLACEMENT_3D('',#1173,#958,#959);
#771=AXIS2_PLACEMENT_3D('',#1175,#960,#961);
#772=AXIS2_PLACEMENT_3D('',#1176,#962,#963);
#773=AXIS2_PLACEMENT_3D('',#1177,#964,#965);
#774=AXIS2_PLACEMENT_3D('',#1179,#967,#968);
#775=AXIS2_PLACEMENT_3D('',#1181,#970,#971);
#776=AXIS2_PLACEMENT_3D('',#1182,#972,#973);
#777=AXIS2_PLACEMENT_3D('',#1183,#974,#975);
#778=AXIS2_PLACEMENT_3D('',#1184,#976,#977);
#779=AXIS2_PLACEMENT_3D('',#1185,#978,#979);
#780=AXIS2_PLACEMENT_3D('',#1186,#980,#981);
#781=AXIS2_PLACEMENT_3D('',#1187,#982,#983);
#782=AXIS2_PLACEMENT_3D('',#1188,#984,#985);
#783=AXIS2_PLACEMENT_3D('',#1189,#986,#987);
#784=AXIS2_PLACEMENT_3D('',#1190,#988,#989);
#785=AXIS2_PLACEMENT_3D('',#1191,#990,#991);
#786=DIRECTION('',(0.,0.,1.));
#787=DIRECTION('',(1.,0.,0.));
#788=DIRECTION('',(-1.,0.,0.));
#789=DIRECTION('',(0.,1.,0.));
#790=DIRECTION('',(0.,-1.,0.));
#791=DIRECTION('',(0.,0.,-1.));
#792=DIRECTION('',(0.,1.,0.));
#793=DIRECTION('',(0.,0.,-1.));
#794=DIRECTION('',(0.,1.,0.));
#795=DIRECTION('',(1.,0.,0.));
#796=DIRECTION('',(-1.,0.,0.));
#797=DIRECTION('',(0.,0.,-1.));
#798=DIRECTION('',(1.,0.,0.));
#799=DIRECTION('',(0.,0.,1.));
#800=DIRECTION('',(1.,0.,0.));
#801=DIRECTION('',(0.,0.,1.));
#802=DIRECTION('',(0.,-1.,0.));
#803=DIRECTION('',(-7.62308549476526E-5,-0.999999997094428,0.));
#804=DIRECTION('',(-0.999999997094428,-7.62308549474805E-5,0.));
#805=DIRECTION('',(0.,0.,1.));
#806=DIRECTION('',(0.,-1.,0.));
#807=DIRECTION('',(0.,0.,1.));
#808=DIRECTION('',(0.,-1.,0.));
#809=DIRECTION('',(0.,0.,1.));
#810=DIRECTION('',(1.,0.,0.));
#811=DIRECTION('',(0.,0.,1.));
#812=DIRECTION('',(0.,-1.,0.));
#813=DIRECTION('',(1.,0.,0.));
#814=DIRECTION('',(0.,1.,0.));
#815=DIRECTION('',(0.,0.,1.));
#816=DIRECTION('',(0.,-1.,0.));
#817=DIRECTION('',(0.,0.,-1.));
#818=DIRECTION('',(0.,-1.,0.));
#819=DIRECTION('',(0.,0.,1.));
#820=DIRECTION('',(1.,0.,0.));
#821=DIRECTION('',(-1.51955032550519E-16,1.,0.));
#822=DIRECTION('',(-1.,-1.29789918554946E-16,0.));
#823=DIRECTION('',(0.,0.,1.));
#824=DIRECTION('',(0.,-1.,0.));
#825=DIRECTION('',(0.,0.,1.));
#826=DIRECTION('',(0.,-1.,0.));
#827=DIRECTION('',(0.,0.,1.));
#828=DIRECTION('',(0.,-1.,0.));
#829=DIRECTION('',(0.,0.,1.));
#830=DIRECTION('',(1.,0.,0.));
#831=DIRECTION('',(0.,-1.,0.));
#832=DIRECTION('',(-1.,0.,0.));
#833=DIRECTION('',(-1.51955032550519E-16,1.,0.));
#834=DIRECTION('',(0.,0.,1.));
#835=DIRECTION('',(0.,-1.,0.));
#836=DIRECTION('',(1.51955032550519E-16,1.,0.));
#837=DIRECTION('',(-1.,0.,0.));
#838=DIRECTION('',(0.,1.,0.));
#839=DIRECTION('',(1.,0.,0.));
#840=DIRECTION('',(0.,-1.,0.));
#841=DIRECTION('',(1.,0.,0.));
#842=DIRECTION('',(0.,0.,1.));
#843=DIRECTION('',(0.,-1.,0.));
#844=DIRECTION('',(-0.999999997094428,-7.62308549474805E-5,0.));
#845=DIRECTION('',(-7.62308549476526E-5,-0.999999997094428,0.));
#846=DIRECTION('',(0.,0.,1.));
#847=DIRECTION('',(0.,-1.,0.));
#848=DIRECTION('',(7.62308549476526E-5,-0.999999997094428,0.));
#849=DIRECTION('',(0.999999997094428,-7.62308549473082E-5,0.));
#850=DIRECTION('',(0.,0.,1.));
#851=DIRECTION('',(0.,-1.,0.));
#852=DIRECTION('',(-1.,-1.29789918554946E-16,0.));
#853=DIRECTION('',(0.,0.,1.));
#854=DIRECTION('',(0.,-1.,0.));
#855=DIRECTION('',(0.,0.,-1.));
#856=DIRECTION('',(0.,-1.,0.));
#857=DIRECTION('',(0.,0.,1.));
#858=DIRECTION('',(0.,-1.,0.));
#859=DIRECTION('',(0.,0.,-1.));
#860=DIRECTION('',(0.,-1.,0.));
#861=DIRECTION('',(0.,0.,1.));
#862=DIRECTION('',(0.,-1.,0.));
#863=DIRECTION('',(7.62308549474805E-5,-0.999999997094428,0.));
#864=DIRECTION('',(-0.999999997094428,-7.62308549474805E-5,0.));
#865=DIRECTION('',(0.,0.,-1.));
#866=DIRECTION('',(0.,0.,-1.));
#867=DIRECTION('',(0.999999997094428,-7.62308549476526E-5,0.));
#868=DIRECTION('',(-7.62308549476526E-5,-0.999999997094428,0.));
#869=DIRECTION('',(0.,0.,-1.));
#870=DIRECTION('',(0.999999997094428,7.62308549476526E-5,0.));
#871=DIRECTION('',(7.62308549476526E-5,-0.999999997094428,0.));
#872=DIRECTION('',(0.,0.,-1.));
#873=DIRECTION('',(7.62308549476526E-5,-0.999999997094428,0.));
#874=DIRECTION('',(0.,0.,-1.));
#875=DIRECTION('',(7.62308549473082E-5,0.999999997094428,0.));
#876=DIRECTION('',(0.999999997094428,-7.62308549473082E-5,0.));
#877=DIRECTION('',(0.999999997094428,-7.62308549473082E-5,0.));
#878=DIRECTION('',(0.,0.,-1.));
#879=DIRECTION('',(1.29789918554946E-16,-1.,0.));
#880=DIRECTION('',(-1.,-1.29789918554946E-16,0.));
#881=DIRECTION('',(-0.707106781186548,-9.17753315398521E-17,0.707106781186548));
#882=DIRECTION('',(0.,0.,-1.));
#883=DIRECTION('',(0.,0.,-1.));
#884=DIRECTION('',(0.,0.,-1.));
#885=DIRECTION('',(-1.,0.,0.));
#886=DIRECTION('',(0.,1.,0.));
#887=DIRECTION('',(0.,0.,-1.));
#888=DIRECTION('',(0.,-1.,0.));
#889=DIRECTION('',(0.,0.,-1.));
#890=DIRECTION('',(0.,-1.,0.));
#891=DIRECTION('',(0.,-1.,0.));
#892=DIRECTION('',(-1.,0.,0.));
#893=DIRECTION('',(-1.,0.,0.));
#894=DIRECTION('',(0.,0.,-1.));
#895=DIRECTION('',(0.707106781186548,0.,-0.707106781186548));
#896=DIRECTION('',(0.,0.,-1.));
#897=DIRECTION('',(0.,1.,0.));
#898=DIRECTION('',(0.,0.,1.));
#899=DIRECTION('',(0.,-1.,0.));
#900=DIRECTION('',(0.,0.,1.));
#901=DIRECTION('',(0.,-1.,0.));
#902=DIRECTION('',(0.,0.,1.));
#903=DIRECTION('',(0.,-1.,0.));
#904=DIRECTION('',(0.,0.,1.));
#905=DIRECTION('',(0.,0.,1.));
#906=DIRECTION('',(0.,-1.,0.));
#907=DIRECTION('',(0.,0.,1.));
#908=DIRECTION('',(0.,0.,1.));
#909=DIRECTION('',(0.,-1.,0.));
#910=DIRECTION('',(0.,0.,-1.));
#911=DIRECTION('',(0.,0.,1.));
#912=DIRECTION('',(0.,-1.,0.));
#913=DIRECTION('',(0.,0.,-1.));
#914=DIRECTION('',(0.,-1.,0.));
#915=DIRECTION('',(-1.,0.,0.));
#916=DIRECTION('',(-1.,0.,0.));
#917=DIRECTION('',(0.,0.,-1.));
#918=DIRECTION('',(0.,0.,-1.));
#919=DIRECTION('',(-1.,0.,0.));
#920=DIRECTION('',(0.,1.,0.));
#921=DIRECTION('',(0.,1.,0.));
#922=DIRECTION('',(0.,0.,-1.));
#923=DIRECTION('',(0.,1.,0.));
#924=DIRECTION('',(1.,0.,0.));
#925=DIRECTION('',(1.,0.,0.));
#926=DIRECTION('',(0.,0.,-1.));
#927=DIRECTION('',(0.707106781186548,0.,0.707106781186548));
#928=DIRECTION('',(0.,0.,1.));
#929=DIRECTION('',(-1.,0.,0.));
#930=DIRECTION('',(0.,1.,0.));
#931=DIRECTION('',(0.,0.,-1.));
#932=DIRECTION('',(0.,1.,0.));
#933=DIRECTION('',(0.,-1.,0.));
#934=DIRECTION('',(0.,0.,-1.));
#935=DIRECTION('',(0.,1.,0.));
#936=DIRECTION('',(0.,0.,-1.));
#937=DIRECTION('',(0.,-1.,0.));
#938=DIRECTION('',(0.,0.,-1.));
#939=DIRECTION('',(0.,1.,0.));
#940=DIRECTION('',(0.,0.,1.));
#941=DIRECTION('',(0.,-1.,0.));
#942=DIRECTION('',(0.,0.,-1.));
#943=DIRECTION('',(0.,1.,0.));
#944=DIRECTION('',(0.,0.,-1.));
#945=DIRECTION('',(0.,-1.,0.));
#946=DIRECTION('',(0.,0.,-1.));
#947=DIRECTION('',(0.,-1.,0.));
#948=DIRECTION('',(0.,0.,-1.));
#949=DIRECTION('',(0.,1.,0.));
#950=DIRECTION('',(0.,0.,1.));
#951=DIRECTION('',(0.,-1.,0.));
#952=DIRECTION('',(0.,1.,0.));
#953=DIRECTION('',(1.,0.,0.));
#954=DIRECTION('',(0.,0.,1.));
#955=DIRECTION('',(-0.707106781186548,0.,-0.707106781186548));
#956=DIRECTION('',(0.,0.,-1.));
#957=DIRECTION('',(0.,1.,0.));
#958=DIRECTION('',(0.,0.,1.));
#959=DIRECTION('',(0.,-1.,0.));
#960=DIRECTION('',(0.,0.,1.));
#961=DIRECTION('',(1.,0.,0.));
#962=DIRECTION('',(0.,0.,1.));
#963=DIRECTION('',(1.,0.,0.));
#964=DIRECTION('',(-1.,0.,0.));
#965=DIRECTION('',(0.,1.,0.));
#966=DIRECTION('',(0.,-1.,0.));
#967=DIRECTION('',(-1.,0.,0.));
#968=DIRECTION('',(0.,1.,0.));
#969=DIRECTION('',(0.,1.,0.));
#970=DIRECTION('',(0.,0.,-1.));
#971=DIRECTION('',(-1.,0.,0.));
#972=DIRECTION('',(0.,0.,-1.));
#973=DIRECTION('',(-1.,0.,0.));
#974=DIRECTION('',(0.,0.,-1.));
#975=DIRECTION('',(-1.,0.,0.));
#976=DIRECTION('',(0.,0.,1.));
#977=DIRECTION('',(-0.574131579899542,-0.818763048117131,0.));
#978=DIRECTION('',(0.,0.,1.));
#979=DIRECTION('',(1.,0.,0.));
#980=DIRECTION('',(0.,0.,-1.));
#981=DIRECTION('',(-1.,0.,0.));
#982=DIRECTION('',(0.,0.,-1.));
#983=DIRECTION('',(-1.,0.,0.));
#984=DIRECTION('',(-0.707106781186548,0.,0.707106781186548));
#985=DIRECTION('',(0.,1.,0.));
#986=DIRECTION('',(0.707106781186548,0.,0.707106781186548));
#987=DIRECTION('',(0.,1.,0.));
#988=DIRECTION('',(0.,0.,-1.));
#989=DIRECTION('',(-1.,0.,0.));
#990=DIRECTION('',(0.,0.,-1.));
#991=DIRECTION('',(-1.,0.,0.));
#992=CARTESIAN_POINT('',(0.,0.,0.));
#993=CARTESIAN_POINT('',(-0.009,0.00562394891781792,0.018));
#994=CARTESIAN_POINT('',(-0.009,0.00562394891781792,-0.00075));
#995=CARTESIAN_POINT('',(-0.009,0.00634894891781792,-0.00075));
#996=CARTESIAN_POINT('',(-0.009,0.00489894891781792,-0.00075));
#997=CARTESIAN_POINT('',(-0.009,0.00634894891781792,0.018));
#998=CARTESIAN_POINT('',(-0.009,0.00634894891781792,0.018));
#999=CARTESIAN_POINT('',(-0.009,0.00562394891781792,0.018));
#1000=CARTESIAN_POINT('',(-0.009,0.00489894891781792,0.018));
#1001=CARTESIAN_POINT('',(-0.009,0.00489894891781792,0.018));
#1002=CARTESIAN_POINT('',(-0.007805,0.00634894891781792,0.018));
#1003=CARTESIAN_POINT('',(-0.007805,0.00634894891781792,-0.00075));
#1004=CARTESIAN_POINT('',(-0.00661,0.00634894891781792,-0.00075));
#1005=CARTESIAN_POINT('',(-0.00661,0.00634894891781792,0.018));
#1006=CARTESIAN_POINT('',(-0.00661,0.00634894891781792,0.018));
#1007=CARTESIAN_POINT('',(-0.007805,0.00634894891781792,0.018));
#1008=CARTESIAN_POINT('',(0.,0.,-0.005));
#1009=CARTESIAN_POINT('',(-1.7347234759768E-18,1.04083408558608E-17,-0.005));
#1010=CARTESIAN_POINT('',(0.00687339309613745,-0.0119087769038625,-0.005));
#1011=CARTESIAN_POINT('',(0.00885409376842366,-0.0105198632852315,-0.005));
#1012=CARTESIAN_POINT('',(0.00687358500731478,-0.00939127691117733,-0.005));
#1013=CARTESIAN_POINT('',(0.00687377691849211,-0.00687377691849211,-0.005));
#1014=CARTESIAN_POINT('',(0.00939127691117733,-0.00687358500731478,-0.005));
#1015=CARTESIAN_POINT('',(0.0119087769038625,-0.00687339309613744,-0.005));
#1016=CARTESIAN_POINT('',(-1.7347234759768E-18,1.04083408558608E-17,-0.005));
#1017=CARTESIAN_POINT('',(0.0105198632852315,-0.00885409376842366,-0.005));
#1018=CARTESIAN_POINT('',(0.009391085,-0.009391085,-0.005));
#1019=CARTESIAN_POINT('',(0.,0.,-0.005));
#1020=CARTESIAN_POINT('',(-1.7347234759768E-18,1.04083408558608E-17,-0.005));
#1021=CARTESIAN_POINT('',(0.0132928128690227,0.00351619482241018,-0.005));
#1022=CARTESIAN_POINT('',(0.0105198632852315,0.00885409376842368,-0.005));
#1023=CARTESIAN_POINT('',(0.00995140643451136,0.00351619482241018,-0.005));
#1024=CARTESIAN_POINT('',(0.00661,0.00351619482241018,-0.005));
#1025=CARTESIAN_POINT('',(0.00661,0.00420757187011405,-0.005));
#1026=CARTESIAN_POINT('',(0.00661,0.0120569647921855,-0.005));
#1027=CARTESIAN_POINT('',(-1.7347234759768E-18,1.04083408558608E-17,-0.005));
#1028=CARTESIAN_POINT('',(0.00885409376842368,0.0105198632852315,-0.005));
#1029=CARTESIAN_POINT('',(0.009391085,0.009391085,-0.005));
#1030=CARTESIAN_POINT('',(0.,0.,-0.005));
#1031=CARTESIAN_POINT('',(-0.00661,0.0092029568550017,-0.005));
#1032=CARTESIAN_POINT('',(-0.00661,0.00351619482241018,-0.005));
#1033=CARTESIAN_POINT('',(-0.00661,0.0120569647921855,-0.005));
#1034=CARTESIAN_POINT('',(-0.00995140643451136,0.00351619482241018,-0.005));
#1035=CARTESIAN_POINT('',(-0.0132928128690227,0.00351619482241017,-0.005));
#1036=CARTESIAN_POINT('',(-1.7347234759768E-18,1.04083408558608E-17,-0.005));
#1037=CARTESIAN_POINT('',(-0.0105198632852315,0.00885409376842368,-0.005));
#1038=CARTESIAN_POINT('',(-0.009391085,0.009391085,-0.005));
#1039=CARTESIAN_POINT('',(-0.00885409376842368,0.0105198632852315,-0.005));
#1040=CARTESIAN_POINT('',(-1.7347234759768E-18,1.04083408558608E-17,-0.005));
#1041=CARTESIAN_POINT('',(0.,0.,0.018));
#1042=CARTESIAN_POINT('',(-0.008412,0.,0.018));
#1043=CARTESIAN_POINT('',(-0.008412,0.00489894891781792,0.018));
#1044=CARTESIAN_POINT('',(-0.008412,0.00351619482241017,0.018));
#1045=CARTESIAN_POINT('',(-0.007805,0.00489894891781792,0.018));
#1046=CARTESIAN_POINT('',(-0.00661,0.0092029568550017,0.018));
#1047=CARTESIAN_POINT('',(-0.00661,0.0120569647921855,0.018));
#1048=CARTESIAN_POINT('',(8.67361737988404E-19,9.54097911787244E-18,0.018));
#1049=CARTESIAN_POINT('',(0.00661,0.0120569647921855,0.018));
#1050=CARTESIAN_POINT('',(0.00661,0.0092029568550017,0.018));
#1051=CARTESIAN_POINT('',(0.00661,0.00634894891781792,0.018));
#1052=CARTESIAN_POINT('',(0.007805,0.00634894891781792,0.018));
#1053=CARTESIAN_POINT('',(0.009,0.00634894891781792,0.018));
#1054=CARTESIAN_POINT('',(0.009,0.00562394891781792,0.018));
#1055=CARTESIAN_POINT('',(0.009,0.00489894891781792,0.018));
#1056=CARTESIAN_POINT('',(0.007805,0.00489894891781792,0.018));
#1057=CARTESIAN_POINT('',(0.008412,0.00489894891781792,0.018));
#1058=CARTESIAN_POINT('',(0.008412,0.,0.018));
#1059=CARTESIAN_POINT('',(0.008412,0.00351619482241018,0.018));
#1060=CARTESIAN_POINT('',(0.00995140643451136,0.00351619482241018,0.018));
#1061=CARTESIAN_POINT('',(0.0132928128690227,0.00351619482241018,0.018));
#1062=CARTESIAN_POINT('',(1.82145964977565E-17,0.,0.018));
#1063=CARTESIAN_POINT('',(0.0119087769038625,-0.00687339309613744,0.018));
#1064=CARTESIAN_POINT('',(0.00939127691117733,-0.00687358500731478,0.018));
#1065=CARTESIAN_POINT('',(0.00687377691849211,-0.00687377691849211,0.018));
#1066=CARTESIAN_POINT('',(0.00687358500731478,-0.00939127691117733,0.018));
#1067=CARTESIAN_POINT('',(0.00687339309613745,-0.0119087769038625,0.018));
#1068=CARTESIAN_POINT('',(-1.7347234759768E-18,1.04083408558608E-17,0.018));
#1069=CARTESIAN_POINT('',(-0.00687339309613745,-0.0119087769038625,0.018));
#1070=CARTESIAN_POINT('',(-0.00687358500731478,-0.00939127691117733,0.018));
#1071=CARTESIAN_POINT('',(-0.00687377691849211,-0.0068737769184921,0.018));
#1072=CARTESIAN_POINT('',(-0.00939127691117733,-0.00687358500731477,0.018));
#1073=CARTESIAN_POINT('',(-0.0119087769038625,-0.00687339309613745,0.018));
#1074=CARTESIAN_POINT('',(8.67361737988404E-19,2.16840434497101E-19,0.018));
#1075=CARTESIAN_POINT('',(-0.0132928128690227,0.00351619482241017,0.018));
#1076=CARTESIAN_POINT('',(-0.00995140643451136,0.00351619482241018,0.018));
#1077=CARTESIAN_POINT('',(0.009391085,-0.009391085,0.018));
#1078=CARTESIAN_POINT('',(0.009391085,-0.010641085,0.018));
#1079=CARTESIAN_POINT('',(-0.009391085,-0.009391085,0.018));
#1080=CARTESIAN_POINT('',(-0.009391085,-0.010641085,0.018));
#1081=CARTESIAN_POINT('',(-0.009391085,0.009391085,0.018));
#1082=CARTESIAN_POINT('',(-0.009391085,0.008141085,0.018));
#1083=CARTESIAN_POINT('',(0.009391085,0.009391085,0.018));
#1084=CARTESIAN_POINT('',(0.009391085,0.008141085,0.018));
#1085=CARTESIAN_POINT('',(0.,1.02564169428591E-18,0.018));
#1086=CARTESIAN_POINT('',(0.,-0.01675,0.018));
#1087=CARTESIAN_POINT('',(0.00939127691117733,-0.00687358500731478,0.018));
#1088=CARTESIAN_POINT('',(0.0119087769038625,-0.00687339309613744,0.018));
#1089=CARTESIAN_POINT('',(0.00687377691849211,-0.00687377691849211,0.018));
#1090=CARTESIAN_POINT('',(0.00687358500731478,-0.00939127691117733,0.018));
#1091=CARTESIAN_POINT('',(0.00687339309613745,-0.0119087769038625,0.018));
#1092=CARTESIAN_POINT('',(-0.00687358500731478,-0.00939127691117733,0.018));
#1093=CARTESIAN_POINT('',(-0.00687339309613745,-0.0119087769038625,0.018));
#1094=CARTESIAN_POINT('',(-0.00687339309613745,-0.0119087769038625,-0.005));
#1095=CARTESIAN_POINT('',(-0.00687358500731478,-0.00939127691117733,-0.005));
#1096=CARTESIAN_POINT('',(-0.00687377691849211,-0.0068737769184921,-0.005));
#1097=CARTESIAN_POINT('',(-0.00687377691849211,-0.0068737769184921,0.018));
#1098=CARTESIAN_POINT('',(-0.00939127691117733,-0.00687358500731477,0.018));
#1099=CARTESIAN_POINT('',(-0.00939127691117733,-0.00687358500731477,-0.005));
#1100=CARTESIAN_POINT('',(-0.0119087769038625,-0.00687339309613745,-0.005));
#1101=CARTESIAN_POINT('',(-0.0119087769038625,-0.00687339309613745,0.018));
#1102=CARTESIAN_POINT('',(-0.00995140643451136,0.00351619482241018,0.018));
#1103=CARTESIAN_POINT('',(-0.0175793928760465,0.00351619482241018,0.0103720135584648));
#1104=CARTESIAN_POINT('',(-0.00661,0.00351619482241018,-0.000597379317581658));
#1105=CARTESIAN_POINT('',(-0.008412,0.00351619482241018,0.00120462068241835));
#1106=CARTESIAN_POINT('',(-0.008412,0.00351619482241018,0.018));
#1107=CARTESIAN_POINT('',(-0.0132928128690227,0.00351619482241017,0.018));
#1108=CARTESIAN_POINT('',(-0.00661,0.00351619482241018,0.018));
#1109=CARTESIAN_POINT('',(-0.00661,0.00420757187011405,0.018));
#1110=CARTESIAN_POINT('',(-0.00661,0.00489894891781792,0.018));
#1111=CARTESIAN_POINT('',(-0.00661,0.00489894891781792,-0.000597379317581658));
#1112=CARTESIAN_POINT('',(-0.00661,0.00489894891781792,-0.00075));
#1113=CARTESIAN_POINT('',(-0.00661,0.00351619482241018,-0.000597379317581658));
#1114=CARTESIAN_POINT('',(-0.00661,0.0120569647921855,0.018));
#1115=CARTESIAN_POINT('',(-0.00661,0.00562394891781792,-0.00075));
#1116=CARTESIAN_POINT('',(-0.007805,0.00489894891781792,0.018));
#1117=CARTESIAN_POINT('',(-0.007805,0.00489894891781792,-0.00075));
#1118=CARTESIAN_POINT('',(-0.008412,0.00489894891781792,0.018));
#1119=CARTESIAN_POINT('',(-0.008412,0.00489894891781792,0.00120462068241835));
#1120=CARTESIAN_POINT('',(-0.00661,0.00489894891781792,-0.000597379317581658));
#1121=CARTESIAN_POINT('',(8.67361737988404E-19,9.54097911787244E-18,0.018));
#1122=CARTESIAN_POINT('',(-1.7347234759768E-18,1.04083408558608E-17,-0.005));
#1123=CARTESIAN_POINT('',(-1.7347234759768E-18,1.04083408558608E-17,-0.005));
#1124=CARTESIAN_POINT('',(-0.0105198632852315,-0.00885409376842367,-0.005));
#1125=CARTESIAN_POINT('',(-1.7347234759768E-18,1.04083408558608E-17,-0.005));
#1126=CARTESIAN_POINT('',(-0.00885409376842367,-0.0105198632852315,-0.005));
#1127=CARTESIAN_POINT('',(-0.00885409376842366,-0.0105198632852315,-0.105));
#1128=CARTESIAN_POINT('',(-0.00885409376842366,-0.0105198632852315,-0.105));
#1129=CARTESIAN_POINT('',(-1.7347234759768E-18,1.04083408558608E-17,-0.105));
#1130=CARTESIAN_POINT('',(-0.00687339247539785,-0.011908775828356,-0.105));
#1131=CARTESIAN_POINT('',(-0.00687339309613744,-0.0119087769038625,-0.105));
#1132=CARTESIAN_POINT('',(-1.7347234759768E-18,1.04083408558608E-17,-0.005));
#1133=CARTESIAN_POINT('',(0.0132928128690227,0.00351619482241018,0.018));
#1134=CARTESIAN_POINT('',(-1.7347234759768E-18,1.04083408558608E-17,-0.005));
#1135=CARTESIAN_POINT('',(0.00661,0.0120569647921855,0.018));
#1136=CARTESIAN_POINT('',(0.007805,0.00634894891781792,0.018));
#1137=CARTESIAN_POINT('',(0.007805,0.00634894891781792,-0.00075));
#1138=CARTESIAN_POINT('',(0.009,0.00634894891781792,-0.00075));
#1139=CARTESIAN_POINT('',(0.00661,0.00634894891781792,-0.00075));
#1140=CARTESIAN_POINT('',(0.009,0.00634894891781792,0.018));
#1141=CARTESIAN_POINT('',(0.00661,0.00634894891781792,0.018));
#1142=CARTESIAN_POINT('',(0.009,0.00562394891781792,0.018));
#1143=CARTESIAN_POINT('',(0.009,0.00562394891781792,-0.00075));
#1144=CARTESIAN_POINT('',(0.009,0.00489894891781792,-0.00075));
#1145=CARTESIAN_POINT('',(0.009,0.00489894891781792,0.018));
#1146=CARTESIAN_POINT('',(0.007805,0.00489894891781792,0.018));
#1147=CARTESIAN_POINT('',(0.007805,0.00489894891781792,-0.00075));
#1148=CARTESIAN_POINT('',(0.00661,0.00489894891781792,-0.00075));
#1149=CARTESIAN_POINT('',(0.00661,0.00489894891781792,0.018));
#1150=CARTESIAN_POINT('',(0.00661,0.00489894891781792,-0.000597379317581654));
#1151=CARTESIAN_POINT('',(0.0165061896587908,0.00489894891781792,0.00929881034120917));
#1152=CARTESIAN_POINT('',(0.008412,0.00489894891781792,0.00120462068241835));
#1153=CARTESIAN_POINT('',(0.008412,0.00489894891781792,0.018));
#1154=CARTESIAN_POINT('',(0.00661,0.00420757187011405,0.018));
#1155=CARTESIAN_POINT('',(0.00661,0.00351619482241018,0.018));
#1156=CARTESIAN_POINT('',(0.00661,0.00351619482241018,-0.000597379317581654));
#1157=CARTESIAN_POINT('',(0.00661,0.00489894891781792,-0.000597379317581654));
#1158=CARTESIAN_POINT('',(0.00661,0.00562394891781792,-0.00075));
#1159=CARTESIAN_POINT('',(0.009391085,0.009391085,0.018));
#1160=CARTESIAN_POINT('',(0.009391085,0.009391085,-0.005));
#1161=CARTESIAN_POINT('',(-0.009391085,0.009391085,0.018));
#1162=CARTESIAN_POINT('',(-0.009391085,0.009391085,-0.005));
#1163=CARTESIAN_POINT('',(-0.009391085,-0.009391085,0.018));
#1164=CARTESIAN_POINT('',(-0.009391085,-0.009391085,-0.005));
#1165=CARTESIAN_POINT('',(-0.009391085,-0.009391085,-0.005));
#1166=CARTESIAN_POINT('',(0.009391085,-0.009391085,0.018));
#1167=CARTESIAN_POINT('',(0.009391085,-0.009391085,-0.005));
#1168=CARTESIAN_POINT('',(0.00995140643451136,0.00351619482241018,0.018));
#1169=CARTESIAN_POINT('',(0.008412,0.00351619482241018,0.018));
#1170=CARTESIAN_POINT('',(0.008412,0.00351619482241018,0.00120462068241835));
#1171=CARTESIAN_POINT('',(0.00861,0.00351619482241018,0.00140262068241835));
#1172=CARTESIAN_POINT('',(0.,1.02564169428591E-18,0.018));
#1173=CARTESIAN_POINT('',(0.,1.02564169428591E-18,-0.105));
#1174=CARTESIAN_POINT('',(0.,-0.01675,-0.105));
#1175=CARTESIAN_POINT('',(0.,0.,-0.005));
#1176=CARTESIAN_POINT('',(-4.11664599187067E-7,-5.04489075938471E-7,-0.005));
#1177=CARTESIAN_POINT('',(0.008412,0.00501619482241018,0.00180262068241835));
#1178=CARTESIAN_POINT('',(0.008412,0.00501619482241018,0.00120462068241835));
#1179=CARTESIAN_POINT('',(-0.008412,0.00501619482241018,0.0178426206824184));
#1180=CARTESIAN_POINT('',(-0.008412,0.00501619482241018,0.00120462068241835));
#1181=CARTESIAN_POINT('',(0.,0.,-0.005));
#1182=CARTESIAN_POINT('',(0.,0.,-0.005));
#1183=CARTESIAN_POINT('',(0.,0.,-0.005));
#1184=CARTESIAN_POINT('',(-4.11664599187067E-7,-5.04489075938471E-7,-0.105000000000001));
#1185=CARTESIAN_POINT('',(-4.11664599187067E-7,-5.04489075938471E-7,-0.105));
#1186=CARTESIAN_POINT('',(0.,0.,-0.105));
#1187=CARTESIAN_POINT('',(0.,0.,-0.005));
#1188=CARTESIAN_POINT('',(0.00861,0.00501619482241018,0.00140262068241835));
#1189=CARTESIAN_POINT('',(-0.00661,0.00420757187011405,-0.000597379317581658));
#1190=CARTESIAN_POINT('',(0.00214640643451136,0.00778657980729783,-0.00075));
#1191=CARTESIAN_POINT('',(0.00214640643451136,0.00778657980729783,-0.00075));
#1192=MECHANICAL_DESIGN_GEOMETRIC_PRESENTATION_REPRESENTATION('',(#705),
#1193);
#1193=(
GEOMETRIC_REPRESENTATION_CONTEXT(3)
GLOBAL_UNCERTAINTY_ASSIGNED_CONTEXT((#1194))
GLOBAL_UNIT_ASSIGNED_CONTEXT((#1197,#1196,#1195))
REPRESENTATION_CONTEXT('Part 1','TOP_LEVEL_ASSEMBLY_PART')
);
#1194=UNCERTAINTY_MEASURE_WITH_UNIT(LENGTH_MEASURE(2.E-6),#1197,
'DISTANCE_ACCURACY_VALUE','Maximum Tolerance applied to model');
#1195=(
NAMED_UNIT(*)
SI_UNIT($,.STERADIAN.)
SOLID_ANGLE_UNIT()
);
#1196=(
NAMED_UNIT(*)
PLANE_ANGLE_UNIT()
SI_UNIT($,.RADIAN.)
);
#1197=(
LENGTH_UNIT()
NAMED_UNIT(*)
SI_UNIT($,.METRE.)
);
#1198=PRODUCT_DEFINITION_SHAPE('','',#1199);
#1199=PRODUCT_DEFINITION('','',#1201,#1200);
#1200=PRODUCT_DEFINITION_CONTEXT('',#1207,'design');
#1201=PRODUCT_DEFINITION_FORMATION_WITH_SPECIFIED_SOURCE('','',#1203,
 .NOT_KNOWN.);
#1202=PRODUCT_RELATED_PRODUCT_CATEGORY('','',(#1203));
#1203=PRODUCT('Part 1','Part 1','Part 1',(#1205));
#1204=PRODUCT_CATEGORY('','');
#1205=PRODUCT_CONTEXT('',#1207,'mechanical');
#1206=APPLICATION_PROTOCOL_DEFINITION('international standard',
'ap242_managed_model_based_3d_engineering',2020,#1207);
#1207=APPLICATION_CONTEXT('managed model based 3d engineering');
ENDSEC;
END-ISO-10303-21;
